<mxfile host="app.diagrams.net" modified="2022-12-29T15:51:55.730Z" agent="5.0 (Windows NT 10.0; WOW64) AppleWebKit/537.36 (KHTML, like Gecko) Chrome/108.0.0.0 Safari/537.36" etag="YbbeQRWY6PvYM3vVxbKZ" version="20.7.4" type="github">
  <diagram id="t5ng1zeFRUNJtSybgEXc" name="Page-1">
    <mxGraphModel dx="1434" dy="806" grid="1" gridSize="10" guides="1" tooltips="1" connect="1" arrows="1" fold="1" page="1" pageScale="1" pageWidth="1100" pageHeight="850" math="0" shadow="0">
      <root>
        <mxCell id="0" />
        <mxCell id="1" parent="0" />
        <mxCell id="WISvBgNTOO_sFKA44shU-2" style="rounded=0;orthogonalLoop=1;jettySize=auto;html=1;exitX=0;exitY=0.5;exitDx=0;exitDy=0;entryX=1.02;entryY=0.42;entryDx=0;entryDy=0;entryPerimeter=0;startArrow=classicThin;startFill=1;endArrow=none;endFill=0;strokeColor=#3333FF;" parent="1" source="OUz0pmae6rex_LKDjg-_-2" target="WISvBgNTOO_sFKA44shU-1" edge="1">
          <mxGeometry relative="1" as="geometry" />
        </mxCell>
        <mxCell id="OUz0pmae6rex_LKDjg-_-2" value="" style="whiteSpace=wrap;html=1;fillColor=none;" parent="1" vertex="1">
          <mxGeometry x="400" y="80" width="200" height="280" as="geometry" />
        </mxCell>
        <mxCell id="Moh6Mw95iDRhxWac097l-1" value="" style="shape=image;verticalLabelPosition=bottom;labelBackgroundColor=default;verticalAlign=top;aspect=fixed;imageAspect=0;image=data:image/png,iVBORw0KGgoAAAANSUhEUgAAAv8AAAJuCAYAAAAnwW3EAAAgAElEQVR4nOzd2ZMc153o9+/vnJOZtXQ3FpIAwQXcQAIkwJ2iRhpJMxrPHd/xEg5H+MlhP/vN/4lf/eo3O8Jxww+OcITj+toxi6TRiCIprgCxEiRIYl96qarMPOf8/JDVAKgrkiIaxerl94koECAa3QeFzsxfnvwtoqqKMcYYY4wxZttz816AMcYYY4wx5odhwb8xxhhjjDE7hAX/xhhjjDHG7BAW/BtjjDHGGLNDWPBvjDHGGGPMDmHBvzHGGGOMMTuEBf/GGGOMMcbsEBb8G2OMMcYYs0NY8G+MMcYYY8wOYcG/McYYY4wxO4QF/8YYY4wxxuwQFvwbY4wxxhizQ1jwb4wxxhhjzA5hwb8xxhhjjDE7RNjoJ4hAAkoyQgIyCQd4vN1bGDNTCfBk0AQCCU/CTY9AkDmvzxizuSmQASWTyQDT84dD7BpuzBy13QGaBFwLLgEFUG34M284+O9OGnQnCc0kcbQIbhqA5A0v0RjzTbrgn/WDECUDzoJ+Y8yfbf1afeea7VhPDEjzWpQxO9yETBBPGQKZRE2LkhG68N9v4HOLqurGlpchujtniADqQHL3WxtanTHmWzWuu0TfCfYzngSaQQoss88Y8+1yt3mg7vaJROXOxl6wHTxj5qJxEQh3XcW767toseHH+hve+YcMYf1RBDS+O2kUHrx05xNjzGwUQMudXbty/YATu2IbY/5MkgB3+1G9THcUMhl1dhE3Zh7KqN0d+DrtMmwgQ+E2tLe34Z3/ZWqu0rCEp7idhJAJxGlg0t/IpzfGfIthA3gHTqABooBXxj2hApw9ejPGfAslk7izgecUXG5AV8An1mTXfBdozA41ZBno0zAgaItMVtBewZr0KSjobWD7f8M7/z11PDZpiZ/8gfDlWUrGgIJ6SIFSNl6YYIz5BuJoikhykV6qkN5DcPhFOPAwX98yMMaYbyJEuo3/Mk9wy1+y+s4/sJAnDCcW/BszF26ZGAqycxBbUoZ04BDF8z/C9QMbyf3ZcPBfZI+kivLT86z+v/8H5eoFUAUGKBWi441+CWPMnyKwVvSYlGvgxjRtSds/yIP/zf+A37cEfqMlQcaY7U4UQg6I70r3Qh4T3/stX/67/4WDcY1e05v3Eo3ZoRQtABeRNtIyxL/+91SPHCNXSxtK+9lw8N94JS04BoefoHi/R2xuggZcErKMcG5to1/CGPMNhrVjqBGooYVUJ9L59wnHXkGWBtPc/zRt5+dxOGTaGcgYY8gKUXEiRJdgcovxH97m2bZF4i1yZddwY+ZBUp+iyRTFGHxLP2ZiqMl9SBtL+d948F/SsoqQH32dau9R4lenqbXHcFLiiiuQFjf6JYwxf4ooqb9Cqw9QxQLRG3hqrp79kAevXYeF/dNWQDUZiPQIOPx6dbDdABiz46koIl25UMOY6quzLJ4+A03m6tICD46LeS/RmB3p8mDIvisRSs9a0TDUJcLiHtqqJLOxXbz7UMbvKQgw6MORQ/hiF8MaKFvrOGLMLCn4GHAKyaWuXs8r9eUv4LOTJAUVB1R4Ksrp7A0L/I0xt4lHveAUhtpy/ZPjxGYFtKbMVjdkzLwsNS1UNdFnqlTCnn3w9CFcOcBv8CK+8eBfHWUMTIKQX3kJlg5CrUz8aMOf2hjzHVKBz5BcRD3glGGzCh/9FuLqtFd3AblAckaIRLHBPcaYjiK0gOSEu3GNyblPkLwGtAyS7RIYMy+9uoGyJbmM5D564Gl49ghIgd/gffl92fl3dH1FJg8eRJ55FaqKLJNps2BjzMxowGtGyEQgiWOgLe2J3+Nvfo5rG5rIdIiPgqaud/ecl22M2TxEwGkN587Qv3oRxwgKISS7hhszN1lpSyXHiFS7aQ+9SN57gKR3ZnLcqw0f2SLdZynIRJbgx79gMqzoJaXN5UY/vTHmGwm4bq5GkRVHgdAjpIRfu8rqB79B0gpOuiHcSASN68k/xhgDTAOBOKE5/iGDqxcRF9HgIFmrbmPmxgkxJ/oUTHY9iHvxVWo37Ip13cae39+fKEAyJS0DgGcPM37qYVyjqNqJw5iZEYi+e+4mKeNjILUlKiXOJ0bv/xqaVRCYCOC6zj8BawBqjOkIitcGli+RvzpPtbYKRGofINs13Jh5SWUBTYRGkIOPkZ56Ep8EpxHdYE3tfQr+E+RMaGGl6LHnjZehFbyUXRNh0a7AULjza0s8MGbD4voRnB2ox0mB4shkms9PwaXPUXT6hHB6zOXpIWiM2RG+7Yrbtf7NrH1+jnjtIuRIEkcrnvvQENAYc49G3tFLDnyf/rEXWZMeJXTH6AbzfjYc/EegoQDtQ4CAwIv/BV8+egw/XiW5SHQQxRHFdXcrUoP1/zdmYxR6MQICXsBFPGNCjrjc47GbN1j56B8RWWapBdoF1A1I1u3HmB0lc1eKsE5/kbr/tgh5PGJ44i0Wrp2EomAkB/C5hOKreS3ZmB1vVHpkXLPy1OOkV/6OPVpQ+xotehQbfCp3X3b+b38SmY4TWtrFg0eeh16F13zXa/2jbUfBmJlT5db7JyhWV2gKoABRd7tA3xizMzi+fp2+fRl2EATyla8YX/yq281Tbl+zUasPMmZedo1r6A8ZHH0FhrsQhXL6ZH+j0fvGC375+iZiRsD3KH/0F1xaXAKlazGo2v03e5SAYrmExsza4oXLcOoTImtMyF3KDxtuFGCM2ULWM26VbsM/0cX5EZA0xl04xejSRdav5iFHQgLUHhEaMy+98YTx4l78a3/JioRpPC0kaiJxQ597w8H/+gYCsj5vTGgo4YlnGT/9At0Ov5tuNSpoBvUkKzk0ZsY8uyZjmnd+Q48VWhLdEfu1JABjzHanX/9pSyTTAC0sX8Z9+hFu+cY02M942m7n3zr2GTM/KdM+8xL58aNdqC9Aduh9aNh9/57pSddrvLsR6MHgQfa88VMmriS5Atx0B0HWEw6NMTPlPGhDffpD3JcX6JG6QWDczwPfGLNV5Lt+5lFCinDtEpz9kF6qpylBGUcLkrG+YMbMUVmx9LO/Z8U9SB9Ql0EcQslGC/fuTwxw+wYkU+XunKF+kYVnXybsPsAYT0SmJ5PYdQcSmzFqzGwplA1+5Qp8dIKiiaxMf8e6/RizU2VCVnxWqFu49AXtxdP0iOBdl+Yv0+R/sdo8Y+ZldOAAvPAGZGGYxrSsgoeCYjpe997dl+Bf1xP/tYvpXYIkAbewl3DoOSauoBWZJh5mhDg9uRhjZkahKVqKPIL3PoYmMV7/PXv4ZsyOJSjkDCurXDt7mqJZQ1CSQHKZ5Lqfd1M8jTHzMHjtNdYGe6gUaFfJrNEwjbM3Q/B/+1OJQ4LiguJEyf1Fln/x9+xtdtOvIw1CZIm10Ce07f370saY/1g94PpACfk6XD1BuvIxu8jQdMeqMWaniFwX8BmCLpPEQzOA5hxLx//PrlU34BVCKgmx6rrzST3fZRuz3cXEJASUEprEcphweSAQdzF687+nyo4yKLncQ8V+CgC/8W7d97HbT9dMTEQQERyCiMfv3oc79DSIULqMSEuvDSD9jX5pY8y3KWHYdO098+oKqx+doMgNKVgTD2N2FIEe06GA4pCcQEDPnWd07Xr3ASrTaWBy52WMmS0HTiFLBicspYIyFvDy8wz27sGLg6yoCl1kfd++7GyFPY/Biy9C6EGqcdT4JjPxg1l/aWN2tLqCxZGAOmI9ojxzGr98icZl1JL+jdlBHAOFNSBREESguUp8+10WXDHvxRmzczlHkSF6uqEbE4dve/Dj16HXQ1WnH3Z/w/UZB/+OXO4iP/ccPPhot+MgLaRMsj7/xszUpMjQBFCPaEP/wgXy+VNo1/HfGLNDJBwkSGRaCkQzLJ8nf/Ix3jJwjZmb5KQ7HolkUUgli/ufYXzoMCkUt7Np1m8C7pcfJPE37X8MDh0jyrDr8+8TIdvOozGz5DSDTKdpSws3vsCdPkmvHaEW/huzs0ikIJEJEFvSh7+hGl2jq+w1xsyTXw/uywKeP0a9+yAq/k4q/Vba+ReFSsEtPUg89AJ5uA+0IPUaqjSZ5Zc2ZsfrxwylI4nrumulG3DmLO7KdXSDA0KMMVuHAnhlkdxd9NuWydu/hrAM3or/jZkXnx0qEBK4DGv7dsPhQ/TL/cwyRJ/xUZ9xuUFcBU8+S/ng05ADq70E0boIGDNLoYW10nWPFV0GP4HPLxC/vIjYzr8xO0pDhiYTgPTlJfznn9KWEzbeN8QYc8+y6x6+5QwK4dCj8PgBqljgZ1h0P9PgXyWjoQEpyAefQQ8dBrdEEX0XmRhjZkcdopnWJ3wM0Paox9dxn79LMblFTUvUVUiTru+/gpJJ2AwOY7aTiFK2AXxBwzX8P//v9FYmtLHPqLBBXsbMTV1RlyNiNWa8sI/w2M+Je5+gDivoDIfhzjbtBw94BEF9hRx6Ct2zl0Fb0HrbeTRmthxBM1nyNMnHk6iZnD9Oun4FB2RxZNZb/NnsL2O2JwH1jFHC+Aq33n0LvAcNiNXfGTM/kig10ZCpHjyAP/gcbTnEa5rpE/qZJ/tJN5Kgm0b23NPERx+F1QzWXcyY2cqO9XvsGARcw0Aa4mdnyBe/QNoWpU9DdfvJv7Pw35ht53YrQVfTvPcBg9EYZEwoMv3GnsIbMzf9CcVYcX4X7pEn4fEDjAmEXIJu0Zx/wYEGMhDUMVraSz58FKoHidmCDGNmSjNewakjutxVFMURw5vXSGdPElZWAKH26+eYbNm/xmxDLkProJ/XGP/rWxS5pi0FUga1ND9j5iWWLTSeorcfDj1P2r0bJYCWM70ez77Mf/pEURASQ6rnX4eHH8Fpb+Zf2pgdzU0LiPK0owAOXJf803zyAdy8hE+QmKb7SDvN/rEcYGO2ExUIZPjyLIPPzgAN6ktKAji75TdmXjQ1NINdsOcZOPIiLRULAD5MW3XPxg/S40vJIJmF1IcDz3Dl+eco8vCH+NLG7FhaZBCoWk+ZQtffWxyIQy8chwsnCamd3p/f2QG0Z3LGbC8RKNIavPt7hsuXaYtEkTy0gVRYq09j5qXInkm1C33uRdj3CAWBKkFyeabzeH6Aoz6TaYGMjB2p3EX+6Rs4t2v2X9qYHawuEioKySGtx6mncRXRFSzFVTj+DoyXCazn+isZZxMAjNlmkgdWbxJPfATNMmtVRFKAVLBWzG530RjzHaKjt7QP9/KLrPoKn4A20pJmuhE321afZNRl/DT3nwIkJ/Y/eohbTz4LksgIKoGMoi6BpJkWORizU7jsEKVL/3EZUfDa5fVnibTHj8PVi0yAhAP1OJIl/RizFWmXZRth2q53DLSgUGaoP/sUrl8CbVhoPEgBRSSoFfwaMzOiqGshO4ihO05dInolOUf2jnzgIO7xZ8kU4GpwiUDRNcqZkZlH2QnFT1v7aKk4WpAl4k9+TiuKOkGzkKULSJD8QyzLmG2vjNIl+wrTbj4Zn7tX9Jnixk04+RGJ1enczwoAb33+jdmyuiuoAi0QUQE/qZmcOs5k7SpIJDSe2jvqMjGIFvwbMztdu+2uoM6BKNl12TAuB9aGS/Refg3KXYCAtBAiIc92/N4PkvazLiIk14PQ54Gjb9AOh0QHojWBjFNnxYbG/ADKpKBjrn34O/brGiURnCNRYDffxmw968NAS0BUQPtARQNw80vy5yegWYWg3UsiIbluR9IYMzNeHXi67hsu4jUSUkRSZPTAU/DsCyTnpzv9HmT2cfAPcNQ7oLuFyQKNBKJUsPgQg1d/wqoKQgvaAo4kMt39N8bMikQgtKxe+Bh//iykliTdrXqy4N+YLSdBNxQotZACUBCnx3I+9wHFl6cpaMFDEyKg+CyQbOiOMTOj3Q12dFAXmSQZcu4utuoYvPJXsOsAafqQXqdVeLP2w13lp1WECYihhLIHP/vPuVkugkzTE3BdRxLSnT9gjLn/YgkuM2yvw29/Bc2YFkgKaseeMVtOuv3jNOs/QYpQjq6RP/2I8uZFggpJSgC8xjupCMaY2en6bpBchjyta3Ulddln4bW/gqIPrG+VF11MPOMOvDM/6jN3Ogn46Rd06784cIyFI6+SfAkKWQuyeNv5N2bWtKR2yoKusfabf4bxMgABECsANGaLyuBrNGTaAJVm5LNT8PlJytyClpD7FCl0hb4CeOv2Y8xMSaaruQOfA8SKm8UiHH0ZHnkC9UrQSKld9Z0Sbv+ZWZlx8D8dLARAxE9fjggaWRk8xP4X3ySFHhBQ/LTwMNoNgDEz1WPiHD6NGV6/Rj71CaItQRvcdA/RGLN1dBuFDkhMUGqAdgyfnSRe+hQVUCpcrpBpjp8KRGc7/8bMmgAhO2g9uAVuFEOqv/4lay50DwJo8NONtx8i+p35US9w+7GiAB7FoyDa9RR57jV0z+NAJLsWr9keQxozaz4RxOGjgItcfe+3OF1GcUi0HGBjtqKuM7gnIJQAazfgwhn86jKZrvVvVwzMXZm1ttFmzEyJw2eH0wxeQTPVvkfh8Etfz+6RO7HvrJNvZxplC13nga7VYAACgQKhAAr25BVuPvgk5Wv/BnxLKVe6LiRUs16aMTvaqD9i2ChOlqCIPHDyX+Hye9QudL2IjTFbTOx2++lTTAoGDUxufc74wgmKtivu9dqA1NP8W48ohGzBvzEzIwAen6H1ibYYoSHxyEs/Ybn/KEPAUYIbgBTTTXKQO0nyMzHfCDuXDMUjzz/LePc+aCqEhuQt59iYWaqmrfybAJDxy2PW3j+BY4RW81yZMeZeZAIVBeSCXEHKq7jz50mXr4CzIn5j5kIBEtEnygRFrGj2PAxHn19/PjcX8w3+taLIMH7sYTjyGsQF0ERyNmTImFnyCVSE2guowuoE//Ep/NpVRs5y/o3ZajLgowN1rEpLHl1CTh5nMF4Bq+MxZo5i1143A3mJ8uhrsO+RuQbg8w3+HSDQ7nqI8uhfQvUAkEiaydZu0JjZSd1Ubb2dcFgzvPAV+fxJlNE8V2aMuQcOuuBCuuLBcPUz6lMf4GLTtQ40xsyN064eJw8fQF78EaOlPfNdz1y/ugA+4umRHj1KfPpZ1AuSw91RiTFmBhRHmQCXoJdwt66RP/qABR3Pe2nGmO+pUiV7aB0sTFbhxEeE5cvgprtsxpgfXDc3p6QXHbUriIefg8eeITPEzbHcZq7Bf3KAqxlmT7H3aepjzzMRR9ASEes9bMzMTA+vXuPIotzq1VAvU5w8BdeuzndtxpjvTeKEkYdVgJtrTN7+A85FkuOultvGmB+SIuRcQh2Y9ErSK0fJSw8RkiPM8Z58rmeErttYC3UgVz3SU0/Qf2AfPhWodu1AuxfTl/JHPcqMMfdi/aSTuq2Hcc+BRPyVK6ycOYNqAk2oKpnEejtAO/KM2aRypl1PmD33GfmLL1CJxOBBbTPNmHlQ51EJMEkM9u2DJx8n9Qf0dDple07mGvyvkZHREiCsFIocfInxE3+JZHBujRhqooMojrTe/1RsAJgx90PIGQK4VPHwzT4EgeWzuDO/g/FlWElkla4CICXIWDWAMZtUU/TYM3HsHY2oP/lfGXKOie/jc0BSM+/lGbMjZVVqV6OLDeHQ68i+N2lw4NZwzfzaas81+O9BNwigzFRAf3GJ8umDsLQLcsAnj9duJsLtTmWWumjM/XdXQWD+7CvSF59DP1K7bupG9zFg47+M2ZxUlVgBNy5y6+MzII4q5W5wpo3uMGYuCpR+TqQ9DyNPHsb3lqjW827n1+lzvsF/pY4mZJLPVFnJ6vDPPUs68ASqFZIdkgTJGdEM1gPImNlQ7V4ilF9cJJw9xSis0hApkgMR1IJ/YzYvJ7RSkz98i91XRygFvTYhmknecv6NmYuUkQz61FH0icO0QNDubrx285tpNd8zQoIaaFFchuxKOPAE7dPPk3pL5OQADzl3gQmQxaFiJzJj7huROy9VquWbcPYE9dplYNqbGNd1EbS7b2M2JYenbK9w/Xf/njIKmQJSBJTo7JppzNz0F0nPvEK7/6nuIXsCpESnM7nnYe59/gu6sEIFhIpc7aI89iPirgeIrryryHea5692EjNmZkRAx7Sffkj/iy/pawInIM76hRizifmkcOoDyoufgCZcLoFkNXLGzFF2Qnz4UcpDb9KGfncd9aBSEOaYxz73Vp897dKeGq8IgktDePpZ/COPUJeBWhW8+3quv80AMGZ2Qk288SW9E59SrU2Y+O6QE4Vkh54xm5JTof3X37FQX0YHgmgBPqOSCXbgGjMXsSoYPf0sbv8RQoKKCbVkxkDI80v6n2vw367/kPOdhx/JMRksURw+Qu71aYNHXZfvb4yZvRgSQWv04zNwY5UJ06NPM9GOQ2M2pebGKnriDE7XWHYJsgOXyQI+23M7Y+YhLCwwPHIUioIqAnmVhjSNf+dXRTffgl+A0oGrWMARRNFC6RFY/etfMBgcZGElMSmEKAvUboDXjOT5FUkYs+2lJTSXyGe/gZv/yO7JmByBsaNhZd6rM2bHWgaIEbTlJl3NHDWsskL5h/+ZWJ9kHPazEBXcCmiJTwHbPDNmhtwIZLlLZ8l9Jq5gNWTq4NC9T9Ee/bfkMqOlorKHBTxLcFcrvTkseX5fej2TxwEOh+AQRKQrXCr3Ubz4MhQVZd2SfU3IafoHbRfDmFlJQSnJ5HqV+IfjZFYoWtAKetYz0Ji5qaCbzi1CYFoS51r6zYjRxx/hYoakeGV6gV0v5p/fmo3Z/jxol8KTQg1plYVGyOVu/EuvUFZDAHLOqMo02p2vTRtFJxbhZ3/NpL+Ej5D9BK815ILkbFqhMbOSXAZtcCjxnROMRxfBwVqAop3jVoUxO1yVoRaIwEICzYCMSCdPkC9fpWgzLim4rk5OpavTsSZdxsyOUoL2wCfqYkzPJ1jJtIsH4Ed/efvjnHOIzDvs72za4J9cwYHHqV56nW4cWPeoE+XOtF9jzH3ndDpZb9JSLF8nv/8eqVrDJSDZzr8xc5Mh4sg4SFBIhrxG/vAderdWCW2m8gHNmSSQxfpjGDNz6rvWnQ7UtaARikWq515l7aGnuoyWTdZud3Ot5i4uw0roIz/7G1b7e7vOBQI4cNbu05iZKRI03oEEHC3+V78h6VUGyiY+YxizA7hMADwOHAgtXP6c8twJwmTMekPefFfAL2pZP8bMkmSHAo2nG4qZKurBgOrHP2PM0u3dfhGxnf/vUpAQBI68SHryKKEdkrx0bcuyFS8ZMys+CS4H6AVEG9yZTyjPnQAdETftGcOY7W/iutQfn2ESQGnRUydxF89Bjl2qz10f77X7WMv7MWaGNJJdQ+OEctIHhtx69Xl4+gn6m/TWe9Neyp2M6WVlVC2y68e/wKchtQ+0nm46mjFmNrIjpILrAw+tUjJi7T/8EznUtJv2jGHM9jeCrj127H4+Gq9QnzsPqze6AoA/TvVZn49pwb8xs6MJdW03SbupQIfs+tufslJVDCfzXtyftmkv5Ws+EJqSgor46hHqRw8wqAMu+q6YyRgzG64G2q6411c4rYnv/xZ36Yuu0ZbG250DayIj6q7/f5znoo3Z/iocVCNQZSFD/vwEvXNvdy0GfVePs77b79cDfsHyfoyZIRWPZmGhvgk+kp54heqp/4SGHrjxvJf3J23aKNoj4IRCQZceoHr9DVJ0BM1ksT7/xsxON1SvyA6cgLb04yorb/+WXh7fCSR0vQwnW2xhzA8gMH3wHTJlHfGfnqa5/Fl3nOK6HX6dtgC9O/g3xsyOCCFDodAUDv/GjyHspaIgh82ZqrJpg/8emVSCKhTshaOvkh/YB7lFLPg3ZnakaxMoRJAEZIrUcPW938LaFSYE4jTOKAlU0zJDtUZAxsyUBzwVaz7R3DhP8eHHFDkTXYNaPqwxcyEeJGVIBcuPPAyvHoUMgyREV857eX/Spg3+SZk1utHkRE/a/zTF0VfAZcROcsbMUNdPpAvvW8gZQRje+AI++hegXU87prs/cAgZuyU3ZrZ8AtqCSIO/dILy5EkkJVqZYIn9xsxJbiErWZbovf4T4kMPAHTtsbHg//vRO/mLZBgvPAQvvMx4uBvFhnwZM2siDepyl0ucEsOVW6QP3qJXL+Nz6m7Bha66UG+XARhjZkQSXVrP6mXi8X+B0RUQjwt+07QQNGbnySCe1V0Ps3DkR0yqPV10LeA36ZVx8wb/oaC3/nMB53tMnn4Wnj5GzpvzTsqY7UEAxWnqhgm5ElLBMDakc5/AmZOUcZUsSl6vKrTZG8bMnk7IAksXLpI/+B2EVRCPZMu5M2ZusjAqexRHXoY9zxCoaDwQwKsF/9/LBEeZAWoQCA2M9z1C77mXcMXSvJdnzPamXc5/chB9D1wfYibcvEH88B1oVslMqEmsP4izfUdjZkxq1lKET87Rv/QZVDVRAj7b03Bj5kY89XCR/gsvQX8fvRYmQCM1pM2Zpr65twuErvjQK0USKrdAeuYNwsPvohd+zzg0DJKDVBBDQMj4mDfxLc0mJ5AE3Hq3iNtNojNIRuljb+5OkVEq0K6XT3LgKXHjFnf6XVh+k3phLwMCSCYJloxnzAysZ/JnoPa7WLz5JaN3/okBBRPXJ1PQTxFFQDb3Jd3MWkZkBOpRCdReaJ3iaQiaKNv+XUMgzPeRHDi0K+zFgRSoZJCWpMLwsafh0WfRQZ8UoKTGkcFV8176n7RpzxQBiOLwOEQUcYlBW9E+fIT45GHy5Q9IjCEqUNC4gjIn0GbeS9/CtAvtZf0H6eorxJEl47OVdO4kIUPXWLC9q72nwhfnWTl1hoWHXqZwgAMvqRs+VNjNoTH32/qcLhHgxG/wF98FFJcqRFpEV4FiWhRgdjQVSA7BE3AkyYQcKJNaTfgGqEAm44msF/EmcXgybdWn/+RRePAgNwIEEkusAUOic5sy0N6MawLWs447Knfi0aLfIx85xPjkPhYv1pBrYtX1Gvdqu/4boiCpAedILtB6D1ogOeCTA67Oe4Vm3pxQ15ny4wtUh26QH2B7NjQAACAASURBVNkPsj7gK2EHoDH3l3DnqVoYXeb6O//E7mYViJS5Jsm0765oN4DP7FwCjSxSKpAzIUOIAXIB0UFvcw6c2gpE6Zpae4eSgRZPRjJU+x6HZ1+AaoECKHFs4vAa2OSru/vhVGY6xyQ4OPIc6d1D8NkV8JlRkahiQjSjbj1lxdyTHECYPs7KOE2UuYDkSH73vFdn5qz1kUm4zsKZP8BnL7P26E9p6bMQul2R3nd/CmPMn+FrM7rWh3adPcHyuc/Z6xYg1jShT5YCLxWKdAX6ZsdSYFwknDSE1IJkmuAg9ymC654cWXx0T3wGFaH2BUhLmWske6DCPXYEnjxMDp4iQ6UCFJs6F3ZTB//rVEC8u725Ue/Zj3/mRXjvDIzPo5oR7YLVLHeNNTffk3SFna7BU+Nzi6QE2UESPAvdNAuzYzlqenoTLh+HU//K4JVDrPUPAp5kgYcxG6eArKf6KMREiArOwz/8Ox4cXYVmAj5T5AlogtSlBHlL597xFpsal1ugQX1CgweNJAmEFLDWDPdIE4gnScDTIkSigt/7GPLcq8RdD3eDL2/n6HXhtTCtEdhkNm3wf/dbpcidGhUBZYHFY3/B6Ne/on/hAsO2QaTLT7fAfwMEkhc8XSYH4sihoKl6RB9YaGqsm/vOJirQ7IJiQHP2AuXp6yw98xR4KIXNOs/EmC1HgaSZUhyQGV26Qjz+K5b6oQtESgGpEU0QC3B2bjbg0tK0UUomhkTMEwaxQSZjCAvTwhHzvUkGCnwqqLSrf6yLHvnA0yw++yqZgoLure9KJgsgTvv8W/C/Ietx/SAVsPcRxkefQm4cp78yJpWZLA6fxG5s75niZDTdcippih7lC69T7H+C5f4SIY7srd3hfHa4pmB5EGndkId6e7pHmyWQlwFrw2vMhujXG7KoKiLCeGWNXX/739JKScqQfAu+JSRHGStaZ41cDIScSfSJUpJJLKRVOP0hnDwO1PNe3haWuo6SOXT1E96jg11w+CXY88h036t7fxspAEdJ6OpwNuFxuSWC/27f464i4ASEkoW/+Am89RYsL5NcIqmnX3sobAfknkx7u3fvuCOmQPnQ4/i/+a/Zt3gQSkv52fEUyAkt1lhCoF1gXEBDZsnHzXiOM2ZruesgEpHudJyUB556Ap77HyE7QghkyTiJXY1bLCntsbeRjMoNfO5RSp9WItz4inhrhfb8OXqxtnP0vVJPco46RMI4gwrFnkeojr5KDhXudpFO1x5dN+Fu/902bfD/x9+gXws7wxorTvCPvclg/8/Q618yKa9Cqui3FRRW0X5vBNKQpsiUqWagt7j81fs8OPk5bvg0Kmoj5A34wB52dT8voA/0ccDeea7KmO1h+vC6uzi7Lvi/3Srcr38IHgeU3S+K9f9rdjJFGLGLYeoKQCYiFNeuIp+dpd9eAipL+7lXcYG6VG4ORgxvjaBcRA69RPPYk7QOhgLrB+rXsl836eyNzX1r8o0CCc9AS/jlq4gO8LlgaRKhZ63O7pnQ9WxXUNcVWPtPL+I+vUAb1roOQMYYY4zZlCo8+MDEOYZ5Qjz+Me3yFbJrLS1sI3wiucijtyI6LKD3EOXrr1DoXbv+W8iWDP5VAgUlmYL0wrPwxHMMxwtQJ9b6NuRrI5LLOIXGO3DCAzdG8OFxJunKvJdmjDHGmG8gOEJ21A7GZNz1S4TTJ/Ar14gF9uR+A1KIlLmFCayEIe3ho+hTzyPS25J9LrZk8B/FMUxCEyAPdpP+7pcwXoKyItqE3w3qdveTSHeiaFomn3xEce0caEJVb7+MMcYYszmoKkygm/cc4expuHiaol0jb9L0k62iDlBNEngh5SHpr/8GDQ8xctjO/w9Fu36f03mifeKbP4F9TzEJgaFlpmyA4lVJ4nDqIGUoErp6md4H76EpW/BvjDHGbErTeUfAYG0Vzp4k3roAIUGyEYwbkRPQCnFY4g88ST76Kq7tkx3g23kv73vbksE/ZPCZoUIk0Ia96N/8nJoeodmif6XNQIEEyYHLDnJGezW5GMGv30JSJueMrD8VMMYYY8zmEWoGKO7SVfKnZ0jpBk0v02sqbM/u3lW5gKJkJcLS3/0VhTwECiWRCVsv42RLRsoeSJKhhjVgIQ1p/+IV+r2l7nGA6HTIwvqfmM5Gt3j1u2kmSTfKGjzjEpJr4dR5rl24gAtCzIlMomtnZdPCjTHGmE3BtfRiTfPlV6x+9QXqEiOXIRaIBUHfQafx43/8KpKDULK4sBf98UsUE0cCypxoSPNe+Pe2JYN/xeEI0FumR8017yirJynf+AsmfU8TIrUrSdrvtrFjlwsULeftOwh4z6CNeI3gPIO6x9JEYGHCQ//P/4TmlpwCWVZBb9z5lrc7AGOMMWZuVBy0S8joAlz4v1m4dYZe02cQF6EYzXt5W4YKRJe7l49EH8FdoU6K++V/x3I4ynK/64xIqljYgsMtt2Tw3+lGJlc4ggLVEI69ytrCborkCBpB2m4L2wNINwzF3LOrp47jv7ww/a6pQHrT4WsZxFqsGmOMMfO01gN38QrjE+fACXjXPcl3WPbDd5m+P6JdYO+1m2ofkgMZMH7gQdwLhynUdR1+CsD/0RyqLWILB/9A9ngtqBTwBTz8JL0jbyLZ47UFNyb6RAwOFfBq1cAbUYxuwNu/xpMh9hkx7H5DbWS4McYYM1+ZCbfg5GmG5y+DExrfBXrRWZLud1HJ3SwEBcnu9gt11AwYvvY6PLKfXhJ6CrXvkku24tu6JYP/2+n8GiBBmaf/AA8+RnX0TVJvN5mE0wlJWqLzZHGgWy8vazMZpgi//wfC+CsC0AKO9VHWxhhjjJmH9Q585fgL+PADQt0gOKJzXR4Ltvn5XZLA7fcpa/e+TYP/ydJ+ihd/xGSwhFOBBJFM3KLv65YM/t36my1FN/3cgfOQyiXC40fhyWOMXIloJqiABhQHsvUqsjeTkANcOwun3kFaxQGeBFKyRb+VjDHGmC3r7tbbQmbx/FmWPz8B0iIoToVsmQ/fnzjAkZ2jdoHi0DHY/wwNA7IHBCrSNO153ov9/rZkxNbt+juSm+74u9z9AwA88Dj58MuMewuQHT4KLnuyZHBbrxfrpqJ92nSV9PY/g4zo051sEgV5a34rGWOMMVvW3cG/NhF++w4xL0M/QlJcdkQHonlLpqf8oOTrN0jqHLV3pGGfwbGXYLifIpesTuPOEDMlsBUTn7dmxDb994l0qSdKC9RdUUsxIDzzAsP9j3aPa6LD5+lf04pSNyTFQFvU1Kc/prn5VVdonbt/B2OMMcb8sNbn7qgq7XjSBf9Fw3KZIClF7jZKt2A3yh/c15rCiCMijDUzePRhOHgQ/AI9hTF0u9A1oGzBLv9bNfifVq2XQAV0JdcVOBgXsHb4CP2DL9OUi8CYW8OblMlB3D/HRW99Tb+kf2vI4MoN3B/+L27JZWgrqknCWT2FMcYYM1sZiN2MI7iGpBvUWXCto3r7f4P2Ag+NGhZrB0EQIoMWcOVcl70lSN0V+DYDrveUSZiwd7LI6ss/Z3zwWbTy4JSH0O4hyrAAcSzMe933YGsG/9Nly+2Xu/3/HNBzA+S55ygffAxCyZ5JZq2M0/nM5l751BIrIEfGn5yhWL1F1gac6/oLG2OMMWZ2umI7CgAK8D1aAZoJN//ln4H1Oaeuy1u/3eTna5NPzZ+gEqZd5FuqlOjh4YnHGTzxAoUb3H7K4pC74k63Jd/VbRexVRlCCrQvPk/78JMkN0QmMC5bLEFlY8rcEiuB3DD8/BLu5CkoI9HLtJuAMcYYY2YlEYkSKTOQFliTPtEBn79H7+y5eS9va8sVkKFcYxhrQgzULxzGPXoEl7fXkNhtF/yTugKY1cHD5JffRIb7QWChTuCs2mVDJJJyhsLhrlwhfPwx0q7Qbr/vImOMMWbTUSBRQ8qQHQ3Coq7SvPXv6Y3H817elpa0C/BrP4GUkT2PMj72EnGwD1EL/jc3iaSgeJbwR9+A/U+w2ivojSAVtju9ESpKPxbdk8M8Jpw/CRc/ZXsdEsYYY8zmJQCSwHXpP+HSScbHfwtq2Q0b4dSBJLwCfoH8+DO4p49Qi3y9GHgb2HbBfxsSrWtZagTZ+zj1K8fI1RC0oLXUlA2pvcNPChRPrmr46lPyqeMUcTLvpRljjDHbnhAoqMBFGg8LMcG7v2Kw+hWUVtS7EV4zrUuEWNIO95OOvU5YeAjnFPXbK/rfdsF/QwIaaMDlivzjl1jsLYI6ZFoiY+5N4zzUnkxgtZdg7Rrx7Gny8nW23W2xMcYYs8k4QHIAl7sqxtEtRu//nmJ8k7V+f86r29pEM6lw0ASKhw4Sjr1C0B6VNug2axW/7YL/QEFfeyAQA6QHnkdf/89onKdK10lhQvItySnJua5OVRJINzHAfLNhrGGhRSWzNAmgnvrzT5ELH6C5JpMgrwEjEneXV9tkQWOMMWbDNHWdC2OfETWc+T2D85fIudcNMzX3bKXK9MYV9PZRv/Yy7b59OCkQSrZbuLy9/jZASQFaQtmF8o4h7kc/ZXlpD5C/pebXDprv4lOmLjLR525gSM7UVy+RPj2BjEfdlEERVMVuo4wxxphZUCHj6DFm9ME7MBqRvKewnP8NKbQFStZ27ab60Y+BHkEhi6D4eS/vvtp2wb8o3a5/AR7oq4NHDuBfOgZuF5IFnx0+Cz7f1fXWWuB+N+362bYOUpGhjAzaZdqP38Ndu4LPkLUkSg+Yvp12F2CMMcbcFyqOVhwNLdW58/gzn4KLTHyiSu28l7el9ccTYpHxr7wOux+noA/TvU7dZhvE2y74h67l/JiMB3xypN4Ce/7T/5LLfk/XxzVNB1/kBKqoQBTrWfNn0e5bppWE6oiha/DnTsNnp6GdkDUwQciAJwL59p8xxhhjzAaokAKUboz76A9Ul74CalwVEAv+NyZGLg8H9H75tzTFLqSL+lHyNgv9t2PwL0wDz3x713lEDw4cojzyBsmVJHWg62Pv1v9Jt99bcd+5jCNTJIeIR7yDXFM2I+rjv4cbl/B0b60j090vY09UjDHGmPtAAJfB3fgSf/pDGF0hBaVo1MKYjfIDFl55k7z/KVrC9M3upiW7bfbmbq+/DeuPZ2AwjetbD1CA7GH3z/8No1DQFgW5a1b/R3/aotRvo07xGXrRUSaHro8Pd8ryJ2/B1U+R2AX8Qpr2HHaW+WOMMcbcJ2XbwOmP4cJxcjkCdZSTQPTbKy/9h3Zt9wGWfvpvmfhdFAlwkehqSmXbzTPadsH/7XKXCaCwJlBlIA3hmedYPHiQiZNuHLb/UzcA5pu0Pnc1FVGQ6Ml4Gu+J3lOsfAUn34d2RJD1lJ/uRsDeYWOMMeY+maygpz5Bb33FSq9FRWBS0Djr878R7vBL8NgRfA6UCWBETd2FMmnOi7vPtl3w75nu3/vuVTG9Y/OQh7vgJ39F8EPEKa0oUNBKQcgZq079dj5N5yRIdxQ4DbjcfQstxYbx22/B5BoAIwqoC5C83Y4ZY4wxZma0a5xNwzTm1AaoUU2ItnDpFJPPziGtUrWejIOSaRxjvpEoTVF3O5IaqANde9Ss1L2KXb/4r6BYpHCAA8XjKabDFea89vts2wX/gS7up+zytfqAc3QzsIuK9oUfM9x/CBHBiZIkEN20ANhi/291O/j3EVxGsickT8gZFzPu0kU48R4tq12+nFZAQrH2Y8YYY8yfQ7hTkRhhOmCqJaPQjuGzDxlf/BwI9JoSFaj7mTLatfa7ZKfdGyuO6MBpJuNxzxwhP/kCGgY4gS7lf0iPfhcpb7NoeZv9db6dqKPoPwJvvEKUEh8j6scEjWDTfzemdLRuTPuPv6GvayyRqfsOkifsrG8zY4wxZkPC9CVAowVJyy7t9tZ18snjVJMV0JrsM9Gtt9a2a+13qZoeeEf0NWWaQMqsVosUb/4C3x8CoKrd3KJtbId9pzgoHmB07BjFw09AEpJrKVNCCSDb7LnODyiT6buWdOp9ylOfIFqzBiAObyckY4wx5s+jDnImTCvmGimIUuJSDV+eIx1/n0FaBTeh8ZFsocufRwVpK6KH5BuK1EJy+CePkJ55FUJApnGgBf/bTPYwOfAk/vArpHJwe1R2Yvv/Y89SCgV+PEH9VfgP/x/EFTwwcgr2KNIYY4z58ymgXd/+zHSA6eoN6k/epVi9gVCjAcDhs+vq7+wm4M+g/z97b/omxXH1bd4nIjKzqnqhWYWEkIQAgYSEdsnraz+b7XeWDzPf5l+ca66Z+TIzz/LarzdZm7UhkNCCFksCIUDQW1VlZkSc+RDZDZYfGiTAraqO21dh01T5yorOjPjFiXN+B79miqSWcW9A//jTtDsPpiBwh0x5MHjLiX8szJQ74ciTDPcexIZ+6gpm4tT/su8khS8gtJhtLbzxGlz4in4zxtMkU+JMJpPJZDI3RIVUrCgeS4sBytbD11+wdOJFQEEsiKWIlsobrEbUZnuNDRGFYgQEqqYEBoz2H0APPQR25urbRKZeD24p8a8SCbam1xS0Dz5Mc/BhXJyBqCCeXPF7C4wLdKaEehGVK/DCG5QCDk+0uetgJpPJZDI3QwBCSuIHfAroNzV8dAp38ROCs3grRCzWW6xPurbdUoruu1GXqxg8tAXKNqrHH6fZdy+9GkSnW/Bfy5a7VQwNBIPfvpv+kWPQ2w7qCGb6CzzuKEEZF5aiiXhbE0+9ga58SRXlr47SMplMJpPJXJ+1ZqUE8Gu9ZZslRi+/yGxoCAJBHEbdVVugzE1iCASIguy8B3PwEeLMAgCyhTTglhL/BsHGPlRgKOkdfph44Cgwl5p+Zb471ZiyFQzzFMMRo+FbjE//AVs7bFtt9tVlMplMJjMheBwtjAesUhEYw2ensGfOUIRIGSJVa5FowUYoGgDKtrfJ1/09JyrVeI7aAaWHw4eJ9x4HFlAX2UKB/60l/hWg83gtMZiFfZijj6DzM8w0zdTneN1RTJqDFAMFuKUh7ZvvwXgRn11UM5lMJpO5KSzJJltnDPNECoaE379M4+qkYTLfCRXwssLC2DLecTcceZRBfwcCiAlspSOULSX+ARok1coEaO0cHH+S0f69EELK/c98NwRQQxDHyAnVqGX+oy9ovzidin4zmUwmk8ncEKcGxHAFcNrS+/wM4eTrFKYmbiGBeieIdhWagubAUXj4cWAWGyHK1iqW3nLiX3HpWyt4Mfh7DiBHH4NydrMvbcIxoEIUIUjyKObiOUYfvIEJVwghoKrEGHNtRSaTyWQy1yMEGtMJtLAM//130J6lahuCzTV0t4JxFno7cY88y3D3/tT+SZJ50lZii4l/k0pPrQcbsQpjN0//2Z9xefs9Wyrf67ajgBgUh4sGaEGXkTPvUpz9HBFZF/+ZTCaTyWSug0RqWgahgcuX4E8vEGdH0DZYys2+uonGtAPa/QcYPPwUQUqwa0LYbqlGr1tK/AtgWxgTUFmhjBGjBnbeR3zsJ4hsqeG4vQQIYlAMvUZAPHVvSPH5GXjvzHq0P9dVZDKZTCZzfdR4DC2FKrx8AppLEJaJpcWMcuT/uyIKRu5iePw47NhDnzTW0BLZWsWJW+8uCtAUHsMqZShw2qcpt7Hzp/8Cv/s/IHqIqepb1vZG0qWp5KOB6xOlGx6BIGhpuOJqti9eZvzRJzTPLjE7vw1B6PoVAqlAeFpGVVVR+ebJhgEiolvj9pFvZHRdb7On/8lg5I1hZiug6znb3fqiyasxPRIGs0G/mbiFetFcXXZN9/c0biJ2KoJJG/0mgygFnliPia+eYFiN6Y9XGffmGAzL5FSTuQ4KyNVux6poN9oCUOxk209/SHAlzivetbj1p27rBIC3nvjvwTwzwAyUdAdoBdz3OKMnf4l7479RyDlWXJ+58V6oI822c9hQYcPW2hl+Kwpw0eOihwJE+9w1IjkTnP4T/Q+P8dXTv2R3bRHXgFsGnWUoFTM3/D+fDGQxsLwwpmbEDio8M4wQtilIchaeeiRErL0mefKbK1wAokGsEI0gEaQFCmCL5VxmtioxNXHCYAEX0kmpt4YRlnm9vrAb4rFi18WMuUasWHRKAimCVYPQomJosCjQ04DEMWrn1t+pqhO9AVhjbTu4Nl26dgDR03zwf9KOX2R+dYSWd6HeQm+4WZc5GXR9D1Z7FYMWJK6wOhjSimX7yiynf/U/cnRmPzYK0QrQxwtYYvf8bI0NwNYT/xvQ//mvuHTyFXbWXzMAgh1hC6EIBejWuCHuBO3Sl9iPTjHzyHOMy130YwlUBDFMUweAOOOYXxkk16gAtjRUQmq7WETsFhC3Q9vDSRfM/AZRwLhIoZEgLR5QazHWUqC4KZEumcxGCOCu3RVLhAiFGoKF8QbpB7OrnZkCkvKTrxW+U+NTbpBoAIsApVEigqgFLVAzHYL/P2PtW0UHZmmR4Wun6K/U4CCKwUbZKtr0uyOAgSooUcAapfIlmIpmdoEjTz0HpgCb1qS1jwiBrRSByuL/Wg48THXkKXjzArZdoXGrGAokOPIT991xMqQ9/TozT/0zSw/uou9BGTAkMBcjmOkY27PFkPKPv2XP6hV8MWZl0MOFgsorlq1xTOt27KWanU3qX76xC9B+d5bvsVYoZ7fBjj005Qxk4Z/ZMhiI4AygLfHCJ5ilryH26eFAlq//0aWLrFy+jHOOGCPmmrmziHF6nqLoQCKiEYPHWEcdwczMw7O/xFo78RuAa5O/vrkCjqWm+vJ9Fj78HIZj6spgo8F16aPfTK/MXENS8rg2EhzUhaUaQVvMUD7zLOzZB1IQxa7LfYMHPFn8b1G+7i2w46e/oD79GlU9BmmpC0Ov7m6IyZ5rNpEG+eID+PAkxb1HQAa0mDT5TZH43+U/w77yH/DGK7jeIq7v6LUWq6BbZLb2e+6lmpn5T+1cJQyIBhoL3swye/A4/Px/otw+h88zUWaLENWgCjYqrH7F1y/8X8SP32HeGwiOSpeu+1m5dJ7+4iLGmL99xqZkjklfQ9JZoLagNThh1fbZfuxHhOd+NfHC/1rSOY5CVERTHYPVRVbee4P5C+cgRBprKNXiFKJJToWZ/xyVVBtjNaIm4lEqHdD274L/8gtiMSAgxPUtV+yi/lvLiTAvudegAAcehEeeILx5BRtW8c4nA9j8sN0CkWI8JL7xKv0nfwi7DgFQrbUFnhJqt5Ntzz6HvvsSIp5+jFgxgBCuOWKcZgZffXn9R0WHGOvBGYLOsBJaZh99nNHuPazb8GYyU04r4A3MNA189A7m7RfY/uW72DaC9lHT3+DTNTaZv/+NK6G3cSrmGEMSwa0IhkAZx9QWLg0W2PH8j3Fu+mYKUdDYpTNFxZ37HD1zEporgMdGl3oUEbE6PWvmnUA05e/jhChKGQyt6zF47Gm47wiRYq0kmJRcRve/pu++2oit9W1vwDZgND9D/wc/Yunk28w3HmdqglGsSt4AfEeUAjEG//Fpyk9O0+65C8McZYTGuKlxLS51Fxz7IRfv/f/Y+dm72EZR6xA1uJotEVjw5fXVh5OCxkaQhn60jC9+yvjMSczDh4nMsZWOXDNblwgEAZoh/tQJZi58hR13CQjGETbI+Xdxg39rdUrWKA9ErGwD9RCFsjDM7DoG+3++2Rd321j7Va3NmEY6jeEDvH+G4vMz+GqI855BWzC0qYGmDeQs5I3Q9BpWiouRohWW5maZ//EPWap2MmAt1efaNLlUT8LfuPVNL1n8X4NrxywWlvL+A8zffwROX8HGltZFjDfIdFRT/d1RKlqJlKNl/GsvUD/3BDPMQQvjiqkR//0G4o4e7sn98OVJaBpwaZrRwqQFf8pxsbn+P/p9QE0lS0gdKVdW4P0P4exncM9hsvjPbAUET6ktXPyMlc/Psm1sIM6jxSxLxQzb/BfX/7C5vkVCsDoVBb+WBlFlaCoMUIWWxapg29OPwM5tm315dwRRUn2UCiuLS7gPPqZauszlsmYXAg1gDUFCOizP4v/6RJL4LyLzTYRYMH/4IOy/l2Uq5q4V/QpgrtmJbZ2BzeL/GkKh7GznWd59APfT56k+ehvTjqjaHmJSNCLz7bGtZdxToh1RvfIWs786z4UDd7G7gPm2hmJ2sy/xtqAOVuwM24//Vy7/+wm2uy8Yu5qirXChK/CbdnSDrZw9B7agVUspAqZheP4DBp+dhrsPECVgfGdj5+ZoSHOyJeLyapeZNBSQiCdSozgilRoqDA0RTr7Owl/eBa0ZDywutGwbXQG3wTO0QV6/7SKek87Q9bHRMViu8fNjggiwl5kf/BNLZcX8Zl/gbcIDvTZCMQRx+FhwuVxl92evwLuvoDGwo+6TqldhEEbpg1m1bYwURHpU/ixlMPjqAO75/42VuX3Ms4pwTVqdfOO/txD5NroGQ3IocQzo33cIHjgAHyyDaenMxjb7EicTYyjUUGgAXaV++SVmDhxibPr0wrTE/UE8RNuDPXcz+8ABeO8criX1OkC2RpevG6J4A6UF2obR1+cpP/kQ9/AKOtdLFmyaXMzX5H4+D8hMGgEwnSuLk+Qlotg0DainWvya5rOPcMtfY0xyGRF8J+43mCemQNzfCKcRqx5MQKIg0mP+8BGY3z5VUe8KOgVWQCwZGU/hF/Efv4Msnsda+etsgy3wu78dKEoUz2wreBzu0Yfh3nspKFE8U3MD3SJ5FK5BNBAtFN7g9zyAHn8atII4QmUrtGi6M3gLpTdIDGixwuIrv2dw5SI1hulJ+gECRAqGs/MUTzxJoE8RhCANPt8/oGkfFAy01kPZsiBjwjtvo2c/xWjEU+Btn0haF51GJPfYyEwYnkiLT4ItGIrO0LHGYIKi75+i/vwMhgbwCBEkpAjCFqcMYEOAKgm1MbOY539C3Z+lbDf76m4fEj21AFQQBHWGweef0px6DWNzI6/vSrQBTI0MLeNyO/GZ47BzgbK19DTHu9fIq+q1qNCkEzbq3g7ao8dh/yFap1PhorBZeEPKjpTYBgAAIABJREFUmIqRYEfsXDyL/9Nv6eGnblwFGNl5OPxQ8hPuukLnoM0a6RfubUSpsXFIcfZTwpnTyGiFiGVMN17q1/M3M5lJQondPZzyiU1c+zmwehk5c5J46Ysk9td92+PVN25lfIToqV0kqsPsuR8eOEojMxTTtF7EQA3rnd+Nv0L5wWnM2TMI9WZe2YSjXdv4Ab3Dj7N6+CFGvX5aeXyWvGvkkfgrqhSBMaQUn32H4Ogxmmpb7vB7K6xV0KsFIjauMHz5Baqvz0/XHVjCDOCoYM892EeO4YseJpicMAZgIqJQBoNV2xVBBEw7Znz6Nbj4GTb4zusjAlMU5stsKQRNz3w3v8WYgkqFH8G5z4gfnKTXriarY7EY7Vo9mbzTXevSFA3UUtA7/gxhbi8FjmCn6ATVxpT10+U4zlz6nPbNl+n5JmeI3gKiARFFt+3BPfQ0dvf9tNj0AE5Rf4hbZZqk162jBRAJJtKPoL05Rk8ex+w6iNGcefxdKULoIlp9JFaobemf+wxOvg5mg26WE4a6EWWAWaCe34k+coTh/AJOS2zMj1qwikGpWkMZLKhDjQEL7afvwKfvYX3bldWHLg3CbMlirMxkY7mmVsWCt4oLQ+zwCnz8HvHsJ1TGJ6MRY0CLtAHIqi/11TElJgoyvwMePUbsb6fnobGrm311tw0vhoGaJMLsMvLxu4SPPiAdBV3f1SmzMSamzfbSwQNw6HEqdlCS0k2xOa1ujaxIrkXBorSMEB+QaBkePUT/nqMY6W321U0sNnrUBDAFJvYZlZaiGVG/8ica//VmX95tY0gNbcTWUNOnvu9eevvvQ6JDpi2/6TsQusg/XsA7UEtjhcZa+sMr+Lf/DKOVLvjZtVsXtoRFama6cEgS/wKNQJCQOtVeucTl997BNqsgnojiMelUVJMt8JbHGCKWorXM3H8/4e49qHEwBs8GVsITxhADLV1Ds8u0r71IbzTES7Fhr4fMDYhQuB7xoUNwz/3YxlABNR6VfJq8Rp5prkEdCBZHCQZKDNvMXlaf+QXM7mNFWy7NjEBq8BDEdVHJfFS7MQ6JBqRFYqSIBa0d0n71Fr1Tf2SZFhoILSQzsxZCy6SVPAkL4CKYlhKD2XEUPfgksUiJ60EcjXWoGIgpFzjYQNgiR/2F76JZtgXjEXU4X2I10ovgTpyA8ydZkSFl6MNogSAjQs5/zUwYTWekp9RYPIPaEYzA+feZO30CEQV1SCywESxtSjnNBYlEaQi2oan2wtFnCdu346QBB8Kuzb6820YfD+IZSkPx3hcUJz4kuhGhGON8jlBvzNoamtLAGlNSSwGaCufD3YfY/uBzjAfbqStFWKVPS8tG3bO3Fln8X0O6jQyWAoxJtp+No//Qo7D/frSawamkDnzXJnRmNkaky7WLQKQIQq0BUy/h3/gzZT2EoDRr5+QBkDhxo+sg3Re2QTBosZ1q/2HMnntABNN9/7jWVxy6XN+tgUSb0hpMTOOkgo2S7PuiQr3K0qu/ZZ7V9VQfA2jO/c9MGMlyf63WJz3jdrjClbdewY0udW+yCA6DIBq7GFI+5hI8JnrKuw/AAw+jzGBUUxPWzb6420jhDW2R6kCWfvcCjJdQ63ExpoZfmY1Z02Ci63WFSoDeAA48AvseIhhDSwDatORs4uV+39g6yuNbsp56KWDKAn70DG1/B9tW+4AlFHRijjxf3wAlpW7omuhVpTQWM2rxH31O9cF71P2akYHemtmFMZN58CkKYlAELwL7DxP3HUlCILQU2hJMwNuAGpAg2JzXAhLwtmHltdeZv3SZoYnQA9EibcYzmQnC4lPReqxQDJerCJ9/Bm+/CdVosy/ve40ExarFHD4Ed+9HmQVfrDdMmxbUVIxVKb6+yPDNF8ENsTFiowObaww3QiUSLKmZBlCEBqdjsIZ2bgf2yeehmsVEGHA1nS6L/6tk8X8NfyPBRMB1riRPPYncfRhWSzAlraWL1piuA2FmI1QgdvnbUZUSQxmgOH8J3nwVWKIlpA28Jq8MO2ET/VqO71rvvAAwtwM9+DRxbgcQkBBAGhrnaa2mo8tcDAwSaYuaPcuL8K//hmGZFQG8w0xTL4jMlsAS8SiEFMRtGcJrr7Bw8UtqOz0mB3eGEhb2woOHWJ3dDdhUrWkCTFEKoCpUEln59f/D3uF5mnI1VaoGS2PzmrARURRvIl5S+qyEGmthWRzmwFE49Dih6uMA4+kst/OYXksejW+wPiAiqJG0s7SG5eoutv/gH9DBHGoEQfM28ltwbVd67XbrRgU7WoEzbyFffMiAOo2pdGcqEze+bZfiZDuzOsAV2MOP0ey9h9Y4CIGyc6vzhnxqtI7BCrhmCV7+Pb3lsyjjziM9D1JmshAFTVn8FB62L37O4mu/AxvQnNKxISoO9h2GBw7SUuHWuvqaqWoJCQLlhS9oX3sR4ioqEbTs1r3JCnz93ZGIihLM2iIaaULLcMc+7HP/Qt3fSTB0fSGEFJCzWfBeQx6La7h2MGL3Ct1LmIPjz3HxwL00haVq194FNs/lGyKaxujautb19Fbj0Qsf4E6+w9y47t5osJgJdL1b62dgsICjxVuFvfsJ9x1kNLsdZBa8SQta11MibwBI+c9tgCrQLn4OL7/MjK4yNuFqF5xMZlKIYHDUBRCXkN/9GrN0Fgql8Nk5biPqmTmaw4/Bjr1UaJory0iDZUanp2DT6BLxlT+ycOkc2CYJf6nSJidm8b8RVj1OfddEz0GMtP0B4b4jcORZlLW0YZ/sPa1FcTmB9Bqy+L8B2r1mPDAzz/b/+hNq47r+Q52azc/pxigQr0b/11KAUnGsp2kvYE6fgS+/pl2zuo7QTNjApq6eXXGfBgptUQmEXsXso8epZ3eA9qB1FCF9T99FtDKOIljGrkaqhuaPL2OWrtC4Nm+OMpOHJBefMRFWzsJvf0tphyw7sGF6BOydwO3cgxx9nEZK+k2EGBgSaDEw3uyru300oy9p/vwi4lfxlUAc0JheWg9CjnhsiCouBmTNHtda6rLP3ud/RhjspoDUJVnGIC2+q9CUHKhdJ8uO67A2MGsaVRoYuh7u8R/g9h3sBElL1BTjzdwcRtMDePUUoKDyFeHT0/DlCQJDJACtSWkfE4Ss3QfrTjWCpUDFwuGHGdx1X/rihUeio/BrcYg80SeLNoO3JUFaii//AidOUBFpHKz5/iueBn91Y5gn88z3ES9o9Di+pjnxMu6rrykbR5RivUhxK6OmO1NXqB3UNrkdRVNh9j9Isf8wZk0Im4hZm10nrA62hi442DKmIUYPreJRzMmXMec/BAdtoGsEqahoDnjciFhB6BHtiGAbCHPYex/HPvI40azdJobUucmt/y1zlTwe1yDfeNlrXhglYlgt9zH4wa9oej0wQkCJ+UndmPUE+C4FaO0UQEnFrnVFu/I5i5++hF26sK6FqwmzeLQUSPdIiViM9DGUOCyjwV3MHH2C2LPUZVr0yuCwGpPw3eqYiHdClAqnFqkvE/78ItXKEqP1EyBdT8eLaz/LQ5f5PqKA9cw2Z1l6+Q+pKFFn6KlFzWTNa3eGq/PeuNDUH2Xk0fldmGNPQH8BZ6rOcKOgh6OCiUv6D9DNUR5PxCPQBuLyRdwrL2LHl1Cn9LSHVU+hTWeHPGG7nL832gOtiKYGaVFZYNvP/xcW+wuYsBYRKoA+QoGjkyBZqq2Txf/NUgQGCr3Qg0efpH3wEdCKIg4RmR4Hgr87EqFscUTCyQ8pPjtLbWFUgTTTk6FXMANPPs3yrp1UQwWp8bZGNEUntjxdKphVug3RmNFXfyG8f4JZRjQ4AgUWR4WjwBCIqM3qP/P9oy1SO4v2xGnK81+AW8UXLaIGifmkWEIBscI7xWlNVY/BOMZ79sNDj2725d02Skg557GgoseqsWi1ijn9Fs25cwCoai4C/7ZIQG1LvzVYX1EfOwqHHmQmlkxgseCmkMX/TTK2AdMEbCwI2/fSf/4fGdo5cAEx09Ny/O+NWmgKj8QxC1+chxNv0tbnWQWYotxY5y3D3fswjz4BMgPiwVx1N8ok96f1nEyt0cWzjE++hF25vF58n2zd0hG5Eqlz6D/zPaQxYEar1C+9zvzSBXAr1EWd0h1D3uzjS6CgdjH5s7ctDOZwx5/F77hns6/utuEYEUQhOgqfSgV9vII78SJy6QLG5Ln/OyGe1gYkOlTn6f3ynxnPL+Daguy8fnPkO+8mUWSt3SirxXb08JPo/sMp5VjzMe6tEE3EqmDGLf7t1+kvnsNSg0zRIhlhiRnmfvTPYOdBHMRkAu7zWeR6h0a7ZuspkWK8iHz0Dnz0Pi62RKC51oILaHPSf+Z7iKPGv3+S/id/gXaMOo8QszPctYghCJTBgFqG23dQHX+WReY2+8puK+vOdhF6BMaffwAfn6BoU7M3EUGyYv12aMRoJPgCOXyMcPQxVplP/5ZV7U2Rh+kmMTiwaQNQAHHn3fSffZ7lco6JS0T8nmFil/riPKPz72NPn2Bh9Qq+2uwru33EAnpY2HuQlcefYWxmca2gJiR/5y1PRFS7iL4DY6iMYi6chXdO4FYXUb9Ka+L6Jjz5POSxy3z/qOpFVt/4Pe7yl2CFRiqqtkA0okUu8Md4gm1x0SBtn1jOUR97BHbfQzlFwRClwGKh6+U4O/wa8847cO4jkBw0vBWcOlZ6M/APP2NU7aaHgAUVv9mXNhFk8X+TWAzBAK6mHxQpB4QjR7H3PAhk3+bviqhQBgvqCD2PK2tW//tvkMUVrkzPGkArDQttAOYofvErVnUefEUkEE0WsBAxREQNEQvWEGOkHNe0H34I5z6lsg1RPNrNWqK5bUvme8rHp+h9/h74FVpXEOhjmxJQapfFCa4l2JrKW2hn+Lq3nfmf/JCm6DEzRVm0DQ5Rg5dI40aYs59SnnofpM6uT7eCsVBbBgceYnz0QWAm2bE7YMKMQjaLvHLeJBbwxK75XkREKO7ax8yxZ2jtAESJ4lnzHvSma1KVC3lugHZuCBZvHOLHuLOfwfun1ko6UQ0oLZFAYG2E13xfJoPU0yuCOMxDj1Ld91DKX5dc7LWG6NUJyQfBiMMEJXx1lvjJ+xg/RtHUXbtrjmamKEqYmTAiBCINNWiLKmmFaFYYnX6L8OXHYCPBGozaq21h8i1LMBAJWK8QS/r7jyAHD+NFmKZYiAEIyaQ4sIJ+fBrz0UdEVXw2nd8QFVCzZguY7E/XfqYaoJqheOJZxtv3plUgpOcxy9qbI4/STRJpsUBLRVtYbIxgZqgffp7h/ocIArUZQWggWJbLgtYY8FM0k90JNIK0BJmhGs3SG3pKznPh9X9nx+JXeBVQj1ATCXg6IT1hJ+eWEooAZoiTXbif/BPL8wYToApTlN/0XdEqdflVj40RJ2Vy9raR3spn6Du/p774JX0shAhuRA2diVsmswnU0BIYcQWoiQ34KPDpSap332DQ1CDQa6HnaygaQBjU0+Ni9l3xWkJ0QEMsYeZHv+IK+1LKn06Pe15Rr4JAjVJdPIecehG7dIEoA5AS6frefPOVS5mgsRAkpiZLCoGSxjqC8Xhp0cOH4KEfUeleHA1Ul7AEIK+nN0MW/zdJF2gEupizODAV1d77mDt4hOD69EPV+ZW3zLSBMgYosvi/MQaViLqYCirUM/rsDLz7JipKFAGtsGopWeu7sLlX/G1Jy70BqWgs9A4+Agt7wSgiU3TOfSeQluVPP0A+/hjjW3xhO+s8kw94M5tHkbIM+lRAn9qBaa8QzrzN+NwXm31132sMnsormJLRvffAo4epsFRYMFO0oTcltYV+GOM+/ITVjz8F50FaTMzaYCNcpLPCNl2jt4YytjgP7WA7cuwJ2LE7ub+td2aKkxYX3DQmTEJtHkLXbLD7u8egdgD9XZgjx5Ed90CsaJ3QukjZtKCeJov/G2BADVE8jQ1QCEJk++oVwh/+DfFLCKlwSoJNpjBdN1idoNtXNB1HBulal83vZu6xH9GImapI1x3BeHrDi8S334ArF1Lf5+AgQCTnT2c2h+CS3CjjLKqWYEEvfYqefp3e6uXNvrzvNa6r72lCxeCHP0a3b6OnBa6B6KbI5U0KWgLl8gV47Q2q5SVCLwK+WxMy18MGsCoEcQQTERkj2oAWmHuPoEceh0Fy+HHRgRaEbAFx00yOetp05NpGtYiBYA2h6MODj+AOPUFbztMYh4im1ASN+DzCN0ZITTuMxxsLpmTWD7Efn2L0/puYtiHqWq6shy73f6LQAMaupy1pfwEe/iH1tp35KbwRGuj5Gv/OW5jP36dgnI7FvTJJdR+Z6aKlRdRC61Cg9MvIx++gH72LCflMaiNEIwiMF+5BHn2KJZnFRpPSO6ZI+wcBwwqcPYM/9SYuNHjz15kEmeugId0P0qXJaY3GSOwtUBx+mnj/w/iyIO0VBaS8ph4wcyOy7PiWGCKOawbOAHM7kSd/zNLuu0FKKt/93Jg0oWVuiFWP0UikQKlSo47RRVb/8O8wWiEEqA1gApP7cKd7oY9Si4G9j9J/+HlG+THcGCkhGPqrF2ne/CPV4nmiBnB2qmwBMxNINN2xcKC6+Bf8G69RDFeyk8uNiMqoqJh56oew4wCWQZoei+kSxY2FwcoSzUu/xo3Pg7TY6BAKcmf3GyBd8a5ajDpAGNmC4b6D2EeeIxTbU7JPl5ahWEBwE6sP/r5k1XHTJMmfMssilojr7Akb24eHHqU9eBCjPaRxUBi8cVR+ivIX7wQiqAGrgdKDCRVBeyAFmDHbPngL/vIhRiK1KIEWZBKb5QieNN0X+jXYSLN9D+7QM7TVdDW1ud1o6IGdwZqa9o0/wblPaKoxIwumzlNYZnNwSDqBKrro7rmP0ROnQA1q87y/IRFWZuaxx58Ct5fZYAnS4k2LnSLxFgC+PMvo7VeJdhFsxPkCtCC3or0BEjrHxBJpDXjwM/PUh47BfQ932yeP0OKJNBhs6siUuQnyyvmtWBuuQPKSbZEuBWU02Mbe556n52ahMYwseCPp3C9zXdYTNzrnThtLvCmprUENzFy5wOqfX8GqxxPwa2+cOPGfchEtLcQhBmVUAfseYv7+g+s2D2v/SaxZP2xtxBTUUqJhxOzSBdoXfotPBosQLdeYwWUyfzecprm9lkDTXGL11Rfpj2uiWsYmL61Al9KprOfMCqR5zbDz4CH07n0pk7OhE3AemaCkzqvzTlqXVAOqSkSJhGRQ/eoblFcu4F2bUpq8AXV5vroRJhJMF/3vGoG6hV3sfOoHaNlHAhBboMGvF/qavBDcJHmG+tZ0Z5NU3augH2sUT330B1w68kOoSvp+CWcCwebuvxshCjYKSOqCKLJMLyxT+QixT4gtM++/inz2OypaqmYedIaxWWKi0n+MoQSEAjX34hDmYqS5/wjDwz9GrSVYpTaKxhkIfRBPcMubfeWbjy5TmkWEAbR9xideYvbCCQasQpG24n/V9SHvBjJ/D7wn2MglAuXpL5h55XXGg69oi1X6Tb750BSDbWxk1HU5RkvQluXBbszRnyBzA76eran7gSpaBtqnYRKtUANQI1FRL2gUWkZsP/vfuPDnf6Xv5ymX5rAaGc7UtDZOVXrTnaAxFVFgpb8IbhXiHEsPH6c9eCwJfwuYPjBDD8eAbm8pOfZ/M2TxfxuIWKxaKqnY9ePnuTDbA+lhxz551Ga+M8Yq/vJ5Vk+8wyCOCN1eykzkAvG3OOcYHDyM7n0A2xp6qjTFKNU2qCPQ3+xL3HzEJdEAUNZovciV//gtZd0wcldzhNcns7yqZv4exJKxCLv8CqOX/4DWl6i8IkHyiV1HGgWD0YCLPjVDM1Dtvw/2H4DeHAVVms0nfsgcUVwy+VClCqAvvYCsLpL8KMO6AUgRmYLve2exoUIlMN+ugId6173sfeqfIAq5lPLWyUN4G4jGUYQCvIWjh6gfO47XWaQVRLMV4a2gGgg6pPfuaewXnzDurB2LKRH/ABw4hD/wOPgB+IamGBJsDVqgmhuWBLEQ0zj4sqYvQ3jhVfjiHGtb67+ZyPIGIHPHSdnG5RefMn7rJbQaIz5go6W2eWlFPFFAEYoYMTpCpaXu9XFHjsHe/bQyk6rpQpeuMdHPrVBLylCxvoWvLrD451fZFsZgaig83oDVrpY1i/8NsbFAJeLaFTAFl594Hu59EqcOddke+1bJM9RtQAGjgCkYDbZx1z/8iqXeLpASkyNA3xlBMAjKGPvZp+g7byFcgRiR6NDJXikAMMYwntsNR56EbXcDgqHB29TLwMZ8hJnSBywINNZj2xUWFi/T/unX9HQRQUHTS/Xq86aTf3tkvs8YmAtD6t/8vyysfEk0NajFakGUvLRCKthUMWl9jIEgBr97P3LoEdptu/BicGt5e5IqwCZr5CKR2E02ptvsAO2QlVdfYObSJUq/Cq5FbZqQbBTIDb5uiIb1WwI/t4O5n/8PjMpZxBa5lddtYLKes+8pDlKdiRM8sxQPPE5x5Bna/txfiZHMdyAWaQM1vkh87y2KLz4FbSBO7sm6iGCMwXRFgYE+xeHHiffvB9tnpi0IAt54XMiLBJJ6OygGGwtMFHANV955meqTd8FH9Brhv5bun0cuc2dpsX/5iNGfX0SkQaQAShDJQR+A7pQ24kANaKApK3jgGHLfEQIlBeAM4BRsRDtHvUlC12YaTdcucQRff0775ssUvsEYAREiDhcMtqthnbgv+ndGTMDWBu92EZ76EcV9BxELiCDZJvWWyeL/NiDJxoURkYIK/AJzP/0FF/ozE9WF9vuHQKgwCr4Y4c+cpvjwA9DRZl/YbaVQCAu7WXnyEcJgJzLqEcRQFy2EfLxpYwBTE8RRNX3QHqNyjFv9HF74fRL+3SZpbQOQhX/mjiOXaf/jX1lY/hpswIYeSB81ERdzZBJtEVVUixQZV4PO7cYefALm9iTh36X6eAnrKXx2wh7eAN3mJun5UseEt19i+5cfdn0gCgIFNlpcsIhCsAE1eYO4EepGuNjjwsyDVL/4nxEsPU+3aZqitN9NIivT24GCxzNGqQBCD+5/kIWjR0HzDvWWCCWiMCxbqpUr8M77rK5eQs301FKUHlpXUDz1GLKwB0Y9VARvPWgW/0gD0hARaPpgB1zsRUx7BU68ztcXLyIiiCaNsaYd8tKauZNcufAh7ck3IDTUViBWqCmIErE6YQr2juCvNmrCgS2odt5F/9BxglRY9RDT81oTaSd0yx7+Ska1jJe+4uKHb8Hyl3jjqK1DKSE6CAZQvI0T+m3/frQ6BHXseOLnXNl3mEIDxJqYEq03+/ImnjyCtwMDLjh2+IIWuDjXMN4Bg+d+wcXBQ+ALvPE0RZtu3FgCSnDDzb7y7zkK5XmIfQbjHaBD6g9/w8wHb9NEl4qpQ3pbw4hVVhjTptVkkpSfJq/i4fYjLD/6E5iZYX5lSM8r4152+0FLJJaUWkO5Chq4e1gxXxtYPMfuX//vXHEX8WqwtaGmJeBx07M/zGwWDQQ8Q1ZRGmgi+MiIIQv/9n9TDj+GGcF4i5qaaFe7D+allbgPGy2jwWeoWwJzD6vHf8bort2IGhADyeGZAQUDOnODCRo6RfGsgDdohH5cYfDmy9z16Rli6bF4quBx2qT0xe5Yo/JmAhtV3n5qZ5ITUmwhJHe72lY0LlBGw+WF7VQ//iWVX0h24EWLRCFnU986E/SYfX9RiekoKq4dRlkCFdzzADuOHkut3kUwGlPXd4moCJqLwjYmtVMmmLX8/khYuczqu29RLX2V7L66IbS4rgdzvPrZScEITgsqemx79hmGCwNQoWpzk6+EdGkDV3/i1CAYaIfEj9+k+uoLIIIBmwygJ+seyHw/EfAoBofEArUGTIt8+gHjd9/FosQQcZJOeI125g/55gOJeKPM1SDB4vfsYtvx4zjpYbg6eafeX6Z7TR4FRVqnRGHpMqPT7+IvXUQLSU18/6bnyNp8Nonf9vaynuIlBozHEHAxUAbwbobtTz4Lu+8CJ/jUCAiRJKkyt0ZWn7eBQERN2gBIgB4W6MH8btzxpxnPztICJkbQdBQahZwSdBN4U6Q5siv6rELL4rtvwpfv06LUXRNlS0GFpWQ9/XJiUGsp1NBXB/vvpX7sGEofaii03ezL+16jNtJ8/THlCy/j4pC2gEpNqrWZotSwzCZhRoS1Wq4g1BaIVzAv/x67mhrwqSoxu7f8LdLSOE81KsHMs3L8Ydh9N4UvpyblRRR6WtJYENtQf/AO9tNPcKK0JmbDjxvgIqTjHwMmIDLChhq84fLcPfD0T2FmlgYIJEclIJ+a3Aay+L8NpO6iKepIhDKA0EP7C/DAQXqPPMbYFikipLGL/JNUamZDgjiS/VsqoLNA//J5eOU32LDaHbumYSU40G90e50AgqSotg2GYVEx+1/+geH8XogOG7KA3YhAC6OvKN59G3/uQ4LQmYwokBvsZW4Rm3wobWcfJRpoPv+Q8tSfMcMVILl3WZsDOX+DtCkI4yvizF0MfvJfiMUAdLKCMxtjkGABj1k6Tzz9NuXFLyDWk7UIbRYxgjq82BTgi8OUBisVs0/9DPY9SFu4LrvX0Xkr5oO120BWn7eBNIgKJoKFUqCiE3V33QPHnoLtdwNdrr8oUUh5j5kNECQW2AiiEYwFLDO+Jpx4EXfuY3p+CWVN71mI5qr12oQga38YUGYoDjxK/cAxKAcQsmvIxphUOPiXM8gHb1K1V0DBRSHmosvMLRKwVLj1BlTVaJH27dfh/EfYbp4RkRzh/c+QiPMCdhZ/5DHK/UdRZsBOW9wrUPgR8tFpeO9tiMtglSpUiGSVujGKYokUEBW0JVjLaNc+ykd/CNvuIpD0lJCex5QFkOf2W2WqHsHNomtBhEpMLjSSjqUsEIoeHHyCav8jNNIHTKoRyCagN0URDK47UlcpCFJSiGCvnGfxhd9DvQykzolXB3SyYv9m7Q8TKXC0uo0dP/8lFwcDyH7GG2KxoAWMLmCqN4ilAAAgAElEQVROvoqcPwPWYyOoyWOXuTXG9LG+ADyxGMFnH9F/+zSxvUI0kzPHbBbV2HFxMEf5T/8IzGIjBBOJTMeJpkrEG4+sXIZ3TlGd/QTcCF+C1L2c138jjKc1XVS/a2i5XPWQx57B3HuQ1laU0dMn4EiqKZ0C5GfvVsn683YQDajQojQoKi3gkRgJ4mj23MfgwCMUgwXApS6A0rmgZa6PgkTpIgIRj9CKQ2NqGLP8xqvw1ecI45TgYegagEwWQiTQUhMoIxRxAA8fw91/P6k4JHM9NKYmaTiPfPgO9Zm3aXQZvOI1d0fO3BoeUvaYtKzKFfz772A+/py2VNq8em5MTH1a7OEHCYfvh7YCDy0tOkUdWsfGE86foz35DqYe0RSeYWGg6W32pX3vURuIYhB1nY5ysGs37tHjxIVdAJhYY/wYm5KrSYl4+aTtVsnT1+3AAGKwWBwpNSVVrwNE6qIHjz0P+x8HSjxLNLYh+jz8N8S03Tg6bBRcjAgRRLj3/HsM3/gNZRwz7wFvCMYQCFddfyYAxWCwVICayGpPiZVj4Zl/ZLnYAzGAGiIWb5Vg285dqtzsS990DJEqDlmsDLLiqV5+k+LKGRZ7q1Sj3Agmc2v0CGBgLAVzn57FvfkyNGcpvaVU2znV/O1rq7BaQjAmRW1j8lsLpgt4+xVWZiq2/eP/yqrZC64FW2MokDVbz4kgdr181qqIamAE6jHRUg7HtKdfIV56G0yD8QvYUMHga6apuuFOIH4bmJqVmfPACNpdhEPP4w8eIVrFioIp0ws6dZXWy8ytkdXnbSHlnNjuJes2ZmvVABZ234M8+iR+2wI9NfS8T1aVmRsQudYMzqkiCIgDv8q5115CvvoSCSnPyq//DiaHFAMzXZQ/4lG8FHDwGOG+h5KFlCqiEdVwzUnyJH3LO4egRGvBRML7p5CPTiNxJQ9P5pap2pa2B9qM4OQp2r+8R3ANEiyy1k/keq8tgUkJ/OsW1hGDIgQwlnD//ZgHjxPpo6JgWuwkyo6/ah5o1n8WgPL8l1x66yWquAJWkFjhokGLUZ6DbkQsidLiWAUM7NrP3NGnkW07sGhayU2RXp3kv6qxMrdCHsE7jEEo1BBcAU8+wuK+ezB+jmIpEKrpyHvcLLQM7FsZUf/2d2BXWJauNYB2Pu+TRgSJhgqDNwNYuIttzzxH7QowEdEmdQ5VQ5DUKTJjIA4YNIJ3Y4JZZvn3LzB/aYXF3B8tc6v4HlcI9L76hPFrf0JYwhhSnUl+/Bi0Jol+4wk2gLRI9BAjS8U2tv3wX1BTkcySLCmIEydqdlaSyO/O9IECpSKVnY7gxKuYLz+DUIMTggmIgnTuc5kNkBo1LfOrBZgZVo4cpDx8FEN/wu6SySOP7h3GqlAGaEzB8l27KZ/9CZg9EPt4W2/25U00q1VB79IV4mt/gisf0dCmQIs3k5krL0A0OAVwhLmdyKNPEHbfS2uSdaXRQDAmrSmSN49gIfapWkOwDSrLuFOn4NQpRgRU9a9emcy3wkPLCvLea/Q+OklgmRgjUWy2bCBNQUahcUqwPqVkairJbO5/HA4/TtOb6d7tgHLiUqPWjKYNHqsQFJrO19s1l/F//Ff2tGMwNhWiSjIcIOS0wxtiRulIZdxHd95P+6PnYX4XBIvmYuk7Sp697jAiYE2Kd9TMM/f4T/B7DkM1i425gdOtEKUHfkR/5RyXX/0Ds2E52XJPmMhbn+KMJns8BSfQmoq4Zx+Dx3/EajUAYlf8LCnPVvL9o9L1ygsGUVBa+nFI/ftfs6s5m8V/5tawsOvKWZb/9BsIizgjWClRI2utfLc2Mf2h4jEaQS2qBatFn7lnfgYLd4G9Ng3TkuT05NRkQVfWRwDxtJ0HhauXuPzif+Au/QUbWsCBMdioWDxIOunIXB+1HmkV7Byj+w5TPvIUrf3/2XvXLzuKM93z90ZEZu5LVUlCSAKEsLgJgYQksLgbY0wft92Xs3pm1lmz5tv8Y2fWmjXzZeb0rNPu9vF0nzYGDOYuECAhJBsQF4HQXVW1L5kZEe/5ELlL2G6qaLCo2qX8sUroUlorlTsz4o2I532eHlZca5N6lWmL/+8CSY4uBQV0d+B++BcsbNxIq/r5dmRVNxkAl1/A24coPv0co5Fg41TZ8E1ewlTIBtRAps3vdzfBXQebSTRPOlrJSbNuW/xDJJjUNZH7HCc5iGd48l3cq8//wXe2k0nLvxs7T/7yq7gPj0MRMDGDaJN+vQUkEppFkPMKlaV2M/jtt1Dsvhff6QOBTJugtMbgX6ao+DfQnMZGQooVJAsRLn7B4Jl/AhmBMSgd0LyRZpJMP9ohZ1kqCz3tUG3ahn3oEUy+FaIjZbRPzzMyjbTF/1WnOQYkMKsGtAuPPsr5m7YgdWtF+G0oyg51zxDckE2nTsObR6EuGdu6MQWbDkTTV0WkbK5cIuQKYNDtd7Pxtt1NyJlDsU3Tb5tgiyjBjtLPfUH0GXUe6ZkB/OLnDIfDpRCmdue/5d/LPKfg6V/TjSULWURiATEjtj7NCRsJJqZDEO8gFpS2x+w99xE2byVmFqGiK4215xQWw9KkO0PA46kBFwO89irbTp2kyjyltdRSINE2Dg6KN215tRKlCNQ55c4dFAf2k/sCF9MJ7jQtEKeR9um8yqRmIZMsQBWqAuq5DjsffYo6vxmiQ4kEGxrv2sYhyNTNqNPyVRj1VGrwroDFi3DsDTj9MQHbqP89qAc8gUiYDCZr8bYKCPaKi4EAREQtceN1sGs/zOwADMEOU/BZmF3FC1472Nj8IBGnhqCWnBo+P4l96VdE5imNImKaZ8BfW4YsLcsT08IbPPiAB8YohJr8N/8N/fz3gCLkadFtFLNOQqq+LcEaCm/JvYEsgCvJNt+AuesB6G9YGtP+0KBsysqOSZNCFNKZaw0Xv6B+4TlynQeS5NBMRhSZ/Pva4hWBYOCKBZYhiGtkq4FuXRF6G5h99KfUxWasCYgEaHtqrjrt3b3KpGYhAzH5Hw8k4vFw98OMbnsQNCMIeKmJokvHosGunxCUq4ZZJFOHp5/yAD59G46+iqvLKxEyqqApEVBhbVZ8zcyY4yjIkqNEkx0BBu+EsPsA7NiLisXKAKsBwsbVu+Y1gkTBBZuOSozHIHSiTetmF+g881+wl06iAn7y2cd2Wm75EgqexrczWCqaAu/zT+j84p+I+YhgLL0qAyJqqrTWXOXLXgsoQJ1DtHgXKDuRzh2342/eh5o0mmUUCNmXm5tIzb/TgZLcjNACoaDPEP/ac2Sff0TIIa8z8hBxMT05SFotuBjX5nzznZOao9GIiiEsFfaRLArDe+6F3Y8S6IOpwI6b4r/18r+atMX/d0CT9YWNyetAKWBmI3M/+BFl5ghGkBBwTXYdQhsL/nVobpFo8sePo0uMTh6he+YkjojHgWSgDqcOB4TGi3qasNFhZzeju3ehvc30xxmVjWDGq31pa55Lw4/RF1+hX5cMDVhNhUfSk07Xc9Dy50eJqPUpcipk4FKYU6+ep3zxaeLi4lKvSNsz8qc4rQl5BQKuLDBzN8Gu3Zj+3Gpf2p+NOFkYGkeJo3f2FMPDv0LdEFPPrPblrXnSPqYBY4hSk2mJCzV4wxezNzD7g6egN0sNBFJQnNAWp1eb9v5edZoiQ4AAeRSUHLqzcNddFLt2MRCXNJMxgASCkGKuW5bHgIkmyT5iwDBmdPI95P3DdEJFgHQvJ5ngmmQf9RQVfSpg1BJsj3j/fuSGneC76SjVtcX/ShguIi++AGc+Sp96o6wTQrtz2wJARYlVhQhjmywd+eR3+Fd/RYxxqWek5d/CM84aiWqYIfvevbB7D3XWwaybDawk+vfNz3j9t8x+coTYLZGyt7qXttZZ6peweCOoqRDGoBFiAQeegNv3UllJ8zUpzAt8Oz5fZdri/ztAJj9IcnFxOMZ08Ju3wSNPMOjOIrbTOATEZtO//WhWpOmJsNGko1apyea/gKNvwunPcRopJyevkwUA03USK0gK0XRd6m23IXfth85mogqYVne8Eq4ewumPGb36HH1/Ofm2K8RYtwVdy5VtgEh6z4CZ8SLVS8/Ru/ABpmnaNG3z5lcS1SczgrmtsGs/9XU3ppiVddKzpiiRSIxgL5yGt15DxueptSLZzbUsi0YURxDTLLLHIELd3cTmH/wtzF5PLUkIljoDJnKf6dmkm0baEe0qs5QKKM1PTBouHBBMDnfsZ27X91Oiq0kuLlF0vYybV5lkHyeNlIMYKXzJwpG34aOT2NFlMCV1OkkEBYsiU1T+RyJRfDMczsEjj7Fw/RaK2KXWdnBciWJkwC8S3nmF/KPfgfEEAaPt0NeShgVLAQhqIzklvH+c8q03EDPfSn5WoM5zikqIkjPYcTPsO0gpsziVdTOHiRp8FPI4JL7yDHzyMViDiRZsuwGzPAomEERAMyQoGMPlvIM58DBmx93U0iHTVBelFIjJMqDlatLOgFcbNaAGL5FKPCrJgcZpJCMyuO4WNhx4hNJ0QS1BktTDtnYkKyM+uSxoUnCrtTgjdIZDqsNvwvx5hJJF6kkuO1aT/8T0EPHUSISOGuKNNyH37sFVFlybILkSTjczdCW9zz+AQy8S4kUC2m4qtQApfNFFBwZKRtj6PPGFF5i5cJFBpzVdWIl5lNwXRHHI/Xspt23FkJHp+rFqNDiEAi5/QHH0JRhcpso2YGIBbrTal7f2sZEgDoku1UNiuDg7i/3hX1DmPQyRPASyWifq6EZitT6en7VKW/x/h8QlzxmFGDExUuWzcPMdzN1xACQnSA1ao8n7sWVF0gChxhKNhQgZyqVjh+DUhxg8ZvKYN/+bNg+BpccgwmXpMnPwEWTDNkytqNEUDrYUKJNCA1Ronx+AKNQdwYwGxGPvsHDqBEIJmiP65SfhSgNwu+6+dlBVCOBF8JRUx48RPjyOhAFBp22kuIpMxpNJKEnzpU4gWtyWnfTu2ceATmNwMW2FW2xc4SbvfmP92vyGaGDhd4fh4+OgSik90Bw15Wpe9HQgoBOjjWCImrP1/ofgxp0Yadp7Yw2q2Em4Zdvye9Vp7+7Vphk0HYZOY3yGZGAd0Th6Ghhvvw32/ghmt6KMsVoSxNFWbyugSW8pVNgYscFixICp2Dp/gtEb/0qxULFxnIJXKlunoniKmqktjiJ0wSxS2cWUIrn9QeL+h7FeCLaksoZKivTvaqrWyk7Pv/FqEjqLdEJ658znH9A7/CzF8FO8mCv1vpIa0Jrif9rKlpZvQyTaIYtEsvlF8hdeITvzNhf6i8wtzP5xrfsHX9fMClHTjq1i8Aa8iXgTCcbT5yx1bxb2/AS2HmjMisG7giBTtHiaOL0yyU2vQUPap1Pgwse4t16HhS9AI70qp7JQtzv/KyAQCmpXMuwMIRrMhlvxBx6jnLmRDE2SurwDuWlqpdQXKW15elVp7+4qE7F0agd7dhLuvINOmMOow13xFmj5Jhhl/t334MPfE82I4CIZAripclFtQn4B2/xnwBaYhx7j3OZtuNpShICjTJIyk0pX1yoWAFDtkHsBU1OHS1RHj2E/+DT5/ttGlfdHpyS2fe2uIQyqBY4Kff845cdHQEfMlIrPWlld2ryKzU8jLgouGlxMRgvdYY/56zfDw/cChoI0ZjXtbdODAUzEAulTTxsGwYCNNfbEuww+eh9MABNQ47EayUK7ybIisSDTko3lCM27cO8jzG25kywPU9V/t96YqvdzPeIUUMdo+xbq/fdCfzumtETbHid+K4xy/cWLLD73K4yep6RENCUx1qt9bf9OQuP+ZHEUCt4I3HI79YM/glBAiFgdgdQEMSiCVd+uHYGoBRIcGI/IkM7JD+HwUeL4Eio09nIR34TxTW7ZFK0PW74lJljs/BnMkdcJFz8CW5HXhkFb1wEpoVUlXrFtjDSrZmC4kf7BB2HHNqK1FJOQW52udyjQmO1pWuuommZMAC5/hnnnVfKL59N32UiUugkVn6LTjdVCHY4R4kuG225hcO9j0L8ZT4m2k9Sq0Rb/q4hoSkSvuoaaWezeB2DnHgizDEzZWhF+G0Sw9Qg5dojq/cPAAqgyjaGLjaEpqMUB0QC9Ga778d8QuttQcaA1QiAYIYhJycZT9y/982MmkgWJGDxuPIC3DuFOHcfEIVDjiXhiGyd/jSKhwrx/gnDkNfI4D0bBG9RMU/l6tVBU/tgjWdCoKYV1w046Dz3BRdtvxh1YEs5N0fCjTewfkraGPCkRPPcLxJNvw9FDzNZlI0VvxpIYIbYrxBUxYIKCdJG77yXcuR9sPrnjLatEO9utIhP7uBGQk2M2fo9w4GHYvB2dJr3kGiSYJPXoD89y4el/pjdaxGuFKuRTNClB0kA259I4AStQmxzduhN7/w+ZL3pJs64xBZmZ1PfQAlbrJIXSHBMc2EB18SPia89iB5dxfkw+Sf76MlP2jLR8M4QIl08hh14hv/ApqEdxYAx5a6XbEK80OqgSY6C2MBBFn3gKNu9E6OABJGInoZZTtHa68kkn6WSp0InA2Y8Zvfk8DM6nzBUyFIPTkI4IpC2hlkNRggwwoU/Ydgd270HM3BwYsLHNSFhN2id3tbGRAk+GQ+tZ7L6H+OK2m+gE23pLfwtKk+GzACwyd/Q9OHqcaCMqY6SeHuGPEJeO2VPyc43VcdLUah8e/zHn+3Ng89RMpQ4Fgg1TNfleLUQW8DYisYDQI2ZCnV2Gl56GLz6DOmCCYmJb7V+TqIfT72IPvYL1Q4IYonbQ3NLzrfTyCk15bISQGcaZJcwU1D99CmKfjZVFBHxjUjdt544pj8cAIf1ngLKEz05SHXkVTIk3Di9FcglTD9Rpk6llGRSfDYDNjL53kGzXHnJSkKnEYt1kQUwjbfG/iiiRYGo6mo5VXQBmNyNPHCQ3vekaPdcYFYaq6yCM6A3GfPTSy4wYI0Lj7DJFxNSUqkCUCqgxmtKi2bqDbfceIKhCUESFKBDMlP0brxollQViBqFgIXcMZER2+Sy/f/EV8Kk3wrahX9ck5XjIx4eew16+mHb9TQ6xS2kdhOnZJLiaCLEp0tKOvkcoJTL3/fv5eOMGMD0Yp/GpgiXXnGkagQwsSZb85MrHY+oXn6O/cInSQWUsUYuku2zmEN8OGysSzAiK65m574eU/Y3koURMaB6Q9gauFu2dX2UsBnyGDbDQicznFVtve4LP7vyfoepQmRJsCWWNNzmXOw5iaPzHWr6KjWVEY4dxfzPEETt+9yobDj+PN8KoKEhWbiVQUlIzbhIY1t6MZcDR+BSBoQ8yC5KhJjDcmNG9/z8w7t4DwVB3PmOxMyBfuBFiuyuFztGrI5gB5BUbSsPWsguF5Y5n/g/0s3cZWIeVizgWkabzL8iaexBavinNR3mBeWAR5qEeQYxD8mMvccuLv4ZuBXaGTmWxjOj4CkxnVS97TaBgQ6S0GZBRuZKu1mwwtzL4yf/O7WxM0axz0AV6GBCHY7ryVGTSyFzO4MiYp4KPjpK9/jqalxR1OgnKddDIfQrQjKIN+CUYGGcKpibZaThKW1A68G5Eb7SR4X33Effez4guVeqUTg9Iq25YNdrif5XxkD4FhQyD4KDX56aHHsH3HLlkUNeQg+DpeMCY9pNbgeAiWYh0fIQMxvWAL159heLiWSwRj015C5qRLx34RqZtAziXAnPjdvp790DWpVNbZioFW7WynxUIJnDp539Pf3iWgelD7IBNk5ltX7D1gwBECgqgk7wcMzALZzj1q39e3WubChxWI0hNXiveZOQPH6Tf375+ZBuTk1JrKDHsqM8zePYfCabEhFabvhxGwUVZSu9V8TityWMgC5bxtu307juIKXrNXJvG1mmba9cb7e1fZfykOSpCJ4CjIJoe3LOPcOcd1N5BNAQXMRopSlCR9sVZgdIF8hDAKz6rQccUH34A7x0m9wN8k/0LBomGXA2RSLX2tv6/ElGDiRls3IzuO8Bw01aou/SqCK5si/8V8CibThyiPvwskaJx7hi1CRvrDfFAoEOBxzHsgjXz8PqzbPr90dW+urWNpCZXIRBsCV4p57aiDz8Mej3rpYTQxgC6dEmyxJHX8O89S21LstBb1Wtb6whJsqxiUq+E1FgdpVPU2GH+noNw5z0EMUsBXgB1Oz+tKuvjzZ1iAs0ufrMAcFEItoOfm6P4i79i1NsMtkNlNAVixEhtIbaV3bIkX+rULFs6EMbMnP2M8NaLcP4zIB1QRkjHL03N76eo+AeQYBm5LuGOuzC774c4A6WjthU6bb0N3zGFB8IZ5p/9b/TPnEsTVygRIq1X0noiGdTbAEFTS6e5cJIzT/+C/ujSal/cmkdx2BjxomA69Pc+yPyOO8CunxC00Dj9e6BbXoL//x/Y4M+hpgbf2nkui6YY5Iht7JIriDVIRuzfxNyTfwP9jUSaXCMs2sZ7rTpt8b/KuEkRnzahyRq3BG8s3H6Qzr6Hmc96SLCpQG1r/q+FiyQbNptycXONuGoB/eBdOPEunfEiqhWlkO79RII4bUOSNVgKdNMOZPd+6k3bAdc2/H4dosHnMPfJh+iLv0LjPHjB+DhtT0HLMkQ0dczH9KrPhnkGz/4LG89+BqZ19FkOVU1Fv4JGR7XtVtjzABSbWU/5VoIlSqDrA/LWK+jJE0DAGNPq0lckafgVB2oRDBHlfD6DOfgk2c17iK6LM+CERu9jsF/edWv5zmmL/1WmIFkzqo2N7jA2jZ3gi5vIH/sxixu20Al5ek+yiI2KbQPAlqWoDcFYxnlGUWfYWtGsQi59DkffgQtfkMuYMX5pErNMV5OaSsTbijyAyAz5rj2E224nuKIVVH4dckcd+mTViHD4n7CfvIuaLgZLTljtq2v5MxGR9Gkaknb9o2Pwwgvk4zFaTNMbvzpE8cn+PvQJ99wHt91LP+b4vDlhXQ+EnEo8ZvEk9TO/QEKFz/q4YNoF4koITSyyYKMDD5oXnNt4PTz510Q6mAiiqdgPzVrKoe1e5irSVgiriGAgQMRQEZskxRq0JqemdBm6cxdb7z0AtQMVxu7LtmQtX0ltqI1jMXNILUn77xQJQ8a/Pw4ffQChxBOoJiNQnARqTQ9KgCqddMiWG+nsvhvZsIm4Tubkq8nlXOiWG4CIuXCU4asvsWAykLT737J+iGKpBdQvcO75X9M/dw4CnO+uH+nK1UBEwEYIkM/dRLZ7H+WmrbiRpWZxtS/vz4ZEoSYwfO8lOieP40WZd3PYaBsXm5avZrJxaZBoIQg1GTsf/AFs35ksqQmgYxTfbKsY2klqdWmL/9XGpg8hx6RfSAaS9qD7g8uc6m9DH/o7RltmwI3ojDJKU+Btu2ZeFid0QsXm8QCsB9chCz2EjM7ZE/hjT+OH82zxRZJZZXXSLk7V3j+M6RK7Y2K2SG176J4fs7BzDz1folgqp3hXpsWiz0EdZV6mELBrnA2lxxdDvBPsAPpvv8Tc2/9KaUvGrun880CsCcwTGKXTt/bWrTkqYEzjngZLmyMBcGqwUfFmhH3jZa5/43VwFwkzNbPltC33//yoQOXAN05X+gfpvAFv5iFsprrzYS7v34c1pvmTmdW65G9GSD1gFU0eASXEEgKMHcwsnEFffhbGZ3Bjx9yoS2VB7Wh1r3vNY0ANlasJtgYtqDbewuAnP4YyT1OqMah0QS1Ly23TLrxXk7b4XwOksdakk4Avf3UM2wC7dSvdg0+kZk4bMGGMCe3W/7I0MZOiJM2mpFlNMGAD80eOULz/CUECllQ0VNZiw/S8EoIlB0zTZhVxyPU3sOGOPcSN12OiIYs+9TGYNvH3TxGk8SoUheHpjxm//Rrdwbnk/mGvfF/6aZy8rC1rkIlvwoRJymyNJSgUw9NcfOMZuHQRTBdvHEVojdqXRZXCG7hhK/k999IrtmJx4CDnypsxFTTvbrPNBpi00WagGyOX33qT4alPkoTFpCbxyV9rWQa1KBlFLDFSQuwy9xd/xQa5Ds0n32QQsemLyT2d1Dotq0F759cwF7NZssEAMztL2P+XhK13EcyAPFaYVvP/jSlzZfbiReSVQ1QLH+EZU2EpMV/aOpwO0t6JATIUIZoMDjzIuW270uInRKxWBOPxmcdbcMFg2xNX1IBisApET08r6g+OwjuvUeiIMRAcJDFYgQWCpN3RlrWF/dIXCqT+3nRQI2CiYfzGs+QfvQ4ypjIzELttii+pELORP/Ds18kfqMHVOZdvvQn27aMTu0g04CKdK35pU4Ga1KPgIL3zmhHEUQnIxU+Rdw7RHcyD1mBrEJ96RNZTZ/PVQA2iDqsDJNQMb7+batejWLuZ6NpTk7VKO42tYQJANgYs1U378QceJ2QFaKs7+LZksYJXX6B78gQjBngCfWWq3gghpiJeU/EP4EVg8410H/opsTMDCARFiVQuEkzERtM2BJMCkFOvmjRukBXx9Ifo4ZcwZz8DwpXyJlpQ9yXNastawjIp6GgKf0UbQ0GjwOlP0Td/S//CByAltSmQmLVjaYPRK1+qmr5ImTLMboeHDlJedz1SkxKwbQT8VO2K1xNbN/UQk9WzB4wO4ehr9D48RrccJxWLiyAhjZWxlYYtiwqqknoWTQd+9CNk8z0EKYC2WXqt0lYAa5hZoMqbFNrZnPLAfbD1djBZ0mW2fCPyAGorKL+A559B/FlyImaYtK9ThXhSCWvSrqcAeY+ZA49Q3rCdkemB5ks7/e1zcwWVpjBsrOeQQM+P8cffgePv0BlewCiMBb58RN2eua1hmnWcaspEySLko0XKIy+Svf8+eE90HiGQaQTT7urCH6rZVJWAEgWidYx37mXmnvsZ4ZYWVx4gTlf5cOW9TRJIH8HVEXf6JPXRV8kunE7J3pImAaFKEiCZrn/nd45EoiqV9OH2e8h2H6DuC7Y5WW1Zm7SfzBqmUPDMAA5jILv1DuLeHzDozLVF3LdAosUboBhQvvsmG49+wExdg/XotOXVi6KS7A+Ev40AACAASURBVGKdQoYnCPhNN9B9/AnOdWaADqIuOQJNdkdbEHy6H9GBzVBr0mLq8gXGr70Kpz8l1xFBQI0BnWRBTI/U4Voh7VKn09LJp+NUoArw2Unc28+Rnx8AM9RO6MYFJNYEO22r/avAl8YEITn8iAgRJRQd5NH/gMzcSFcNWAjGp2/XYvWu+RuwtMCRGm8CHrDlAI4fpvzgMGhFCqAqEDVYDagowbST7bKYSHQ13t3A+OCPyDbflJ6PCIHpekauJdrifw0TxNMLacAVs0hR9Ij7H6e44WbaDKdvjorBGEOV12i4DL94EQYjLnY8mU5PtqsCgUhNKnpEFdEaEajJ4b6DmO3fI1JAZcn9ROs/UUNf2xiaFGgENZbSCd4k/+nqxHvw3lEYL1I39xgk6aNX9apb/i0mJkyTL6Km3xyOuXT8TfKP3obaAhvwYpA4D1oydq3jyBLNAsAYQwgp4CrffiN638OYMENRK5gRNSVxqXSYnhJiqR8ET01Ihz6XzqNH3iCbP4tapTJZGi+jAJ4gMW0UtXwlKh7U079xN3H3QYZFj76PkEfytvhfs7SP9RpmIuMIApEuJkLv5h1c3vc4ZJupY8nlzjjtWHhDMKaxcGx1rMshGjAKUQ1Wa3j/NXjzRTbUngUpGk2oBzweT4lHiWuyXjbYK42OEkEcIoYMhZnb2Pz4z1gs+lB5kJL5TgCyVvMPSHRNt2ONEHE+J4sZiGeuPAW//e+M5s/QUcgrz9AEAi7pgFvWFIrHNSczhkVsHFOKgc+OM/PiP0M5hjyiEim8S5bKBoo2z4Ekg6lRMRANpdQUwVDGTcS/+k/YYiadijlBrcORJ2vqKXsNrIIXA+OMCkHDGH5/BH33MIYKVMi0xjBxRnNYNSkt/honGNMYHTRpz+KoTI63SpQIs9fDfY/itt5JjQU7JHn7r/KFt3wlU/b6XmM0DajJdMwmy8oso3/gUdh8AyHL6RgLdWi+vfk421PK5ZGIKLiYkami8SKLz/0Ss7jYuFx8hQXZGhvIkj2sa6QoNLZ1GUJGhhBlls6934dbd0KRg8YkWUnfvKrXvibQyR5+BE1+8E5N2t83JaPT7+NffpmiXAQLBdm0mUFdMwhpk8QqOCwDZzCDS+gbz2M+/yB9RxYQCbggQAFicW3QUEImyasx2Z8WXcwd+5HdD5FhU9iXEYQMR5bCEKdsCAkScdFA0WcWQ1z8lPrlZ4jlAtLYQovGJokWUItEaZ3RlpjUF7p08iNEVAyyYxfsOYBmXXJsk/h7Jc23Ze3RFv9rmknKUJPRZBwYR+eGm6kO7id2tlCcJzWtuZTy2g5UXwM1aZerWVmJCZQXPqV++7ds9AtUpFMUcDh1FJg0z03ZzTUR6G5k7kc/4WIxAyFn07gRSExbb8N3ThefB7J//jn23HEuWrDjNFxWreZuzWFwjPFACb7LJcnJPnmT+pWnibZ91pfHgDqQGkwJleGczen83d8ibFnti/uzESjBwwUBU3tmfvcm9QdvEEzExc5qX96axmrjLMfEIq0ko8RG0N5m4p774fob8BFMbMSRMnXO2dcUbfG/lhEPBIRIMlZTvC2I+Rz5k0+x2NsCugk0S7pETUVJ2wy8AgIRwU4sHqmw43NcfO1puHgqLbSYaIcBn6wxp24gEyjzHuw+gOw7mGzYSgDfqn5WImZILOkMP2Tx7/8v+k3oVw7EVla35qiAjBq0JBjYWkcu/eL/Jh98ig3t57Uskoq1aDxqFGJGZ/8DDO/aA379aLYtARzMKCzYRcw//AOOUxSqaGgbv5clAhpRSfWFpULUoxSYLbeRP/xjQqeHMWmMJKb4yZa1S/vprGkm8pOIBVwT5hSloNx0C9c/9CS4LtjmmK0Rpce2+F8BwahJmm8MiJLriOz0B/DqcxTlZYSKpfifZqN36op/6wkUjOZuYfahJ5nvzUFMvZChDYlbngj9GClnRsy88Sb5y79hmEWkDEhb/K85KiCvFUJgqJ7s2V+TfXgE7CIS2pOa5fAoHsUEpRSHn93GzA9/xiU2rPal/VlRIiFE8gDhjZfg4+PkWif30tbydQVCI/dpFkkaqINnYW4b9oGn8BtuIbiczDRrSUmdaGYtNsq1AG3xv8bJSAHqBtssAK74MV+HeezHnLllK3WW4ZLdS5s++rXQxvKyCXo3guDpjRao3zwEpz8nDyMCNX5y0xWm7XUp7ZAsgsYCuW0P7p57oNMBcqT1rl4eUyMeSptDKBn+8u/pXnyPFBW0fnZD1wsZgOYgGbMXjzP8l/+TfjUimgJaq8ZlUQHf6OFrmSU++Djs2E0PIa6jR120g9UKHX5I77/81xT4EjJqq23Y20oY3ygRDBIs1JG602Xxe3fCAz8mkjUblDQFStq4zFfxkluWp60A1jABh+JSfDZNomvzVdQC121mw1/9kEHepLiaJsq+3dT9emhKba1FsJkjG48xp79ADx+CcpGaOqlkljpqp4uKisxDx0PcdAO9+/Yz7vfwZGirDVuWkKdkyrnFGQZzkH9xDHn6n1FTTVmu6bVBx1dU1lFHR/n0z+lcfgvEonWXqq1AlkUEggTwlry3DXn4B/jeFjaODWM7WO3L+7Nhfc7YDKhe+xX5JycAQ5XNkkXA1Cv99WsbUYJJtsh4B9Hiiz5bHn2ScsNWcgWrHqgJRPxkiGzXVGuWtvifBv6tWsNDNF2yBx4l7NwF0VJTUYtBWv3i1yDFtyMRoxnGW1DFDi/gj78E5z6li6HbLKS8TN/LYujBJMXWZrDzAPmug6hRDDXBKN44VJrkTnRJ09kCKaLSUVlw1RAOvUb18VFyrZLu30MNeAKEGkJsw+yvJjG5Ml0xM07+4skVLUNMRE68Tf36i4iMQQxWXEr7veZpkrxEUfPlr4BS4wSQDRR7H6LesQN1FoJM396t+i/1bEUmb2j6M4gXTjF69peQLUKdUZoOojHtbLd8NRpQYtqMDAbyLnrXLrJ7DqTNkPYVmzqmrZ65pvjDDWfzh18mYHAs5DvZ/MT/hHbmECV5kLfdnMszqW5NBeKxUXDBYsSALiCfHmZw7AjFYsBUgIl4ItMWB9ShB66CYj79xua9mL0/wm3aiBFPMBBkIigDiAQxhFYShA2WyhoGXc+mEcn//NJZ/G//BbtwkhhT0VmRtMR4Dxqnry9kmtAr/0s/DUx8x4dGyC59in/u7+lePk9kjnEmqK0pfLua/TIRiBKJ4okSsRoo1FFvuw32P0I2uyV53RfQidM26oWlwLfUmF9PHpEU6vbCc+SXPgMdgBiK2qXpQFtt+rKoxaiA1oBjvnsdG/76PzLubqBfkcoScUCGxbC0/WjbuWSt0n4y04pVSgMd7cBt+6gP3I+JXTq1J8r0pNSuOQzEcoR9+xh8+j6alYyJOEzqqZ4irjgcWgKW2hm47S7CbXupTIfcQx5LDGXSijU+6a0zIhBNkgMA3kYwNbZaoDxxDI4cwQXPOEuOqU4dFAZ10BoGXkWa3ZAlbTEFKsnprBeGjA+/wuKHv8P6ETbGFOQnZiole392rjSLpXc8po0iGw0mGkox6P7dcMtOXOiTvKMnOu/pIVk4xyb40KFaoOLSovzjEwyOHsZWI8gNWJ8yX9oNs69BAcHi/ABszeyBR+DGfUTTbd+vKaV94qeU4AIVUASB/hbk8acw3W1Qe6Jt9YvfFDVCHj2d947Bu69R6nkqAu7KduMUkhOBSoDrb0T2/gDmboEoSCwRGeNNJIhFiOkY/FpnKfQHglFwHucXmDv7GfWh1+HMKQI1NoBEYQHDELCtxvWq4UmnLKJX5D81EPFw6gTVGy/QXzybdiebAldpZWwAKrHRbNOkRprmy0IssFtvoTywl2rTFqR5hksCyHQJ2armFNMRERWCWAKK+EWql/6VTV98QhE9aMDbkE44VNrifwUiBlEDsaTevAF57GdcdDsI2Kl7RloS7RM/pXgMgkIEX/QY37oH2fsQuE472X0LopC8MBcuUB95GU5/gGUIIf32dOFBDIpNhkUCseiS3fswesseKtuH6EHTSZE3E+1/W8FObpiLkyEygAm4ckg4cYTy3dfpjy9RNHryOmUn0zrbXT1CY3uMBogQIpig5ONzcOgFzIfH6PoBkw/BtAXdElfsn5sVEQImIyr4vI+56wD2jrsZuGTvYybfO2U7Hopp7CVDWvhFcH5M+f5h5MQhZoaXkgzIOJoQl/QXW6njChhEHL7okT3yA9i5G5VG3uPa+WIaaZ/4qSUjb87Ag4Cd2QYPPcbi9TcRWyvCb45alAzciPqjtzFvvk5/MCSGwNTZhYuSPKIMFihimhx17gaK+x5nYevNSQpUVVhNi4RglLaCJcUji5IFgwuSigMnIJFs8Qz1G8/ByeMQx3irZBMD0HZEvaoIClIRTeo7dHUJJw4zOvwy3cE8Sp2CqnCImiRhk7Y4+RPUEFXxeUF5w02Y/Y9T5FuxQJL5+yZXZrrmEsNEheKpJwuexXniK8/C2Q8azXoGafbEUjd/qd0xWw6RQDCW4dZd8NBTDLob6EMyxJA2I2EaaaeqKUWBXAFbk6HkdUZ9606KA49gY2+1L29qMUEI5NCv6OmA8Pyr8MlpvCnRfNqK4kho1NFZgCwoVj01AvsfZHDz7dRZF2yOxLRI8NajrXYFb5NMQiLYOidgKZ3DZwZra9z7h+HwIRhfYExkFsi9Q9t58KqxdGulppJAjMDl8/D6i5hTJ7ESGUugzCxBssYiObV+tsCV+5Csy0YijDKHuWMXYdd92FGHmQilVAglNlr8lNkc5IEkZyLgCRhV+N0xZo+/TRYWCRlUpgtaJMmeRrxRfFsJLYtQUlvL3MM/ZfHGuxgiFHWEOlJO2QKxJdE+8lOKABOdgeBxXqk2XU+29/u4LTenb9KImib4a2LlaNrCbjmk2QEaWkAj+RefE995AxeGSQyjMDku1sZPIh2MX0lYXivoH7/eWoNKyjzqbGT7408wnp0Fnywt/+T7r2GWZBKN6sFojmLxRojUdPyA0RsvU332AZ4yHb8FJbSSqauH0ijSJBV2oYLfv8vg3TcpfIlqxNicQHZF+qhtPyL8sQTKEcQhBLLNW+je/xDjYgNEi/E1S55VOoX5rAoEIeLwBOLgHOWxN+HzT0CTm5lOHPOadzu2D0hCJi+LQVGipNNPoqJq6dx8K+w+wDjfSGq6GaUaY5Uvu+Wb0c72U0oBzVZYAeoIeaQTegx3PcbZg4+jrgd1pLKeRSdQOwieyrXNwMsiJc4sYMNmvN2CtfOMXv1/MJ8cI2JSfR8CUBKpqZko5Nde0SdN6qKl+SHPwdl0FhCh3vN9xnvvhzgHGKLxFN4g7WxIXhfYYMFWYCskCp0qo1OTrFBV6X52HPnNz+leOs3ICIji4ni1L33dInioLfgZAoHumXfRl35J/+ynYErEQFFn9GuHix6kAmSiY7mmkVgkj3aJEAtMVHrUmN0PMrr7SfoI9IE8o08P6IOdOpd/sJcgCD50cESy95+jePc5iAG0S+6FIlSI+iRX0YzcSytbByob8eIgdkFzausJxkMQxsX34L6fwPYtOCrmiJAVkLu2iJxS2s9tHSEidDodrrtnH+VNt4LJKLzHUkLmAUdRtxPh8hhUkrbbqocQCJcvsvDKb+gPLhMsYC1QYMiW/IynzQxIbeoauenRv2F+63YInhk/bE6Jpm7K/05x6lCTgYssHn2b7K036PoB49wQpLval7dusXjqjmHkLBsGQ/Sd17nw8dvgrph/tvzbqFS4OkO1IOTzyHCBctuddB79Mbmuo3vnC0YdKC30z53Bv/0eo0vnaDQ+q311a5ymHBSPSCBXJcZIdBn5zp2wew9053DkSQz2pdyNlumjLf7XCfKlhiX7vV3o3geI3Y3gI5mWlHkAk4Fv9XkrEXBYVYQa1DMbaxbeehlOvEzAU2HwOGjCTIRINWXigmgrbMjQ732f0aNPgjgkjBp1WCtcXw4BahFi5tl0+RzVr38J535Pjce3riFXkZrLaBKlvP8x9Qv/naI6nRastM/scggBYkagi5UFMJ78wZ8y2n4Psp4aNkOXFGm4CO8dw7x1jMyXqJToGjydXUsYFaCR+mhAolIB5caN2Hvvg5u+hzezOAUTJguFqROGtTS0M9U6QUSWvuredXTu/yHDG3eAOPIAlW0CUGL7kS9P0oNKExCPAfGBuflz8PR/JRuexlETAB8BjZhJ7PkUvU5RIpAxyObY9Bd/jd+8jRQGpq0x+kooqDHURsGXdD4+zrnnfkFfL7fGMlcTVYSS2fEAXvgV+Wcf0A0jkrC/fWaXpQ54q0myVhsGt+1AHnwKXI/KrKN7pwAl3flP4NBLmDOncSES2l63FZkcjKiktHLEULkZdOddcO9+6t4GPFzJvGn+wjpaOl5TTE+10vKVfLnwF0nNTmy/DXPw+4xnNyO+i42G2vqkYW5ZBkFUsDpxCRFwjq4fUv3+EP7Ii5jRANVmHSUBQads3x8EBzYNAGHTjbgf/RUDtznt6NjpSvVcDSySvMIzBX8J/9rzyJFD5GG42pe2bqmkYHMYwttPs/jOMxBrLB3MZKHesgyGkAckjMFspfjZ/4ZefwN5vb5kG8HBFr+IO3GYwXsvAiMAROwfnI63/CnptDs0jb4x9cpsupli32OwbSehkblaIa0AbEQxUzf3tSTa4n8dknmo8xk6jzzMwpabIczSrTOiLcG1aXwrYSeOPgK1yxiTISLkfsDCr38J8+cxcVJueNDpUxxbHAj0NPWCxIefpLphH5aMYNtnZFkkpIkyFlSdDLLADee/4Pwv/xEWPlvtq1u3DCngzBkG//if6YZPUFdAmEuJv9JuaixHyHPyMMZRsnj7Qdx9f8fQWqzxFH79SDeGGZjzlwjPPIMN5yH3oBYT2/3pFdFU9GuTD+MpcFtvw+59lGE2Q0HENfthFYHJLGHXz+NzTdEW/+sQ4yEojK+7ni0PPQbMIrUFCVRt8b8yTTSkSqS2ObVxqDUQSjqnPkTfeRNHyobUxuJz6gZAJe3u+CEOOLNlO5se/RkShNjGta9ARKJHouNyXuBzYDik++EHnH79+dW+uHVLKbD43G/on3oHYy+xmGWozoBqG+S1AvPWIHWNMTUzT/0N6HUYA9GOMH797N2OAN45hh57D7VjxnkAMYhOlyxzdYgYjc3OP7hijtl9BwkbtlGRITEuuVnXRKrJL6Zt7msB2rdhXVJ3ajJRnH4PfvS/8vHdt8DY01nImTdzq315a5ulM/AMiRm92jMbPNYbsBsp/MfIs8/gz33ITCgRGol8nEI/cQWy5Ordpwt77yXse4CsLlCGDC0sWEdpI0hJOutohww0AzLyWLFlEHH1DMzO0q/PcMOv/l84+iyXGXARYAjUIypKWhPQlfFcSs9lDYSKoF8QdJFYwrbn/pH6xV8w7mwnVtcxW88j9izBFKi2wYZlch9IuR3eoeIYO8c4M2wKl8A6xvv/jnLv3Zzt13R9hvGzVJ3peacDpIbeqoYw4jKRMgI1XGLM1vMvcua3/x+udnTnO3R8RcgGoH596ZuuApdyoO6Rj4WQLTJ/114uP/afGBrHxrIE42gOjOlTMEs3zXnTduzdArQz+TpFsZoSgGPW55af/S2jXgEC162jI97vGlXF06U68yHuld8ysiOgQEKBd5NTgOkgCI1Tg8EhaRDfsBG3/wGGs5sQseRAR2uyGEFTI3TbC7w89cICl195lg0Xz5EDvguYghw7fYvDVSAlyqb3KEhOKbNYjZhL54ivPAOjBYwPmKVCztC2HCbs5J7Y2PTteLLoKULyuF+c20bnkcco3BxdDOoi2DhVXv6GJuPGAcZRYIgGaonMRY+++gqj06fAlGADalqji6/LBm+o3RCMobQ7mXvyp/RNTU8hZu07tt5o34h1iBBTiEkELwXs+T7jgwehyDHjNuTrWxG6mHAec+g56i/eJ+DSfWa6mmSXkok1w6lLhUNnFnbtw919P97kGF+TRY9RBRwq0rgEtXwV4kdw/A147SW65QIXBII1aTeW9t1biZoCKEFKvIGKHowrOPRzyk+P0w9jslAjKhAdYKGVdADgQnqnvVO8C6k3JdaIj5R2A9m+x2HHbRAL+moZEgkSmaahS4BCoTSgInSaV0opMZ+c4tLzz7KlHoCOIFMqSwpnFNO6mK2A+Igzi0SjZPf+R8Luh3BSY+OY0rTb++uNdsRchzgkjZKSJoOFbBOb/vJvuTSzsZkwW74JIobCF6hbhNNH6b30MuNqEQQsNTpF58qNUglwSBSsQuUEbryV/N7HCNftICLgy9RAQpb81Ftt9bI4YObCZ/DaC5hTv0MIVABRydri/2vQpNCadK8KgI9OUL75L2TDs2RaIxNPQjFN4S+0UxlLshZvI8H61Agd0r2pNu8gv+9R4pabQXPEp5p/iur+K4SUq1JjQCGPkFfzzP/2GWbPfkGvHoILBPFfGpHbwn9lBONhYctNZD/5X/B2FkwgZtMzr7V8fdoRcz2iFgSCnQx5BXrzXcwcfII6n13li5tiFAiRaBTigPyVN6k+OYqXMZk3UxUgaYkYDJCBgcyAEajcBrjzAfTOAww7PZCUnuola/7GVJYL3x0Ktvbw8XH8od+wcXA6NcqJYOopekBWiXzyo8koQkX33OeMXn8e89lJnHrENCbjxjJZwhpCKnSvdSIgSpTGgCAYkILhzEbye+9HduymND28S9/XmVgUT2EVYGnWOhZsvQjvH6U+8ltcPU6yJwOYHBccNpr067b+X5ZgFGQzvUf+kvnbtlNEwBhqcVMlDWv5ekzha9+yIupQhDElucLMCILbinvoKS7etHO1r26KUbAlEgsCGXz+Pp3Dz6Hjz5vk5Ol5nayCaNLwqySpmCMm9fTGm8n2/w/23uzLjiLL1/y2mbn7OScmKTQAYlAyQ4IAiZlMxpyzKmu4Xd23+6Gf+6X/oF6rH3p1r759q/pWZd+srCzIZJ7EPAlBMglIQAJNKBQRZ3B3M9v9YH5CyrxJSChBoSP5t9ZBS7FCLAsPc7Nt2377t7+XGn9ZCyYnSMrIiraZ/9URMBnqv8S/sZPs7TfIwzJVZpIJecuqFAolGSUF+D689RR+9/O4QT2eqOlGUySpOCSmTtztjRQpHI5YjTiv4A2l6VJdeAnF9psIc/PNDR9EFyk06f2ryVm2EtbQa9ba2lbQXyC+8CQzX74HxqDWEcRho8V5i41CkFb1c2IMg4tvILvtp0S0OSx1ESx2gurZWk6OSXvtW06GCDWGihK0j9QQvYMtlzN/651rPbrJRSBkJVkoMLGLd8u4l55h8MWedLs+SURAkwo9CSzq1DQpQGUz7NU3sO6yq4hZgSIotimybDeB1VAVKhzReoovPia8uJNy6TB9FEK21sM78/GpeqYE2P8Z9auP0zn0ByRaoli8EbwRgoEoSqpeqWjnJU0Bf5P19wZ8hunOMnXlNbD1YqLNcT5ZppYEqCJEM1EuVAp4AerUXKokUL73JvH935PXhymtpbSWIFmSuAYHmi5BWlbHqqV3748YbLiUdXEIbhnUkEdDaJvonXW0r8TZiIMMmKUHpgvTSlYo2l3HaMfdHLjmRhgJMEKNgnbp5w4mahtYG4xCJRlRc5yPmIMfUTz/OHb5DwxlQNCYYpEAUOKpjxXXnklYktyH9EnynwwsOKMszsyid/z3mM5NBFczKPbgYo3W69Z02Gc8EjB2iI0GiZ7R75+i+/LvWD84xMEpkxrpBA8hoqSpks5UfSZUgf21GIfrOv6LRogx/amRvqvxwOziIry6k+ydl8jiEsOOokZxkZVPcrcxoHnjRnWO4zylLaiYBQzky/gtm/G3/IJh9wqsCOKUGZQCC0UBBqbWetxfAyXgYgluiYhh+oslihcewh1+g6PFHLkqHR/Jowfx4DwI5KFV/QBgFugXIRmB1Bn9zHN4agj1kC+3/QyuvI2eSQ7+gU56rQSstomLs412xTxLEUzq4koSc4sIIpbp8y5k0413QK/R/ksFUlN4UNPaea1KI5UBCCYtj9ZGPn/1Rdj3IeBT/rHZZcIZ/XqlsTUqiubvzVU6kUId9uIrqW+6FjVd5nyGl0Br9rM66T1rClBFcOWQz574HRzcy7Q2toM2aZBFj1uA5dxxrPkj+bUc9wUBT4eZagh/eJP9Lz3ZtJYoEEkHb/7oM9ZyCG1oB14cRgO9UIIRdG4z3Wu3070gST0NaW66ZncYv/OTtOqLQhShlg4dPyK+8xKDPe+mLr5BU8O38fw4nj/3tXOSTkpMEMDWdIPHVhY/Nc/87XfB+vVN3YhBMe192lnMubHbtBzD9JDLbiZcfT2oS14k0seVnuWsWOvRnfl4i9WIik+FZb5m42hA/dhDdMplRGsqB0MD2vjnj0sTJ4WIUPgMXIb56/tYmjsfO5wl1sdcWFpWQcf9ECIFgeLL/Sw++m90D39KBXhMOgSIxyVPJVQK9BxYjoVGo49HJRIwBAy++QiCOfwJ5TP/Qvfwx3gpCDJNEUDa6G1VonbJfQV+AW8Nh7ZcC3f8GDVCdpbINlQMIxylZnDgI8KbD8JwgVqnmfI1bYS/OoEendqC1ETXx9SBqWoKbvweXH4FdDtEI3g5lgxqOTtpf7vnGpLDliupb7gZP72ZYAxQgY9U0hYknhA1WFWQQLApbTk9GBB3v8jonV24WBFIDnsR17R28kySJjlrLPQoMkYbL6LzwI9A58lDj5iVaz28iSCO7XZ9xfo4ZPnVp+G1p8hikvYkuU8ErYF4jpmAetJPH/EoHkXTW8PUMMLuF9E3nmLWL+GNUJsi1fO2cd2qqAj4JCsrZzcwfefP0Y2XEozB6NkiKYuIGLIywFsv4vY8T6413vYwOk63tHwVqgUEhyFSWw9qyWYuhu33oBs3E43By/hWqA0Qz2ba3+05hxCyKdxNtxKu2EYt3XRVagKZb6fDiTEIHqsexYEU517yOgAAIABJREFUCJGiWuTQIw/CwhfkWjbfeYxJilucJhl1JULBDMWdDzC67HqIHUo3ST/J2mCI6Ep2X3FxxPzoCNWjv8Z8thtX94leqVWSLpkwUfPjm0JJHv2CYtXj4gi79w0OP/kgneEQfEWUQDB+ks7Oa4bREYiAzKJbr6O7/TYWM4dKhjmLaiKyWFLse5/yjWeQxcNYiengo5MkYFpbki21IxZTcM029PIbKe0sEYchx/EnicD2THXWcfasCC0niYJR/OYL4cbbyXoXoZrhu8pMfXZcDX9riCQNDwGnEYkZKl0wDkzJ9Luvw8tPYatFMppvVTOBgV3KyRoUF7vE2Uvo/OyvGc5M043tkrEqChIjUaA2ghqB6Oloje7/mOqx/wJHviBHkiMJBvDn2N7q0EZpLkrqIh1KGByhevx/x+7/GChAMixDHCNSJ99z6yl9XVzso7ZgYe5ypu/6OXG2QySS5tjZcasrCq6/BG89RdzzNsgUUcDRT4YF7RRZFUsNJkK0mNBjeP7FcMsO4voLAME2NSDjj8BKs9CWs4t2Jz/X0BpLzYgOxfU7KLZcC9JhqSNI2Qb/J8JbgAhRMWqpKfAmAwfzo6McevoROLCPLPqUXdFU+DtJiUuViKXGaYQI2SiHHdsZ3HI1DNpt4IQ0Dae8GIK1TSfamlwU/8ZjsPsVrB+LXxwQOae8NPSYrMABEj2Ekk92vUJ48yGmtQQzh9oeIkOc9sGY9BxbvhJhwEAcs9vuhyt2EAhk9JEIGs+OqFhVqQ5+zujVR+mOlvDM4MWSMaAyOW30vzpCiXceNCdjjs7V18F1VxKMoYjJLVZiOmSNm1YG2ou3s5F2NT3HUJMRpUMXQ7VhI9z3AMOZK1jX70DRJ9hAMEowyRtZjaYiTzOiPf8fZy8oIAQsJUIEzSDrsnHfW5TP/hIzGiVht3iEcqKKFQWaotUsNQTKALFsuOuvWbrgeqhgOa8YuQqiEsRROuAcU65/JeLIYqQIERsdSAdMhuDJlofwxEPw+Wtpg60y8D3gEOfE81MDIVU5CLE5JxXwh3dZ/5v/RHeUp5oaUwKRLBTYmK142J/rVNY0Dc3SXPHG4S2oHQFdyk2XYn78d/iZ9YBjmphy/pO006sHfDKeDoAfMeQwy1SYZUP+3D9T7/8INYZgYtOw0JKdNXUN3x6DrIf3Hnxk6aKL8Xc+AO4i7LgXgvzJh+N94FrOJtrf6bmGCGrAISgZXLON/PrbETMNVBg8x/wcj58e7cabJB3Hr4xJ+29jBLVUAMZTv/4ivL87NQWLE6pFFbtyY1GbAEFhy9Vktz8ANm8s9VLu+pgao705ovF3Ek1mUDL+/asFETJvqQ7sYfGZ3zC9fDC9VVEIGtEJOiCeMhKTbziS5pcAy0foP/pbpvZ/AHEaIZkQiIKEAmJBu/78OVJH3+QrFjnq5pi/64ew6QKGzuDI0ryb5OgtAlGoMBiW4ZMP8C8+TBYjI2OwElJTM80QjW1+6gR4oOOBbge54UZk63WgPZzEVHT/Z1xzWyPds5NJXRJaTpkIeALg6EI+j/vR/exdPw1VhkSwMWKjpuBFBdQBrZ7yROQy4mDWY/pQCU/9V9R/Rm0zguYTVdKZGjEpAhRAHm1qFtebo7N9B/3LLiIrMzqloC6AeIoQkpa0ZXWqwGI2xO16A156hjrrp9sV3QAT5bh+agSgshGCQ4FMluDZf6X7zuuM8nNK/HRK5LHR8ItBTSPPixFCRnX5d+Gm24guS9nwRrWtMlnHchVDADrNga92BZFpeqM+y4/9n/iyQkOyyJXJWVbPCDr1MkiPhfnNTH//AdTMMSjSnp+1z/Kcog3+zzEk5XJRwKohmA79rVuZufcekNn0TStNdGJTsCqEc0uVfErE2Kfr5qE/go+ep7/7MWLzLO0EFcqG5mM4pv9EcqqsR3Xxpbi778fZeYg5XtLsIMS2HvNkMEoRa3oH/wAvPILu28XIlNhokUm8IfqajN+CykKuwAdvEF/+DWb504l6R9aMpotgENtICmtUDJWZZcP9fwObL6E06daJ6ICcMGG3JuPeD8QhmEgt0A0Z7H4N++ZvMZrklxYhxsn62daaPHiIGet++NdUmy4jSMYQjnXabjlnaFfbcxLT6LrTJrxIl9l7fkp/8+V4csAlWQfaFC+apgFRG92tRt0RppcCdAQWvyB/4XnkyN6mz/IkPTvT5P1Jh0CTLn+iZFTZLHL1LdjLrgfXJRp7rPNqu5ycEO3ATD+C1IQP30CfexSt9mHrcySLqYoJSc8th/bDE48SD+4hyjJFeQ7UPPzFlCiOIA5Rg6qyZAvyG76HuWI7ZTGLzSAfv4oyPlBOaGBnIqLQWTjKwq9+STccwcbUi8Sp4OS4lbXVp5wQtVPUF30H7ribAbPHHH2s4Vy4eWw5Rrtbn3M4DAUZoCaiwDQdyM6n81f/QOl6lC5LWtwkum0+SVva8tVIzEH7lEXAS07+7h6yV57AVEtrPbSvhZBmCcS0HxiOMwzMsBuvgdtvZ2HjPBpdylhbh8R28zgRpWtu0xyILiMvP0dn18vgl5ksccapYrDRMDs6BLseR996hVgGSusgjtZ6cGc+NlAbMDGDYFEs5YYL4M4fonMXI41VI5Jqq/U468ZJQVbcr6bwYuj6o/D8v9P99ENQbSRNbax/Kix2NpH9/X+gmt5EHpOss0cEcclRq+Wcof1tn2Mox6QcNSVQMjMQYJ7+7XcztfVKRpJT26wJ/pPzwrkRmPxl5KOCamqRUeapWQeLS7hXnsYf/IR6gt40i8FqKvat8FSkOZDjKQJ4nSFuuw53zVVYCoiOYGxjC9SyGlkAX1hqyQgmkh/YR/HkM3D0faKc/e9YkGSCxYe7CS8/RH9wAMMMRegR8mqth3fG411FFBB1qW5CctZfdxP1lddTiyOn8XKnbv4LomaibpUMcWW8FQYOvE+981cU9TK1mz1Olkqbj/qazFy+neqWW1iiR68CYkmHmgrw7UnqnGKCQpKWb4zjLLxWbOCMUE2tg3t+TpZNYYKi2gVyalfjJvTW+HTjTSQLilWb0m0fv4vufgpffwlRoUwBdUkNpM6lZ9z+1QzI/JkvSlSKCAubLyHbfhfZ3PkQI0E93p4djYS+TWw0VKaxX1GDEdC3XocXf0vlv4QQoIJaIeBB66S+W+uBfw0C4/F6AiXKCKoAHoYI2eKn8MJOwgfv09EIMSAqqExSfnqNCOsQrandUTABe/7VuBvvopzbmN7XP5koK+/wBAV2EhWCZySQ1wOOPv8k2YEPQUoql6/18M5wFLQmGEMQR+VIrmy10N9wHuaHf0tp1pE3dtVI+idtIHju0f7OzzHGHfsQh6NLTgEdoIB5LOW2++h99wYclqA5XlI2V9sGOyfEF55u1aVXQa59ahs4qiOylx9GPn0b6hEEpUQoG4u+M1KK22wK0jR6z3FYMsClA42DmnXoNd+Da2+CLCP3FcvZ2Z+5/ktRMro+kkWPjZaggsoyPP4bRu+/BPUyhHQGSPhkMbuWg/6arMSfqigxeYv5FPwTK8zbT7Gw+w3yocFVEdyIYCOunlrDUU8GbjSH1RK1C1QzPdh2D/qdG1PHZBlPlAwhG1dvNV+bsPVba4L0cb9/memXXoEwRHuaXMX+m++lvQk4Hg0oBm8slWkKeXUa7nyAcO02ZphiBpLmRwqQAsfZ0gO65WSZsBWh5dtEFAo3g971ANXm83EsInjy4TSlaxuofC1iwAalE6C//yD66ssw3E/VC4Clk1ZecHGiruSjidQusjGC666He++l2rQFyJmuy7Ue3sShqogIcTBA//XfYeFjBh1PHsGqo5KmwdUEzRGLJ+JBMhxdPFMMeoDtM/PRexza+SSyeBBMBS7gDbRb0Ulij1JpoFvNEy66Hm67BbEzuLOpS4QYamOR5QXqF17A7v+cslNzpGtwZSstXBUBn2W42lPEEVOhBhyjy69g6sbvYVx7u9aSaFfclj/GFCxfeQuy4zZCVmEDEKdAWieOE6J//DoZVfIYKUYVvPAMfLabZQYIkIexpV1o6iomgwB48VgPkQ7h0mvRu+4hdGZxgzbzfyqoprBt/du76D/+r3TjoXTDomBwTcH95MwRaTpFeICkWuIIAfQgPPyvFB/tYcYvgy3xpiYKyWDgrIlevz1CsUCvzqDzHextP2C09TIwFodvbJwnnxoBUezuXWRvvwrVEYLxxHQd2XICBi5LN21aIjWU+Tzx7rvRLVc1rn0tLW3w3/InRAf0NuC334a5eCt4w6BjKMpjQUrLyaAgEVGPi5Hu/s84+uITFPEIRdOYM91ST5aLUqP6oc7BKXhdR3bPj/j8ku+A76718CYOc7zDRujjn3gUee0Z1BwlKrgR1HiqSS24V8gidFjEv/EU+uqTzIz6GB2BDaiQfNvHdlItq7LYCaCz1FuvJ7/lXoKso8wtmQp2cpaRP0uMkRgjKh499CnFczvhyCfQq+iVjvVDR797dhxwvj0Eb0xKFsQIWsCV11NffxPDzjztS9Yypp0JLSuowMgpvQDm0hsI199Pf2Ydy26AeDdR8pS1wB7vdW+kKaSm6Xw7YPTqy3Tf2EVWHgXrsUSEjEky4jMIDkdNxABZdCzNXsR5f/0PjLob13p4E4WI/NGHwjPnR+z/p/8Le+RjjJZNWYhMWOifDCeTfzhkoWTDgc/45J//EakOAgGsAAanlsKb9O60Wd0TEqJF584n+8nPGUxvpIfgEcCmOTShHJ9YyuoB2Vsvwu6XULPIUsdAOYUdGAZ5ewO9GqqKqwJkCiZjMHMB+e33wuaLmp49LS2JNvhvOY6IUGPEU8gm2P5zFq+8mOmwnDII7e68KhKTpZ4aCDY2H48aD67ivMGIL3/571AdBrOMEFKX5Ql6DcfdN3vUIDW1hW6YJrv8dr645/trPbyJpso6EJc5b+kA5T//EwwPU3YCBkM+Qe2TQ1M+aAG1NYz20/9//jOXHv4SzACcQ41DyZCQIbUFhWAn64izFqwbrOfIHdvR667GqSDa+LSvZBomk3GnXlVFPv8ceeFJkEMM80CMBdABsXRCW1e0GqIw6yNHu4ZaenSu3s7o2usRmaIXS6Q9ALQ0TO5q0fKtYIioSVrBuOVqejtuptfpAQYVRSXdEKy0CBZFzYTZkZwmlPSsokDILFQVs598zOD5J4gspxK9OFmdXZOam+TcIh5vIK8BM8v83/09fnoWVYHoUaOElcbQrRXHiYhiqDNguET+1puMXn6WWgZEtck6dsUXNhKaz1qjxEa6duyjaGoQHhWJA/ovPoHbvQspRwQD3gi1aRaMseptwuxMvzVWulel5oqpjLfpuC41rvcd5n/6E4a2QxbS947bQ0zm82vmjDXUEjB1n/7u1wkfvM3ADIhGKLwD68DBdL32c37taV4YGX9Y+agAMRDEYecuwNxwM/Wm81PTxnpy6oZavn3a4L9lBUFQcgxdKEAyZe6aH3Pk8rvABqIbUTmlMjmoAzyIp7SpeU9LWn0lCjZYXLA4n2FDhoYp6Ci5foo89GvMnv0cxVKagAmTc5XtSA5xuALoMgXJKrZbMDt/HdVP/kdqOwehpHIl/cykIjNpGzjBcfv1n/lkIeC0ANuF/n7MM/+V6TdfJnhhYAANK9awNWVq0rdyGjvNNMF6BVTENAit05+xYqRQR4Hdb9N96FcUw08g8ywW87gAuW8OveMiEhFcmBz527eJ4qiyIWW+hFcLfh0aOpAN2fcf/xfoXkHPQxDFA2rTNj5RS/BKqVMNMdJHWBSP/OFlpp78JVZLeqHHdNmlEwKYPpiI+Ok1HvgZgMRmPY0EAW+OfYIAtmS+PJ/q2rupd9xEjqGHxXdmoO2l0dLQBv8tf4QbZ/Ckub6f38T6m25jsHEL1hsKH3FaoaYGSY2KXBTMZKadThuuNiy5SH8GuocOEB97nE61SC2SWqufJfRuuovqmmuIrkNRRnq+prKR1kX6JNHkaCLRM/riUxZfepreFx+TxQovGWpAMWQYMkgR3xqs4irp5sFCahikFijwZFQmJ/eB7Iu3OPzMr/BLh8B1QTKK2B4CV0VBfITYRbVLRg3xKMMix191D1tuujHVS1hJN64TyooxWszwxhGATf0vqV/eyfLC3rUc2gRgoOnlbFRwEVzU9FEgOpYu2EDn5h1kvXkMOY1XEmdmY5mWtaAN/lv+iHFeIJCUHd704LrbGFyzPTUKiWC1BKkIBhSLC5MlXVkbDNFYSltDHGBefR735us4amo7UTm71Vl3Cfk9P2Bp/jwoDc7XBJN6G0xYbnINEKI0nTc10q36lO++Dq8/TTZcwgOVpO3bYrFEoETl9G/oVSM7cmqQkJIAXtKaAYJb/hL/8m8pPthJVi+B66KS0fOtZnt1FGKA2EsWy7EGs8Ro/Ubc/f8z9KbQPKeWyb5trYkpgx0NA6BgBL9/i8Erz9Khv9bDO8MRVAuUxoRD9Tj5nIKbw2+/Af3ud1GdwZLhUQxluwK3rNAG/y0rJNlgmhLaZAhqk8HMJtbd+2Oq2Qup1CUbMU3LSRQDsdVzn4g6i3S8MFdayEdQfoF59BE6h/ZRUqGqqGqyuptgS9Vhd5Z41Y3k2+4AN93UNNRElbQxtXwl40RuaLppZ6Fk+sgXDF96AvbsJq+XEW2ku9E00hufekWcZlZ+k+NG1QI1IBroDQfwwS6q159henEvQkVpbPKHCu0cODERGx0mWrBQ5475W+6Ey27BS4YXR8Q2/RQm80gdqImajooGmFo+RP3og8wtHsKE4doO7gxHMQSRJvAnufioolFAcnTjd5i99XscKWaaREHibOkD0fLN0Ab/LcdhmvtYRYjJhFJBsyncpVeT33ofhzvTKCAqoBbFpQxOu7CsyrDwFDXYfsGwMAQ5ivloN/rSE/S0P9EB//GIQJy7gO6O+xhddCXYgiKAGmGCDGvWBGnmQBDTvIaRrh8g+/bQf/ZxzL495KFMob4YkkjPrNGbpymoiIDASECpKaoB7P2A5RcfhC/2JSGyKpiy6VTcdmg9IdZgtSaLSumm8Zdvg5vuZDA9BWQIGRbBIRMb0DmachVRpuujxOceQT/aBfUAI/laD+/MR5pmMc3BP6oSbMGSKZDv/RS78XKEIhkuEHEITbVWSwvQBv8tfwYFDIEiJCcXVcvIduEHf8vSeRdTmQxqcNElra+Jk5l+Oo0IVXqwsUvUDmUWoNxHfP0ZzMfvIyIrdneTTKGBTLvoZdcT77ybpWIGUzmQmgm2IT89qMdocv2prEm9Iqgp4pC463l4bSf0D6K2xgsgFiUbh+GnFcdxVRwGhngcI1g8hL70KLyzk6wSYB5EKHQZqwFoG8GtioDPBLSPaMlibyOd2/4KLrwSQ4XT1FzPYbDERvqVSkUmKX2QRYOKpbIlfPEJSw//G3l1EIwSQ3tAXJ1IMtuowXgwUBvHMhm9Cy8l3v0jkHlmvRAloNQ4NaiatsNvywrtTGj5swgRooeQ5AgKhE0XcNUDP6NOlgIwdudoM/8npOfr9LbZLt2qAAvLxRLx0/coX3mdqqomuknPGIl9shpGUxtxN+1g5pLLGyF4azN3QmJ67yJCMG7FxQUNzCwvc+SJ38K+j4hx3O83Zf/XYhm3HIs2KyGJj3RI/PADDr3yNNPDg0CXkcyg5KBl02SozT6uhiIMrQOGQMmmK7YhV92O78yRm9ExbfdxjcHHf50ovGmMqmoOPPE75g5/DjKk7uRE6az16M54ZFwzQWOum2XUWYH93v3snzsP6gxbg1ISqSGYpM5taWlog/+WP0Zous52IXMpUWeTqWMIGWz/Pv0dN9Pv9CAorh5RugFe2gY9q2H9dNLE5EcxUtEb9ZiuZsnKIcXLj1O88TTLpmbBGCREoI/iJy5m9nYWFLpEqouu48gdv2C0+XJs1ScqjPJAv1C8ySHMQMzx2YhgJ8fu9FvDZqDQ8yW9OiKhAOkixoALrF/YR/9f/zdmBm8zJMDIYKMnMjjtQxXvKEUYZcvkoWLzKMftO8ziY/8Hmw69A8yRySIds5DqiOJ6wIJZOu1jPeMY27Mqqe+BTZ/k8iRMDafwAksXbiTceT+jiy6lNBmGpSTgHvfzknT/0qRizrzL1xpQ8CyjLEKo09dCZDG3aDRMv/os0689BnEEOocES3StI9RqiAaslngKVHLqzNOplE2X384XP/o7LgCYBrrQpYdlGhxYcwbOkZY1ow3+W04aZ4BsivPu+DnDqfl07UiJxozWyvHUGR7eC++8wuyX+7FA7ZKBosDEPVanQB7xQIFj/dXbsFdeTd3ZgInQ8ZEsVkTxqIlgwEbBtlmp1bFJ3yvvfID/9SOs63/JsEhq3q6e/my6d0oRDB3fTe6kg33Uv/018tGnqJuwSXu6GduzNrvvuM/DuHjT6FHKqQ1MXfM97NYryCDZuqauGpODTXKkdDCxIFlzYWzIieQLn3Pw+SeR0SLjtLQorW30iRAD6nA+EiVS1EK5YR38d3/FvO+t9ehaJoQ2+G85aYzWhGIWLr2DdTfdg7oIsULI0+LeckpkjOi/+QK8/TadcpjyuCGDaCgnLfUfIwOJVEAWM1i/iezOe1jefHUq9vSQh4ClJtg6FY8Hd5zxd8ufI8YI4umFGvfwo/DikxiWGEGTNj69CCFFdrVNvvRvPIbb+SBz9QgvrWZ7VSRN9+OtOu04+JcIWUm15WrMjp/BzHnYEMmJlMyu1YhPCW9oRGwCmq98rQQ61QL1a0/B3g8oygGpe7XBqGBjm59eDR3f9UTFhgimS3HPPRzdeiF53b57LSdHu+O2nDwyYiiO0bqLcNvvRi+6CDKL1Zz2QvHUsTqic/gTeP4xikOfpi8qEJWaCZPD6MptP0Qos2m4+iaybfekgyMOgmLVE8UTG69vYrsUrYaJ4HOoihLxC9T//kvsnl2IUao1eHQGjzch3Ux98A6Hf/cv5PEL0BFO20TAaig0LiwJWRFjK4ghTE8xs+NedOvNRDcFlKA11YRt1yltEVM3+Gia2hBwlPDZ+1SvPUP3yD6MVkkSKSBq2p4xJ0AAFZPePe/goqsIt95JMBsnq+q7ZU2ZrNWkZW2xBkeTsbrkGsz2u1ma2ZgyNm010SkjGrE6on7vNdi1k7nRkVTAZ0wqrJwkrCFDyYiogLeGUXcd03fcy2jrFRw1HTAZ+GRSmew/J+xnXBMUbwxHew7ymuzgxwwe/jX5oT1EOf0aafERT59y8SMO/+YfmT+4j5DXVJ02eDtZzHESl5AuUagKS3nlzbgb72LQ6x472E3yzZgaEIMHslCTLxyA155H9r5Hb7QMKBjT2NdCG8GegAhoYDkD7W2CO3/IYNPVzNBh1LqktpwkE7yitJx2pDimP51dD9vup956I6qKaFvwe6oo6eYk84cZ7XwY9n1IZSpGRuj6ydJPVwI9IFfFm8bgKOSw5UKmfvAAB2fWo7EAdVhVotBs+u0BYFUcmGjoVF0q58As4956hfD0Q3T6B0//eMTSWT5C/5F/orvnRaQOEGdQ3Jp0HJ4khFTCITQadxHK6PGZoZyaprj7f4ANFx4z9DEOxDJpcZ0QV8SgtRG8RGwYwAfvMtj1KvnyAkZrEAhWqMw4HGnnz+oookplcqptN8J37yLnArIagjv9xf8tk0kb/LecNB6H1ZpcS0ZiqS++jnXX307WK2gX7FNHsVTWAQOKfR8xevoJ1DSCHz9Zr2g5/o/3eAlYTZ7eA+vghu2cd/NtVJqB2rFTXUpqtrH/qgzySF5bZo52sSFjmHl6o0Poc0/Brl2nfTxeYPTqq8w8/xS90T4QwQ5nKeqCuq3eXp1xge84uhchoFRGmdl2A1x1N6UrcAxTfxDJADNxJqkWmtOL4CFZTi4cgjdfRz/fiwuBcfOPWizeSHNwbPeSVTERNLBuah31bTuIG75DUabbo5z+Wo+uZUKYrMiiZU1JGs4MKPDAqKgx11/P8IoHoNxI5eDA9AiooTIEcQQb0t9bvhoJjWFfD4klo5ceovv6E3TDiMMdAzGmhx880MeznP7dGfhYewCFhaygAJwomikdMvZ1L2fm3r8nzM/R7woj7ZEPMyQM10S6Mkl066aTdtHH4ilCB9RQfPkxPPVL2PMcR+lDrZRULLIIlPwlTzW1Z4igy/SpqEugDxV93LsPYp75T4TBl2CnUjTrlkGGZGdBs7pvFU1rYrAGjFIxYKbu4KZuYeEf/lekI2RiKMjJseP4eeJw0VAKeDOgW1esG0D45GPqNx9havg56RTUAc0pgqcbyubHnKzbzm+DykHlFKhBFaWgNF0qB8R0IBze8CPMVffR7yhMLWNNTeY3rfXQWyaENvhv+frElNWJGNh4Ad1tt6Ib1mOMoTdMOR5cMgNpbdtOjIg0Db5SCrxb9fn41/+CGxwlpykONDDeFC0RJZ6Rb2+65k8DNlgM6WczWGYANmyk99O/pw5TdIxCpwJRTFvwuyoydkAxMUmkm+sS0Uj/o99TPvsEM1/uZymLFFGYxeAxf5EHlwupVtOLUGBTfUbmyQ98yuJTjzL8/DNiqJvsdRpbK/k5CUz6jw2RYCJ5UEadDlN//wumOxdjkObdSZ8JjPsBqAzkGBwFuAhH9rL43OP4o4cht8fkfmIQ5Jjd6cT+xN8cK/UgMv4ELIE8kDp7X/Adpq69iXx6HoPQdAg8I/eEljOTdqq0fA3iyh+FQkYBrgM33czghqupYsb00IEog066vk2xQDvNVkWFINL4Nyt5PaRzcC/Dpx9kplygxCT1jwArtqpxLRwe/yJmhjVHp+Zhx09Zd+XthDiitIsgFlqHmFNmSkuyF57CPPcsqgvJOWnUI5D9xf0TloABU7hgqV2gjJ8Tdj6CvPUOnai4GFecWhBDEPNHFpYt/y1BLMnwPmCjh9gh3LYdf8ctuMGkiXu+mpoSiQZ8QYgl4f1nyXftpItQm9aScjVcVFwUVBzBRpDjniTPAAAgAElEQVQSF0sIhjqfZ3TT7XDV9YSYYXGABWFNnL9aJpN2qrScEiaAU8PI9Iiz83TvuYe4/gIIXdTAKAupBXk8rptNy1czdvOQiOBZXx5lceej8OFbWCo8UBsgupSORf8iSceakNWoFoS5S+CHv6DevAkXAqqAaSPGU0VlhBnshScfZubtXSy5Ib4jFFFJD/fUKG1NjtIFRhaIh9F3XiTufJypowvY2ie5mqYUpSJEad/3EyFR8SLJ3N/n+M2XMPVXf8uRCfPxPxEF1UrSwu7bx9HHf8VUvR80NF3kW76SpvQhYNNhWmqgRk0GW64hv/2H0JvDGMjVADnjMpKWlpOhXaVbTpoVJWazoGcCBkdtO5jLb6S77U7ozOCjpfBN45rxtWXLV9KETQQxyfLOCPlwkemFvbDzYYrF/eRaUSuopA5BwuQZ4lVOWKdNkv+a79K5437UbsRbh2/9IU8ZjxLyCHvfQx78N5aW93CIEspI0FNvEjcg0vFCNoTIEtnnvyc+9juyg59hrMeRnGrG73gUMCqIti/8apgIwUT6uYV8HveDn7F83lXM0qU+exL/OK9UjKA6Cg/9hrl9n0BeozZJylpWQVM1eMRh1CIxUEpkYWYj2U3fx17yXYIr0nYBJDGoxbThf8tJ0gb/LSeNA5CI2ji+ZSSj0f/LJuw9P+HQZVsJZEyNSIVKttUBnxBNByWVJrgXRfBM+T6D93bD7jcwZR9E8cKKQ4adsIVem+VGBJZ76+CGH8Blt+IlZ/KOMmcOEgsqcZAtw1vPkT38O+aHh8DUlPbUo6xsLCK2nt7CXsLTvyN7+3WIFTq2q5G4cri30eCCwbb1GydAscAwK9Bt2+HGe4EtFB7q7Ays4j9FonTphSG88zT9Vx7D1gFvcqL4JpPd8pWY8XtlsdGBQpkV1Fd8F269D0+RbJRJ+4Zv6qyyCdsTWtaOdpVuOXmCQYGSSEW6hpToceqR4NALLmXuB/di7RSMDGikspG2W/sJ0AiqRAy1cSgKRQa+whw9QvXS83B4H0qZrDQBVCbOE6OIGd708QzJccTN12Bvu4/uzBwutJvWqeJCQVH1KDsl2MNs+vWT5I+/yqD4y/pDT9eWRRcp84rwwotkzz1PVi8TnSGa5D6UDqzH/SM17TnuBKiJuBCYmdtIvPcudP2lTFdCECUbO3mdBSzaDA59yfDf/pE8fAHW4upeClbdqd9InRNIOlib6JBoAYfvTrH5+/cRN1+E09QcEmoCkfHTbC9QW06WNvhvOXma2eJWPCiaIlUMEmHBTaHb7ye75rZGvuKp1aDa6jtXpelsmanHagTNgQJVoVMfJX//efq7X2ZqMGI61CAlXsCFSXt9I4JDmpxy3S2Q726jvOF+fCeDWFLSY6Rdko/pKBW8yVmkhfiWiOSUNqd2NdSf03/0v9B99w2mtWQhfQNUHrRmhMeT7GMD4PEoQ9AyWXuGiFJzJLNMxxHFK8+iv/033NISZDmIYlVBHaLHd/SNIB7am75jUZjmBHGMXEWVlajWSLSUxTrcTT/DX34XZZGBC1hqMubWdtxfFwVCJFCzSJ3mWRkZUDLrP8e/8Aj2w71ko8a2UgIuJvOfllWIOUShsvtRswTD9fR2/A2j62481vql6Y4upFt5A8d1SW5pWZ12prScPAKCaYJ/B7i02IgBE7DAoLMJfvgLqg0bUITMt5L/E5MOUqIRGyOCgZgM/9AKBgcYvfEi/OF90BHgsLgkAZog1CgWS4ZLl9PWw9w6ilvvI2z5DrXLsCLpADSWk2i7RJ0MjkAec4zm4EZkRz7m4K9/if3i4yQNUMA4ojji+M5oJUhXAqF5UdP7HICIx3zxCaP/7z/jDu8Fk5xqzLi0cJz2V2mz/X+Cjp9l42KlEglaIyKo5Mhl12K33Q3FZgQF12+afU3ifI+YJvecRGaKo8Z89Dr7X36KPMTUgUo83lbpgBAm7d7yNKMOFejICEFZuuAiOt//BSabp8Yfe1dxWAyO8T47ifOnZS1oZ0rLN4Jmka5CTg+uuJr8+z9iGLoUPmLjxPnSnDFoE6zN7HmP0e6n8MMj4AukhsGENVGoiMkSPkIewWkOtgdbL6e4+Ycsz52P+C/J4iEAvPRAIlZbffCqqIdQUniDDV2oc3IFt2c35UP/zMzyPkT6DByUCDlN/Y4taUwnAUtFhnfjptKWDYufceDX/zfhyz+AWUZtSD0nMO2h7CRQISVF1FN4TycKUQ3l/CbyW78PF1yEAplaiBYMTJoYRgWwiqhhNjqGBqpCyY8us/jkU3SOHARKyBVvSaYGEydYXAMkEEKNqacZhB783f1w/kbygcG3z6/lG6BdwVu+ETyRrFJyhYPdjXD7fRQXXgPiGueCllNCHEJBPvyCwSsPYz58J0UIBgqGaz26r4UnZZRRkACooXI9fHcGbv05Yet12A4Ql0AMpS2SrlXL1f/H5zpSg9REBC9dsB2oPfPVUdj1DNXT/w5+gRFKTeO0Eg0VIf0uAHCUGIakxKzTGn73K8yu5yjqg2CrZDmoKw0nWlZDhYhJZgcaMB6EjIGbxl27HbZ/H9+ZAlJt59iqcbKO84kSkqVzJc2d0BBefoX87beZWz4CpgZb4834RqS1gDshJvn8U04Rrr0ZueN2QqcD4trQv+UboQ3+W74RBAtWcAojLIMtV2K//xNG3VnUtg2cThVRknViUbP+8OeEJx6HI58wsDVFNVkZ8Tje8Fc6wjYKAFMQNlzMxvt+wWDuPMg6BDFNQVuYzIjodGIh5J7aQmUEnxlSK9A+xdIBlnb+Ft5+iXW6SAErz/PY78MijXdUBPJqGf/Ks9Q7H2djuYCjWmk3atqM/8khikpsnG0iYCnp4i+8EnfPT6hmtxDzjGws1pZk1SgT6NaiSLLwUpjSiuLAJ5SvPEXnyAEcHqxHjUXUYKJr4/6TYGQDmA5+egvFj39BkW0hkFN1Yaq1SW35BmhX8pZvCDdOYTELlG4Wrt+Buf42hqa3tkObdCTiTYb4SL3reXj3GYrhIWBqrUf2tcgwWEwKhuxYH5xkJ5UBrvgu3R0/Z6m7lSCWXEeN9r9dplbDG6jt2O07EEySWGAsIPQOfMzCY7/FfPgORTVEG2mPIW+68abfS05kOizBx6/T/+3/S7ZwEGIkyXwKXHCNP3toi3pPQCpZSb+LlOjOKWfOp3vrfbB1G0rGuB1aKpswpFZNk4ej6U+S1ZijC4SdTyOfvJZu7JrOz+DIgyML6XagjTxWxyCMXId4+/eRK3eQhTkswmitB9Zy1tC+gi3fCAKNHrhmrkq+9YOLtpLffCdm3aY1Ht0EI4FgPc5PgRT0ZIGlx/4Zu+8zlvPJugDOMIgaMBEvHo/HkKxiLRXeTSH3/kcG591AxOFiP0nGpHWLWh2LxIyOh6L2FLECiQQyiAXdakhvz3voU4/BwifUlFRArlmyAlUgRjqxRo7s5ejTv2Hu41dBlWAzvBQQC/C26djt294dJyRiSD1OgoFoHN2Lr6C46wcM8pmm7sIj1ASgIpkpyARmdR3J/rl0NXz4Pu6VV8mHe4nO452lMhkSLVJbJKZmcKHN/q9KXgmjCy8g3n0XmdkMMcOi9PDpYN/S8hfSBv8t3wiGpomTJM/6DlBTwFXb6Vx7Oz7vUjUtygEGmUuLWJzA3e40ojI+VJEecqyY2rsX/+yj9OpDHKWGqODBE1A8qCdw5qllVvYsGWepFYuCQh4C6rrEDRdy3t/8T9Rz82luREXFrMiEV8xlTFM4MInR0jeMjeBio6GKCqrYCEZN805CPlhgtHsn+sbj5KN9qaN08+gUUFGkf4D6+cfJdr8GdR9MbBqzWZILkDIuOJFW/rM6wRAFSlMTxBFnt5Ld/zfEmXlqmkd5nEXqSiw8YUGxeA9BiAhh6QDh9efgD++CCQQxRAx/6kswYT4F3yI1apQgDkKOimGUh1TAX8zRveUu3JYtSVLVFOE7lDCB0rCWM492BW/5Rhh7DSMFFEIuMIeB+a2w4z44/zKCE9Dk+VKbLGV/ZNL8LU4vEoUsOAZ5jbc11AWmsiy8+gzmtV9RM4I6Qhh3eQwpY7vWA/8qGpmJw1GQYcnAOIgZTuBwBtx0IzN3/IjKbQAVROs/OslESXGuSts9GlIgaWNjjWrHtrGpCZAYJdgOGE++9AnLOx+EXa/S7S9TKuRVyUigrAb4N18gf/oheoe/INoOkRoXfSP18WCrdNLQbMXCsuWrcKAWK0JlZnD3/Ae49jb6NqM3tmoUB2Q4zDG5j5mwLTl6vCqdqqTY9SrxrSeBo0Tt4dSRh4iLTTWJTXM0zde1HviZQE2QSJAMgiOgjIwSEYaXb8Pd8D2cm0bzitqODROE4sxd3VsmiAlbaVomkksvw11/Ky7bhM8twZbM9YcUNQyKSVS5nl4kpmxZEEiNEyrc8ChfPvEIGw/sB1cxLMAiqTeAsUxcaGaThGmKRmN+8w8J19zJMMtAqmRUr5oCBwWjQiQj0kqCToSNhmDTjYn5/CDLjz0Oe9+jY0pEBNFlOnveon78MYaLexn1akzQcQlPyykQMo8Nnl6/y9S1t8L9dzEqMnqqZP7sCd5Km1O6Ctn/CfGZpwlLBxh2AsbbtizkhGS4YLBaE/M+LpZMD2E4fyHdHbdiN18CtkAlX8n1twFbyzdFO5davnXizHq4/T6qLVdTmy5ZjBCSfaOXiQtTTy8KhBT8ewPeRnAVs35A9tFH8ODDEBfpU6ZgTS3Vn7lqP9NRA0JNj+XU6Oi8a+je83cMNm5Gx1ufctwhwKRGOBNZInkaafpx1TbJUKaGJdPvvc/iI7/CjPYQradz4DNGj/yazodvkMU+lR37/rT8/+y9+5NdxZXv+VmZufc+z3roCXqAxBvEQwIJJIQwEgiMbfy43e6O233vjZieuD/Mj/MfdMyP8xfMDxMzMREdcXtm2rfnuts2fmDMy9j4wcMYN8ZgG4x5SVBSVZ1z9t6ZueaHfaqQfQ3CAlF1DvkhNqWqOKXIvZV75cqVa33XOSMVYJH53cjx+zg1dyHgsEGnKu/ltDV0R8vww4fJfvk0eRwS7FjKS6fnPs8LkkEULCXDYgCxwoUuevleuOEWKGYJtkU9TgVLAqmJj5Lk/CfOOxU51dbd2CPHqPMLocrA1fhCKepkzs6KRGxs2rgHJ2AUg6c/HMGPHkVffIYOJVabFKoVJc1JerJNJUikKQHIONXK4PK9zB84yqnWXJMahICGcZ1IxKhpZFAT781YWiWumPraQ7XM6JnHGTz4X7H1G/Cdb1A89X2EU1j19EuD2nFdReKcsJoxMl04eg+Ll1xNRUGrBFQZTfCqG2NEVVevmiH89iWqh+4HTmGo6dUWNaap1Um8J3pGs7xgPNEa2LSDzo23Mdq0k9oU+PEzXFGGan4x2bzEhye9nYnzjokwyjq09t+O3bUXXJ9hAbXWFNNzAn5+GHvxViH3DomOsJIXrMDii7z9nW/QWVyAWIOAI06W5w/ASnFpGxgfePQ6mL13Yi49wLJt4W0OZuXGAkLEpOji+zN+XG6cOkamwJCNfokT93+dl//5H1h++BuILuCziGgH8TnB6RnPOvHnMogZdu8tcMsRlooNzEAjm2qFMHlJeauIyB84/9vCCQb//A/ki7+jNkMgh8oSrBJtejffDyGOlTIMmW8z6m2mvmoPZs9+atqrARxLU08n4+BIctsSHwVpFiXOO84ECgXsPN277+O3s3PkrkM2rFLB79kQJbim0ZULFhszAgUqRZMnn79F/1e/hO89BupRaiw1in83XWYCsAQiGUqGVejoCGMq2H4tMzd9jtCdY2AcwVgwAfAgNUKaP++LACaSB8FGR50bqqLGaslFg5pN336QLm8T7TLqM2KcQW0bq3HcZC1xLtQX7CA7cpS44ULmvW3sX7tEDXR18utURMYbw69/k8XfPU1ZLJOJhdgGl4PUmHWnN7beCAQbUQqyao7TsxeQfeYeyvbs2Nn3ZPixJKwfO/4rXeESiQ9HmkWJ844nkEUP0cKll7Ph6N2YUQsXDN5Vq/KN/120OgUex1KfEdCxYEaT614bgxqHdyX5yZOUTz1F/dqvUcbymHh0ghZfO96orBwE5XGAaEWV5XDlPmauuwnNMlRXnoUDXXk2ifdDJUJsOkVX1lDlY7M/rOmcXqRiibIluGBBc4bOJgXVD4AaHdehNH8ONhBRQtZm9uZb4bJrENMbp/t4ThGb+T1Bjbl19WrqQEQZW5aK8s1X4F++TmEHDGzVqMCqZeRss3lMr+a7+Zd/6iLiJRLU4MwcFxy8i3L7DkaS0YqNFLKsiDbrH/2dicSHZLK6BCUmFIPaQLAlJW36B79E+fhLFG/9AOUNapsTRTDRkHvTeIC2cezsJzz6KFHI4zhNwDQLcL7ySAS8bsP5ZYqXH2XwxCbchs1oZyvG140a48QsFEWTDLEyXrsBaDqeVlvnMUfuo/P6b3AvnYCYQ+iCqSmzIZ1y8iOp541xg1mk+XO3PiN7uNN8IA89GDY/tpyi4wGK9dcoYp0xzDydsoCQMZhZxNsSoxtwVxymfeN90N3VPPsugGN2ZbmdsBr1mmZzbmtAHcNcmR29Sv7V/x3iy8wtAcyOndqSVgAmOLXpo+T9XqHaFKiWYIZw2W44eC8LbGeGiGiAM5XMJsaOJyaFFPlPnHeyMxoFFViYm6e45yin+/NkdZfce4oQMDTdbHFxXOSapufZaFUG7QnKAJ56Gn3uWUIcNY1jpuT1zkPEbduOOXSMcvayRvYoO02wJZ0yxS8Sa0Nn4CCDUb+m7SOzwww3v432wcNw4YVrPbyPDANYNeAcwxy6foQ++VMWfvkkmmpuzhkTPS3NGHbm4DN3w+xGNgfINRLT3ilxnpkO7yCxrhE1GBxgscFB1kZvuQHZcwDCRgggwWOp8DZQutikAX2yg/5nJzb6n4uZ4s2Izu9/TfzBw7g3f0ewMkWiEAHNu8i+u4jXHIGiB2YJqyWEtEom1ghvGWQwzGpMZSDbTL73MOzZT+3aaz26j4jYFJoGQyVQ4nGvvsTwew8yu3wCmRob8/HjQsRLTvvgHXDdTQxtG1OBDYEqLX6J80xy/hPnHx13dcRAhJFY3mhvon/4OGzaBWIhWiQokZrKhaahVbJ/74sK+EwpvGk6Zuoi8tyT8ORPiaMFVAMxxtVrUonW4G0buhfQvuOznNy1q+kyW4akKJJYO5wgRukNI9DH796DOXyUUWcjJk7HiZSiCApeCQQy/zaDJx6m88qLuNFSE4BIfCDOVElSVYgZg+27ccc/zbLM4xTIQI1QJNcscZ5JMyxx/lmNDjXSZgEw9GDnlXDbp1hs98C0ILhx/5tITIWcZ0UEyqKiqC0m5sQsYEdvUD7yTVovPwdhrPs/4UfzFQbEYIB48S46x+/jtLsQTI/KTVD1ZGKqqHLFlZ4stCjntuHu/DxLF15O0Gya+nghUVGJtOsl3LNPoM8+Dktv0RQVJc6VQWsDM3d+juHmS8hCQQYMHETjkJT3kzjPJOc/cd4JK86/Brz1WGCLB81mCQf3Y6+4lmVaEDKKYGmCuQFMknE8G1kswVjQdrMYuyFh4Zfwra8h5Qg4Q5ZvQrHYZv9oAWto7zmK3vYFTrg2rZjmSGJtyGNNFmFgc/T2o7DnMDb0KAA11VoP7yNB1IB3VHmEt14l//7DdH//PNgab/tTlFp4/hGR1QtgtP9muOpmCr8RqxAkYimbfiepQVriPJNmWOK8E4BG981ToVgPLEE0BQsXXkDnhn24/gYIDmppUlhkEhtVffzkvmKQGYK0MXXGIKsYmgV44oe8+qsXgaYr5yRvALLQNKiqZBkTPcgGZj//t5QX7YRqOpysxARS1lB74u6dtI7fRZV16YzASk09RTqXorCkJe+88Cz8/GkYLqCZMjIdkpH+84kxYrpdssOHoLsds9goF9cMKcY6sKP0WBPnmeT8J847jbKdAWnTISNzwBzYDLps4dSNnye79mpG/ZI6NxTDOfKyy+nuaG0Hvt5RAZ2hU3ssi+CETj3DxqoN2Wl2/m//C2bpSU64Go2C4kGHNJ0XJodgIyKQhy6VKTjZqalmLNs/8z/y5swB8At4U3HKOUp6ENqghipLKUGJD4fawfgPbUrnWC4C3tUQmm7Ur83tpPu3/zOn+ztQB7RByMlpreWw/0w8aL2q6Q9DiMugkUqEhcKz8fmnmH/w6+hogao7R6Cg599Orv9ZqKxDZIFgayrtIaUn5JbXjv9H8otvg04L5htRzxZdoIeDiZo9ickkOf+JNSVHme11MTfeAlsvJ/M5ZMtUeUV/lPTbPwyn69fQr36HCwYDhhYEhxcD6GpTrUmgcUia1va5gsEQyOCSy9ly8DBVex4kp+8DuS6jrkRNJPNp/iQ+HFHMakMmFyNZbBpdITDs9Lnw2L3Itt2Iunfl+yfOIzasyPYINMX0khOk6dHbP/Ua5TM/Zvm1VzDq361nmLj7/PgpQonSRdRQsAiZIVx8LRdcfT1FZ1oUoRKTSHL+E2uKxBokontuRq65Hc16YAaoKZE6GccPw6i7TPz2A/DUzxCt8EBTcRFhopqnNc3NUCBAC0ukBd0NcOQoy1fdxFC7mDogLFHmA2oLUhdrPfDEpKMyzsFWbAzkPmLUUbmC5b0H4dY7wfZwMW82BXgQT5ygzXUYX7LyjqlDJRsLMwywzz/Fmz9+mHY9gBiaNixqGu8hbQDen1BSSQ/FQjxNObMBe+PdyLbLUr1EYk1Jzn9ibTEQjKXOt1Lsv4uly64CcRRlJLhkHT8MmR9gdZH49X+m89pvqKnJkcahkcmRIxFo5AbHXWrzCEpGWfTRC3bSu+0z6KadjeMiFcFUzf1pMm+JD4sbCxZ4CAGCMCSj2rqD2bs+h27aSWVaTS/WGEFqmKikOgBDwLESFAgRfIQ8LpOf/DXVg/czc+oNTBw279i4+WJyXj8A0eM1I8QMMgdXXotcdxtVe6bZVCYSa0SafYk1JWII5ORR4KJL0EOHGfZ3QJ1RZuVaD2+imS0LYr6M+d2z1I98k6w8iSkDRPAT9Oqvit5ZDwasNHUkARjlPeSyvfRvOETV30g0LWw0iMZxkXkice6spLjoeC5Fcpb6m+kdvgt2X0Hp+iDgDGACCChmgt6uM1GQSEVzKwwWGDz2LfRXzzETS7ABjICO+4pM0OnGmiGWFp6AYXnzpRQ3HiNu3U6UlJKYWFsm00YlpggHZM2i6YSZ6w4zuvwgg84snXpxrQc30Zh6lpHx4N4kPvUg7umfQgxEkzOJr74KBOtBIjmwktTje9uR/bcSr7ieoZ2lqAuyCCFPBb+JD4coRBOpLWAsVdald81+uPEwwfUwNCdRzYfjOOafMWnvVzbur6ISCBZsrOAXT+EfuZ/CDxFCI+tvLWCbfcLEnXB8/IS8ha0XMHlBvOZO2HMr0Rry6Jmgw9fEFDJZFioxdRgdyzjaGsFDsZX5o/dxcn4WhstrPbwJp09eC4P2Au7t38Aj3ycuvEkpYCfpzD4aUKFGqVGUAOqxMdKK4K2FCy+mdeAQ+fx2xBdIhNqlk6PEh2QsM6uAN4bWBTvo3HiAwdadAOQamwC4eCoiHtN8O0GOnWFlvJGaSC3A4ine+vbXmDn5WpMNJFBagxfX/Mb480zQfa4FS1KAGdGan6V/y+dY6m3CUWHwqVwisaYk5z+xpqgELIEcUONYbDviRTvZceg+BvmVEAzDrEJtCXVgOct5p20g1KSV5yy4t8D0cKNd2ErQlx7E/PifaI9OMpQKj2dcBQzUeEo86/CpGkAMGZaMceRRmoJDIdDzNae7GyhvuYfqllup+xYokWCpHIwyKJ0BHHgH0TT5ymn1TchYMfc9LkpHlZcsZQPC7Ha4+Qtw9WECbez4xBLLeH4W5GTNojpBc0u0IkpJFdsQ2sz61+CB/4PNP/8Jg5aC841ajXc49WCGYCLEJMiAQOloaj1iDWoIklNZQ3AjZhcXead3CUvH/hou2kFXIYuCNxY/QXMkMX0k5z+xpihCFB2vtIYAaN5BDt3BYOdlqDPYoEjw4BpFijyYMxLBE+9NQMSBNiKEsVzgxDM/wr/4C3LGUfGxE7y+1fsMYBAMdvx15WeIgDQdgNV16d56nGrbVfi8i4sleQi4qAiRYOKqo5ZMX+KDUHdrOsuBfugQr9kDt9wCeZ8WcWyCVqRAm3nZXJNFLeP9v4ITj3n+F5z66WNoq6ZTjd8TFSTKH0UG0g4aGHekH88DiRgieQzYAHRmCNsvpXfgMN7ljaKqWASLpGeXWEPSCphYUxTTFJ+KIgoFlmA60J1h05f+khN5i1wLiEJwkbaPdEsIxqV152wEi1FFxRNtwBpFX3+F+olHyN5+HUOTy1xaqLFj5zpO1mMVA8bQxuMI0N9J997/zNuzFzXROB9xviKLNcHUVJlHTUSiWYdHHIn1xmLLQ9Uin72C9tF7GGzegmLI6neLgSedSEaUgkw85vTL1Pf/K7J0kje7wCAVpr4vCi4ANHYIUyMMaSSTMl7qzLHpS38L7VkqY1d7lhhicr4Sa0qaf4k1Z3UN1UgWxrrTnXm4eg/zB49Q0gJxeBuREKGO1DZFnc6Oa7S7pSYaQVWZGQyITz6O/vwpzHABFJoEKjOOWY419ScEpWm26qixwFI2C1ccZPORe1lu9ZoPBUE0EqWmtoHakBz/xFlRVeZHlmrTFrjjHti5h5I2pYVJekfOhh3bUfEn4bH7sb/+GcYPyFVWZT0T74VCVBSLNwYIoFWzEXB9Ntz9Bdh5GZXt4xmLwEo6M0msPenNTqwpTbKPASJIwJlGK6OWnGFrA+7Wu6kuvJSRa6MB0EbvPSbLeXakaehl1Tff4iiA7tKbLDz2HfjdC2TV4rjBz2QuRpHxgqoGweIdLOYGueUu5JrbGOYdMAUEhwsQJaImqZQk3htVXf0q9QYWDxwiHj2Glz4zK5nHoW4AACAASURBVB/K3GpX3EnHBWjVJeE3P4cnHkOGJ3EG5pcEUlr/ByCOY/njXFSJLLuc6qI9zB05Bq05ogjZ+JOKspq2mEisEWn2JdYUQ+PsK4B40IiLjQAoWLjwGnq3H2e5N08e8kZnOo9YVVL49v0JrtEndxqwalAtxvnuJe6lZ4k/eAgGb5PpeNkaR/kmyTVujs89UKAYGkXGAP15+vf+Twx37mIp60KwuGjJVvXJpydym/joONPxBxjsvpaNx7/EQrEZtTlWPQ6Px0xPkyat4eSrDB9/CH7/EoinqC0EqJJc7tmxniAGNGsEkEzGqbmN5Hd+jmp2M14ystjIqZpx7+epmTuJiSXNwMSaIgoy9jaVMFZNABcbHfflzkbkur3MX3Y1JmZgYDFfybNMvB+lZVxM7ZFoiRR4yVAb6VdLnPrpY5QvPkceq9X6acVM2JYqYqkJ0rjzBQMK3qbOcsrtV7Ph2F347jxoC7zDrTj/qQFY4j2QcUTfdjr4v/4i9Hcz61uMRAlS47QxPlMzg8KI8NxPcc/8jFKGiGZIlaO5QY1f69GtbwTUBFQEGw0EQxDLpj03wtX7qHCoCjY0a5olNE2SSaGrxNqSnP/E2tLk/dDIsBRNqoptfm7U0A4w3HoR5ua7YdMlTYFV9EQ1TGaiysdHHleKypq0KkNoagBwEJT5t9/gnQf+CbfwKwgeKoOGmppqTcf959CoqzTnRM0pksPQwpocdcD19zJ38HaqloAR3KBDMWgxzCti2gAkCAgDonaRMItSISyhpk/1ub+jddUByNpYmq7SzZmkbU6Y1nLYfybvbleGjKgZKTAE6pLqtWewP/gX3MJriNgmLcU26lguuLUc9rpHFajncGYZn70JGOKWvejBTxP6W8hoYUXGa5quqvxM0txJTCdpDibWHmny0YWCsZ7nqvyk0QFWenDJXuK+mwlZj/ZQUZMc/7PhAo083ziuL+PGWBIFnAWJ9P7tZ7z97a9CtdT07hGwExWTalz+8X4RIcfQx2BpCQzbF8Kh2/HXX0fl2qAWRAlp+iRWkIhV8AastUQ12P23Ijd/hpyZJr/fQYGMtf3dxNXINBYgEoiN87mSdn7qdQZPPAS/+QVWarIgIAa1HhvBxKSp/H6IgmiBxpI8loTeHPn+YxTb9lAbNw5GjJ1/I4DDMnnzJzF9JOc/sa5Rp+QVMLMBPXiIsP1SCC1yLUkHp+fOKHPghF6MZN97jPDMowzzJUpjyMP0yPu1fcXSzt24Y1+k3LKDslhm2B7QruxEdWFNnB8US2l6wAIhf5MqGk7tuonR5+4ja82c9fcnhhjxwICCQh1WoXKn4cWf4h77ATGkPMpzQgCzgHhB/CYGV++Dm/ZCzPGSnmli/ZKc/8S6RnwEY1hyBfHiK3E3HYGNW6DyEJP3dq5YL4wMQE3/9Ene+devICdfBCLKFB31x4qRbMBfeojebccZ9Fs4Vax3iKbY2ycdUYMNXbBDijggdjbTOfrXnN5+PdhirYf30WECglLgGnlcG8kWf8vid/4bvZNvAE2R88qV+IAIaLaMLXOYvxp7y3HC9t2QZU3fkempDElMGcn5T6xbmsK7nGXXmFBr5jAHj3Li6qvBzZIOTs+dzAPGstgzoCM2vfIS5Te+Rmf0NrWZIoWPds4mD0XRRw4cZuaaW8jqLkhG8v0TRMWNYOgE6hatvXdgrztMV7tT1UV8hGKikpcwEjCcpHrgflr/9hwwQET+4Ep8MFSVJRvBbaa87gDtPTej0qNqG1riJrDfc+KTQnL+E+sYA6ZAiLRoVIGq+a30bruL4aZdyXn7MEjTUE01gxZQLZA//SP0yR+SV8trPbqPDC+ABxsgbNqFvfmzsPNaqmyKPLvEhyCCKxm5DXDl7XDoONqfp1tDtNOTtqFoU+sToR2WcP/2E4YPfJMMD/kUnfR9zIgIKn38rsvIDx9BWzM4oATQpOWfWL+kmZlYtyiwaKETArkvKR0MpUVr917CgVvBTU9u+sdNKGpsiMwsF1RZTuwG7NuvUn3/IXjtd2s9vI+MQAZFDRKJsUD3HKH61F0wk7oXJUCNUucDOv1d6OHPopfuQRRUPEHKtR7eR0bbW2prWS5qeON3LP7j/83c6B0oDJWkjfC5I/RkE4PbD8Cu3ZjQdPntEKlMqkpLrF+S859Y10SA0Ej/RCIZQDZD7/Z7qHdeAVpAXRNsoHQrkZbUAOxs+JU3P0SMGobOINTw0nP4Hz8Ep99qaipqICojajx+sjqA0UiBVhLBBhywlLXIbzoCe48h9KiJlG4E0YMagjHNEVMq1psa1ChqdNUs1EYZuYjiEfUMelsprr8VueFGlvI2TkGsYCdteVRYUfQJK98rgAcctQjGn6D67tfo//pFVAKVVfJJu8+PmxX1OVuitiQioDloBBkQLtnPzP7DRNsC0+iOWU3PNLG+STM0sW4RYBaaY+msoIOhA5C3YMvl5Pf8DcvFZoiKaEVpaYpVY+rgejaKOmsecFHioqdb5WRYitFJ/E8fgJ//AIbDxvlXIVA1LsWEPdbGwBVUZHiJ9H2A1jbiHX8HO/cxsjlRRkAF0aGaEYxPTcCmiMYaSLNxHUt6jlxs/p3JcbvvhCOfou53aK3sboNFmLDToXEDO09o7iLCyi5g5CDzQ1o/fgh+9G2Iy9TONZKfIYwlK//09YlHm27OtS2pbYmoAZ+jItRzjuGn/x20tmHV4I3gcSCGXFNVWmL9kpz/xORy2T6yQ7cyzNuYWpipS2pXNY3C0tQ+Z+TEG4yeeBBO/IpTbaW00K3b5NFSTlimlT3jguYQCQOtLRvhi5+h7u+gPeqjVsCVOF9j1BEkzZ9pwUaLUQdZADug7UtmShjQY7Tjcrp33gEXXMiIgppxk8EMltZ64H8upgl+ODwWj1oIDkoyWlqRvfwr3n78UerRO5ApeQ0uCjph7/THjkYkQNQ+aIHoAFjknbxLdvOXmNl9GRgh/nGaT9o4JdYxaYVLTC6tzeR338vSxZc2q1wdiCagZtytKnFOFGGAff7HxKceQ6o3GUITLq3dpGX9IApWxxsAabr8BgPRwmjvPjYc+yK1bEJooaYCUyNqU3OjaUINoobKeTAl1COMb7FYbKV19PNw6ZUMbJ9AvrpJ9Eye71aNDzeazW5NoLkPABZPEB/9Jr2XXgAdUrrYvNPBUNpkK98X1eY0OXYgtoES7BC5ZA/c9jeQFwRrCGKJZ86a9FgT65jk/Ccmljo3DC7YxcZjnyUUGyAIEgNRgBS5PWeUkmz0DuHBb9F7/imUxUYRKEBngnsriDbqHNEagjMsMQd3HMfdcgxfdojBMGjFxllMWT9Th4qiImAKhnTZfMudsPd2RsUcQosuliIAAZw2U36SOHPKKkKlHjRQ1Evw7I+on/kBxfICuQRiKo364IydeFEDmoEtWOr0mb/rC9Rbr8TbgmiK8fOPyedPTATJQ0pMLGrA08Ncexi//zDDokvuDYSYcrY/BOpyIJK9/TLD+7/C/OlXWaKEHBhNVuw/yPgQaOz4r/ynCB0sC9055AtfRi7dh7c9vLXjSF8yjVODRMDjgiXQ5nR7A8OrriW/9y8JnY04hBaQRRpneDxf8gl0jAUgOgIZUWgc/988x+Dx78Lbv4O4RBYFwUJmQKAIE3ijHydCkyalJQZlIZuld+izcPk+lg2ARbA4BIdgJq0wKvGJJK1wiYnFxZKOCqPZHbhj9zDcshOpDYaamAzwOSN1gZo2WgzghZ/AN++nVy0ydDW0JisdpmZc57myAeDd0/hODFhywgW7sF/8S0a9TXQWA5iITpHG+ycdNQE1NdZnhDjHifntbPjyv4fZeaqs1aj7REAiwUUqGxuJ9glTbDHUWGogw2Mb8YPlk/CTB5AXniYTj7YEfCSvYbEwqI1I7c/6d3+S8VYYZRHRJYSK8sIr4chfUOezZICLzUmRVYM9I/I/FqlLJNYlk2XdEokzMERsqQTjqC66hA37b4W8h6ye046dPtGxdOMfeX+JP4kES5CcU3mgK0OGD34X/u15FM+iUXRlYzWWFtTVa33yB9pP2hg9AyA1/SCMxKFXXcbsbUdxbhaITWHweP405SPm3b9g3d7pJ5gVWRo943tp3nfVAIwgCDHfyCX3fBEu2s1S1sYYGs9fIipNc6YSqGDi7IRhBAQITa5/DCXxxV+w+NQPaA+XiKIMRUEtJjpqS5Mi6ZMbcOZ8+eMrYvAI6BByx9ZbjxM3XUqVtyjC6E+ahGQhEuud9NYnJpZF24aW0o3QyjcxOHCct/bdDBFM8FQWSmdQicAQpKQyjkrytR76ukbzZaJdpB264Nu0T7+O/j//J51XXyYSKYnN6hYAagLDd3XF1xktmmwlC6uLuQAOUOmAgS6eUWsTp+68l7duPwoxx5UZqgWDDAaZIdCGUAAepqj507SgMp6TPodgUPF4W4E6GuXWJRZ6fTh0N1x3D1W2lRZQxAgYEINg6GDoYyhg4px/GBEpYATtCronnsJ877/Se+NVQg5ODR3fBluACWwYVtgIFJN1mnc+UImoNJt+L4aAQzUHdWRe6VYwyvqEfQdh335OdVuNHYnSGBfDeL44wCA0P564KZT4xJCc/8TEkjE2rgJeHJ3N29l83U3UW3eBseQhkIWVxb0ALFY9tonrJd4DiQ4bclDbWIgssPD6Swwe+xazi29i0CYabkHHK59MaqGbRogGh6Xb3crm/XfgL78BzTOEklYoaYUaSzmODBqQibzT6UY8agOaCd4VVNaNC/9LEKHMtiBXXkP74M3Q65LreANopic9sGIGE4SyA7Y6iXv4cV7/9S/xTrF+He7M1xWGiMUoWI1YPEIJ1Ag13kC17Wrym+6BmS20aeYPtljbYScS50hy/hMTS7aS0CERL4Y668JVB6ivP0jZ6oB6bAxItARto2RYrbFar/XQ1zcq2GgRdU1GgK3ocprlH38Pnv4+OU3kuxKoxpGuiY0dSgSNOLVEnYWd1yFHPsPSBdsJRrExYEMJ6gkWKmvx4tZ61Ik/QjQAkcoYvHGgdlzA61HJqbfuoXfkGPXuHWiWrWp5VuvxuOoccbGgEijtEvziEfjed5n1A6LoujyVW1fouAGIKEIAXRFK9WACZbdPvvcYXHIQdX1a1OREquRBJSaUNHUTE8uKw6njqLOXHOZ30rr5Dvy2y6ilNTbiAcUSxAFx/LPE+xIcJlqiCJhALsvMnfo9+vC34bcvIPXyqo64TK7rP0abtG8jxM4mZO+ttPbfwmBmnhAZd4wOBBOJsloxkFhPBIPEiBAxEYoSpBJUDdXMVnr778ZcdSOn7AyVyLgQJE5c34r3Iy9hYKC9+ALl/f8Mi6/SrmuKKGnKnpXmAYnSnAZqDaqoQu1a2F1X0br+MIuz8838CY2MagojJSaVZBISk0sjyUEcJ5/YCNEUyK5raB+4i7dnL8BbQCsEJZI6/34gRMFUWAUTTdPtVpSsHsBvn2f00Ldg8Q1cHK4clgPj7rkTxErKGDaCAWPBW6h7G8gO30l9+T6GrQ1gihUNRYxGbIqirj+ihZCTRSWPZeOcRctyZzP2+pvhwG3E9kbsSiMvA5g4Xdagghk9yTv/3z9S/Po5cBWEpqrXuwl7OdcAMxYwWCFKRuW61HM7ad90HLZtfzdhNDpIinKJCWaqbF/ik4fSZGtmEfLY+K2jrIvZfzf17usJ7TbEZWysGCeww8RHqs8zxoOtEQ24aEAtwTSa4DIa4Z59An72I7J6gNUwVrswkxdFDaAYKiJBaiwrdSRKuXk3G+76MvWmy1DtoGJBIllUJKZFf90hBdiC2nqQZWCI7/Y5ffFVuLs+S9yyBdGC2aC4OE74F8gms1LlT9NaRB79Lr1HH4W4DNY0OeliVsWQEn+aFbGflfSooI46a7MkHTpX3AzXHaUqhJwBGQrSrCOO5bUcdiJxziTnPzEFRIhhJf0fsNRzW9lx5+eoLGBqoB47qDnjUq3EexBMIJi6Of4OBtQRxKLGgQbca6/w2pM/Yun1V8k0ri6YE+cS64qMXyCsFPfFmpySU9KHHVczf/Sz1KY1Tvehcfwn7kann2AzBs5Suoi6IeSBQafFtuOfobxoN4vGYYJgSoEQ8RIJmNVTq2ngrdHLLH/jfjqnl1A3guiobEZlDaltxQdkbMvEWEoyepu3wU23U/Y3AjVtFjDRjz/ncIzWcLCJxLlj//7v//7v13oQicQ5IU2+uZCBMY1Pb8exfa8Mt24lDLoUP3sFbb9CmS/i/CZibGOSXON7YqLDxGyc/hMwKtjoEJVmdxWGdE69inYg23Yp6DwE4VS2SIcJUr8wK2dBOXZFEFQskNOtAotFi8XdVyGlpfWLf8PWC6gDLxlqmybAK5eIIlTjfhJpc/lxY0KLaJfJeB07MMCVVJ//z9hb70alQ1eyJq8rM2ANjbDn5DX9eBPoVh50iSVjKLEUI4Xy93T/r/8V+8JPkMIBbRDB4rEak0DVWYmgOSPX4XTb09J3aGkHvfs/sXzbp+kasGMhWMSu6ngaOms98ETinJiesEcicQajTGiPYOZTR3nr6l2In6NTZUQWcQzXeniTiwCFw3vP6PGfwLPPUNohC23Y6Kenf0LIAl2FjZWld+89DPbfAHkX8YIxitXxFZuSgUYtJJ0qrRVlNsCKJ/MdQmsDi7cdoH/7YYIImU6P57slNq0M1BW0cGQA+g6DHz7M6MUXsdaimnJ8/myioKYi2iU2jDxSb2R5z36yw4dph9QBOTF9JOc/MZXU0FRv9udo//XfMOjsRuo+mS6BSXma50oUobSWQoT5N9/AP/Qt6hO/oGYE1QRF/c/CSCKmDkgNoTdH56++zOLFV4AtMMGvNIVFVMeXQcnQSTr5mCKCGeBCgKrHyav30fmrv2LQnQPNmSLfHyoYYFigwEWhVS0TX34a/f6DmOUlYoyISNoA/NkYkJpCT0EdGc1cTvcL/wPVzDx2inpBJBIrJOc/MZVkgOYWn3exl95A+1P3QZhv5NtcSvn5UKiFEIAB/rfP4B78FptPvcVyx6Oqf3BNKhnSBPEzqCkYbr2c7n1fYmnzDkRbTc5v1KbWZLXmwYwVpRIfN22v4B3ljquZu+9vGM5cTMe3KDDU05TzYmvaY3HdSko48Vv8ow9QvPIcWWi0aCb5vVsrggPRiC0jdWeG9p33wfYbGNChmqLpk0iskJz/xFTSUhjkEBEKM48cvgOu2gfSppwmZ+BjRkTIVUEzyCN5PEXr4QfhiceoWJgKxx8gjxnBCGXezKXILOWem+nd9mnqzoXUUowVgKCpAG4qKif7ricXiW18fzvFnZ8n7LqeNl2oGBd1T8/7XmdKVgv9ALY8gT7zKPnTP8JVp1Bp3s+VK/HB8TZAFNB5ymsPwKeOEK1QANUUzZ9EYoXk/CemFiGSU2M8+M3b4OgdLG7cifGttR7axCI0aS5YSyDHxBpGb7D00FeZ/+3zaz28j5AV0zgE8eTRIXIh3HQX9sZbKYsepc1QMSDjTqCyUvCb+LgZtDdiDt8Ne48QzYamF0Neg20qMaaFGhqhg2qA/dVzLP/oATj9+loPa+LJfE0tOcsXXE3v9s8zmpmhNB6n0G4qKxKJqSI5/4mpxAt0NAIVmIDTNsvXXUN370Hy2F3r4U0wETWe0jpsnUE0jNpLLJ3+LfzDVyjL6UipCgZsNBSUjBihQGtkYcMlmCO309uxm8rkeCOAgkQMipCKA9eC4trrMEeO4WcvpBsExPOOKynF46bon6RQx5KLcPok+vBjuFdfpM5K1GRMV3HDx4vxEZ+1KI7cAzuuB2CZ04jUZEkfIjGFJOc/MbWoGAIF3jTpGd1iO2H/XxAuuQnCkMVCCRoheEZ5jTcG6mmKE54H1CDqyGMF1oPNyUOPTaMSfv047a/9F2pOMDIQJLLMMlAyaR3AzOr/emS0cAK0QXPFX3Ij8e7/QH/jdrLgIWYw6iM1jFzyFM4bMW9OWkwNfgijQKVtli69AXv0i+iFV2CcoFnTvK1LC4eZvJ5+sclYqqgB37w7EaDmLTH0Fn4Hj32V6tmHkahEaSEoBlbFS//4SoDakuVCCZLDUCCWnO76plN83IRedRh3wz6Gc7NYumyig1MltlMyX2L6SM5/YiqxNAWYiqPpAQyQkW3bjb3pZvzsVjo1RIb4LNKqM1wEsikKE54XBFTO6BgqGHW4AGjN0g++TfGLXwDNCUA3Ns9/0njXYXJYHEZo2gCIYGyOueZa5LYjjPqbAIMWJT4LdP3k3evEEIUgsJzXzXvqLHHjNnqHj8Fl1yCmwCCIgGDIcU0TrwnzflUai2WIoK4pJBEoEWYZwu9/w8Ij36SolrEIIu7de9T3uT7hiDayvCqRxthHitITRai2bKVz4FbYtA3FYtWCdyAGnx5eYgpJK1ViKhEFq+O+Xyu22wBFBvuPUF9zBFtFMlMRrIWqDREGRYrcfhjs4q/gn75C5+TvEQ0wLJriYDM9/ocJntBq4++6j/LGOym7XZZbS9SmglGS+jxvqGIJRIGl3LE4O4u98Wa46XaG2XSk8imRKOCom44R2ohrjQQqDO2F3/Ha1/9fWsvvQPC4qJhoxrUnaz36dY4aWnVTC+ZbQIRi0TAsWoT9N8I116J5DzAYVVYiHJrcpMQUkmZ1YrpZseFGiAY0E8LGi8gO3ku4+DJQS1EJ6hy1VWxMkf8PRb4AL/8cvvEN7OBt6DRSmF5Ap8X9l4iSsZRvZ/Yz/56ly67AobRHgKa0sfOGK5Eq0F90qJlnsHcf2fFPM2xfgGOaivhrIDaFJwqecW89luBb/wIvPksrDCBWq3n+UZIW/VmJpjFERJbyuukKHwrsrisoDt2Kzl/I0ORN077YnAxMicVKJP47kvOfmE7OjIKJYIxBjCGK4A24K6+n2n8bWmyD2jLIRpRZoKgmLUF4fTE0AeJb8MNHqJ99gpOySIyBME1dMq3BYZmNUG2+mI2f/2uK/uXALFqk+XO+GGV148CNZmht2cOG4/exuOki8piR1Ws9uo8SafLQx+XjEpVieBJ55glOP3A/G8OwUZayBjDvnmwm3h8BUKyCiTRF0hfsoLXvNrj4KoZ0MIAzNMfFthGJTW90YhpJzn9iKgn8kfiFvvslU/B5RvvgfSxdcgiynEIXyKIH2h//YKeIvJrBmxJO/Yry0ftpvfICxpdNnu3UYGDc4ddjYNd+5DN/x2jDNhazCatsniCEiGYZYetusjv/HWbnPjzdxjmbmpQXg2mSFcEYggnYeApefZ7TX/1HZqpl8lg3ewPjQB2ihqYieJresfOA0OSBqtKrDEvtLkvXXw97b8czi6VpDtnMpxIIoK4pD0gkpozk/CemksC7mtgrrKpfyABHhP4ldO/8Iu9s6uEGpyhKZdkl5//D0FuaI1qh7C/Qe+HndL/9Q1h6p/GUp8U50UZBJriaHBjoPNxyN9ndx6CVTOr5oqgDC/Ntqi/eRdx7gFpn6KohuhJ11VoP76NFHSqGWmp08DbD7z/Axl//HGJAJVJaKK2gIqDvShok3huVSOUiaMRUFtm8leLoEUbzO3Axp1CwAcDjCY1ob4Sk3puYRtJKlZhK7PhS+IMNgGGlgMs0UaA911Mc+RLIToiKMW8TDHg7/r3V5q1KsCmqe1YkEqXVbLxGr8GT34KfPU5rMGQRoKqhUobERg9oUvcE0uQDOyJWYFh0sYfvo771L/CuhXc1mBGgEArANT9LvD8yoHQGL23wQjRDvB1CqQyyXXRuvY/89k+x0O3hgNwDYghTEvpXApEhlCA1tOpTjJ78HvGZJ6AswUREDS44rIIQQCIyoapaHzUq7335OE7giRFam+kc+gKjS24imgwTAeLqIxQKhKL5PuX9JKaQZC0SU8mK87/qEsi7X4QcJAMHmrfpHLqX5asOQl7QjlXTrEnPKE/VP/iSeD+yCsSRxXaTNzt8lYXHvg2vvEhGDWMVjWqlmG4SZQgFwODIAENGpIgQutvpH/kSbs9NDMkaJyMoaiEIuDCJu5yPFx03V7PRgIkY9TgVcG3svk9RHLqX0s1jMbjxvDFkyBR5aBLrJik9lOgvf0792Pdov/U6FPk4WV1wwTbyunggNpJAqcnX++LEkFdKtC3K627EHDiOME8hsekdsaqY5LAUWDJS0n9iWknOf+ITR5Mj22ADMDNP98uf5bWZTVD2EO+x0TdRNRtgnMftYnpdzs4QQVEtQDpoiFSvvsDwka/TOXGK2la8k0VyHK1IIwFqIzqR4f8/RETIN22G45/Hbd8DdQeIDPOSYOtxHlri/Ri4Nq6OCMtoVoG3aN3hnb3XUtx1N8xvRWiRYVcbx+kUqbKIGkzos1gE6tO/JTzyEP1f/wZjPMsmTaAPgwQP0XF6djPFfZ/D9zfQG4HEQGmmZQYlEh+M5M0kPnnoGV8D+Cxn8YrL2Hrn50E3jzs+Angq5yldJBggpsjaWdESFyBS4MkRY9hULeN/+j145GEyM2SRigya5qUCFZE4wc6/6ruOQ50V+MsP0L7ji5RbdhNtRhFq8ujH6iyJ98P5oolumxESAsQ25QWX0zn+WeJFu6nbcwQyWkFW08XixOaO/Wm8CNSnGP34e7Se/AGmPEXIPK2QHNQPRTCMJGPuvr9ktOsqatfI8qpMz+YxkfigpNUo8cnjj3z4SnJOswFz851w2Y2UrtWkBalBouLN+ER9evyL84dEjAo2WKJkIB4TB/SHp1h+4L/Byz9nhgG2bgo0m6yfyV56rbUYYzDGYLEEMwM3HSHccZzF/iZsaSAEFlMt+VkphoalTqR0AeoW5dxF2OP3UlxxI8N8jgpLC9MsXIZmo4BOdMa/qqKqxBgJGkFLOs8/i3v4u7B8gtCOjJzBVpP9nnzcrDzTGON4g97C33gz3H4HUefIgaoFmGZOJRKfJNKMT3zyOFN20gEYunRgZjvcczfvbNrKwHTB52RqJ9qx+NiR6LgYvAAAIABJREFUAhnL4xk8wcTVnNli6SVOfOW/MHfyVYSq0dWj+SeYFkMkCkWA5e5GssP3INcfpm7NgM2JKSf7AxBRH4gUlL0L0EPHsQfuQN0GDEIGTa6/AC6CjSvl+1OBk4h743mq7/4r7ddeBOcprcPGjBR9ODeMMYgI72zZTu+zX2bRbiH3TX+Emgg4iG6th5lIfKxMi81MJD4wngjSFMpVY9GfuSoH22dw/TXMHzhEmfUhFuBXdJ7jFGmJnz+8yWkaDwVEarxVKuvAtHD5O/SffRq++QD4ZQbS7Asc0/NohQiUiAo6ezEzxz7N6asvZ5jnzA5S5eDZKDue/kjJfYvqhv1kn/o0vred6DNaquQr3VeNx0ugotkJyAQvZWemjYXlJXjkO/DcjyEbUOdKu+rQGuWEzhoOcoJRVcRa7L2fhguuoj/qjIvwa7qUTZO0aTFAicQHZHItZiJxzqzquaFEDAq+Ecwo23MUe4/Q331p0w3MCiZm2GghSTWeHbX/P3v39WzHcSd4/vvLzKo65joYgiAMPUUjeoKeFAFagUYaUaZ7Z9rsxHbE7k50TMT+B73v+9oR+zi9G9szO1K3uilDUWSTEiUaiWRLIqWWoSSKokQPc905p6oy8zcPee4FpG7R4BK4uIf5iTgECAJg3XNPVf0y62dYaY5tNCIqgCGIIUSliiMGTz3M8PkngeXUQtsLBIVxd22PHxcAb7ydTpUIrqEXU7Mjdl7Ilts/hd96OngH2qBGUw2JmtU2sqOyRT8URYfjRC+jeAvBmNXASwVUl8BUxF3nM73vTuKOnSm0Nw5RQOPqk7s47t21MeO2SKClIVW916JEFtEfPkv95MN06gVaUYIpVvYpGLl8u34vGmuIYkAUQwCt4OI9mCuuhc4c47ecQFyt/wob80OUZccsX02yDx2XhriDGCoMDoEeiECfCr/zCtxVexieNs1yARJLBPA2B//vxsXxVByJSCwo24rSC5YhDXNAQ2/hJfw/fQH34vNEDQR1aQGA0qLUaCri3JAtVi1BOrDS/7/ow3n7mN73OQZbtkMMBImMTFoUEdN01saFDbjUOUYxpkJvkxaFaVxtagHb8S0Hd56O3vtZOOcSFIMxqQsjRlLRtHGAoxy/Nlzi2HgRY/EYIlHSWCn36r9gvvw3VIO3EGMoYo9OK+BqKBr6dX5y9G6igOJQHOCRCGbbuYz2fo7u3LlgHfRSxmFJBdIFyd08sw+fDXTFzLLjz8WIMQ4uvZby/JupZBq1yzSuxo2q9T68Da0wbSqklh7x1d+w/OSXqd76CZGWUDg8BVBQUGDVpflYRDZWWGxSf3DSDnULzFcGrrkGvfsTUGxGo8NGz7Ac0PRqEMPMUgf7YekmZdJtx2mgjDWEFqJH8Lw+exabb9pPef6VNLaLYidveq0A4sBXuJGjEZg69CZ8/h8YvvXieh/dhjZy0Bl5LDVGIfbnqG+6ls6ui7Hk63eWrcjBf5YdRYh4A8unnI29Zj9x++lE02J1/Pg4O2YmjIi2BOkwO5yneuExwncexI4WqE0aVwTjOuAAqMETU43GBuIhXVmlxjEiYBj0ttG56R646Q6WzDSdYCh9g7ct3gi03Y32iOPYiBBM2mctowffgnoQw8g6urd8BvbcSdvbxoASxYzrKCbH6lw7SQVHneYQ/NND8L2nsXZ+nY9uY0v5+23q6U+Jv+Cj1NdeD90teQhalh0lB/9ZdhQ1groCi4OzL6G8ZR++nMH6krrIp8taGCCIwYsB39I78DrD575F+/Nn6dTLKQUigo6HN23EZO4INICKAi09jcxpSUc72O522H8v1eU3EkIX2zi6o/Rkw5e6wRtWvndBTMrfjzFNfMZxuOjRueJGZm/9JDq3i6F1pMSo1MpzkniNhBZqoxxyC5jnvwMPfxXMIZoyvPtfkP1BnWFkuRfTQL1Nu9Eb98Ep51C7HPtn2dFyNJNlR1EEC3QCjMoCrt9HecE+ArMMTb4xr00HEQU3SvnbsUB+8yr1t76KefVnlPUCHWlS7e/4ymQhFWRvIGl23MoEKotpwbRAhMPbzqV31yfgrEuBTUjoYoIyqOpULPwhYDQeSeWxHRY7mxmdewXc++9hZguNNVigAsrxGN8gk7UEECLoCL/wSxa+9nmYf4lB2aKhs96HtrEFYdFa6k3b4KPXYT96IwUzqIPwoSioz7L3Jgf/WXYUi0mtPW1EiLTlabh7/mde27KL2ZiD/zXRDpYWzBLRGlQ20Y8lUz98Ep57HJbmMWFE45rUDWfchrXYQDviFkgdGSMBC6Zgpb48OA/MwO7zsPd9krd3nkHQiiIoXb+M8OH4fAlhnMpjGEnJ8JTT2f6J/8jw1EtgXKpZAR0ixJQMNl47TYxWAtXCIbpf+BLd374As4cxOGaXtq73oW1spTAXOry9fSfc+yms20G3FYTDKM16H12WnTRy8J9lR1MggmdIScCEEnacza6770G0BDyKoirjybTjV+o6mL2jcbtG8TTWUds+BIsZHOLNpx8j/PwFCCNkHAZvzOyfiASPBTwOL4bgoDawTM1cA4NiCr3kErbe9XHqzdshQtHU6esU/vVnSVInnA1DxikWctT5sbJvHxUlpEheHTJ3KtvuvA92ns0B109dcHQ8yCsEVkL+jRf4R3T8Sv+qEHX1V4kN9XefYeqp71PUB3l72tPxJYxyM/93duR6u/IZ03FqmKKMikin6bHzrnsZnLIrtUlVKKhxH5LFdZa9Fzn4z7KjSURdC/QJFIgNwAj23MwP7vwsag/TUtAwR8CBWQZTo7G/3kd+8pNlUItr5uh4Q4d5cAOo5th24GcsPvq3+Ndep9c6Slpalhkh6IaavmnAOoQuFRUOVlNYZuiDa3HiqMsdcNVd2JvvYWluJ9AhiqG2htqUoCXjYQA0NqZJyRtEbQ1LhQMiaA3UaahedBBKvFsEX6CdM3C3/TuGN1zH4akpdrWAVEcWP7YA0wcKemzEdowxhZsRGAFexj+M6Lz4HeIzX4T4MzCGqeUtjIoO2l1a1yPeEIJHcQxdSWNBpCa1Fy5AGob79sOFn8HTI1QeyiUMW1h5JpdlWQ7+s+z3xNXYIwJBLVBAZ4rLPnYXwx2XUluhCgdTJxcpCFIg1JOVlHyCqasoXvoN7YNfhIVfo0An9OlEi5+gXN1lI5RAxwOdGarrr0GuuIpYbsf4SOVrqjgEqcGmnUobDUY3zqW6jIGeH8/EMAWNKxgVhrqqCdWATt1jOLOZ8LEbsNddT3CzdPWodk8TYKXmw42/b22pxFLpNS39377K8lPfIPzm12nwm+9Q+IKOD0gYrudhbwyS3lOrEesbiAHE0IqlPuMKujffjpZpsWgJ43+6Dfj0KMuOn41zR8myE2jlxAgCwXTSMJgtp9Pb+ycMp2fBLQFDglQEKqAmR//HzmPoNwPK575O8+SXkWGdgkEFYXKGq3nMauZCsBX1aWfQv2U/wwtvAFeNO+C0IDVqPGrARotsoBkAEiM2NqgYGlOgFJhoEFqiNOC2EC69CrnlNgabz8TQpwgGzOQEvoFx5pZPP5l3hgENLByAp57CvPAdpkaL4wFnU5hYQGxBJ+c9OG7GcyLKELEqgKVRS5jawuz+P4VtZ9CaNEcifQNMTvjJst+Tg/8s+x3plBBiatUOeAOt6RDLPnx0L3NXXM/QWUAw0aUbuJmgbct1YKMDM8LGNxg8/iDhB/9MEGitn6g9uykMQaAuYGgAurDrIjp3fQLdfTa1lOPgJtLaNA2YuDIFd6OIIEprQMVQNZZyaChrg6XL/EcuZeqWjxO3n43Ril4LYoX5SRyjsVLqgMeFg/Cz51l++hG6y2+mpzsOGlfQGAc2pmm+2R8mkl5ERNMUcLUd5jtzdK+9DS64gdiZJRooJBWVb8SEsSw73jbSHSXLToxxQ2g7fsn4l1qEenor5TW30p59OUt2GhehUE8wZqNVpp5UDEpdWnxlmHv7TQ489N+p3/oREpdJvT8ng23TrvCI9HEpQwG2S7zwYmT/pziw7WxGTBE11TnElVz/jfQWiAGxRBOx6qGN0DpC6NJuPYupj38GzryIqN2U/hQBgTqNd5sIZuWfqWyDLTqi85tfMf/YFykPvAR41Cl1Cd7GNP/CGHRy3oLjRlmpf1cQw6LrUV5wFVy9l7ozhUcoAIOQRga68b9nWbYinw9Z9jvGfRlJu/+OSEHEEjEEojOw82LK6+5nNLMbYovEmoEr8hCZtZCIaIFrZyAE5n77PIMH/xY3f4CJ2rkrIiWRKTwVLd4GvLWI6aCX38S2u/+IpepUonYBGU+C9bCRZgBES4piY6qFsQ10S17ftIPq3s9hz92Dd3MAqIlQpIXQHBupsPudOcbZXeOf2MPLLDz4Vdwrz1PIAlDRGoNKpIyBbvCICkHK9T3wk95K56sIKnhbUm86hdmbbsfvvACrUJLqAcARcOPFgp+4SdFZthY5+M+yf4sCGoGA0GJpU/GYtMz3N9H56C1sveDq1Ic81ngp8wjJNWhsoKxLGE6DCGXzJlu+910OP/kUTZicm/YCEXzADgMuBpYJjIi4Rnmt3IbbczNbb7gDpHOkyHejXaXVgS9TjGZqKDyHCjj1E/vh6muIpodQ4I2yYBsGJj0OKSep0Y2mQRU1QIT4xHepn/8+/fotYAixC2oogseFBmkD1hsk5q3/d7PaQRYItuCUK6+FMy/grU6FU4Xg07Vbj7QLTl2ncuZ/lq2wf/VXf/VX630QWXZSEca5pSv5og5wCJYiWsRA7DmY6/PmW/OwcJDZ5gDeFHgrRDHYaFOrRjHURdrDnaCmNR84Gw1IANeAAW8LhjJk6sCPcdss9fZzcUslrcCybah0GUJBY2RDPReoMGAsFA7E0cFRYsEK096wWE2hl+xmfmnA9E/ewC3VUC2hooi61TSSVFGqjKpIYzUVzJ5IcXwckj7m0aS1rwFUAmoU5yHEHm+Wc3Rv/zSdu/6UN4tTmbJpwHNJ+voLbPqDG23TO0IjsEykRrEoRlNk2mAYCPTi28hPvs3C//vXbB4cTDn+pcVGHXdxcuO2pgFEN1RXp+NmtYf/v34FYMmVGBlhfQEX7GX5vj9lceuZnDqMaKGIcePUsyNpm0jJRD1BzLI1yleaLHuPlAgujnu3V9id57HlyqtpNm0FdRTBU4WA1ZAKgG0cp7OYHPi/G4HVCmsBo2CDsnxonsOPP0n5q5+gVYMITFHgpSA4KCfnoQAIpN44PU7Zew9ceTV+aoaoJd4Y6jIwcop34ylYApU3dP06XMZ/bxiZaPqepe5MBaIGYRFfeDpX7mXqjj8hmA5bWT7xx3q8SFqv9DD0Mamt53jHX4AZXyOvvMIrD3weJwtpYSsmFbdnx0gpQ03hS4an7sDdeB3Ts9vZEiB2fH74mmXvUQ7+s+x9aGixMW3UBTdHcfWNuPMvhc5WiALBY7UhmIB3AW/Ga4D1PvCTXJD0WtnxExFchE4Uqh+/SHj8YZrBr8AEjBc83dQAdIKC/2gDhQZM7MHm3bD/buYvvpiRmwNN+eHReBrnqQuPmoh4QcI6fLrGce7K/9qMh1ynCdmCIKhzFBdewqb9f8TC7CZaW2D8BLWylAgacQHsuC2tGvACTj28/Tr+6w8x95sXqfQwvhyhWKyfxLZGJ4YVoeMDbdGHq2+CS68GekgDizI5LYGz7HjLwX+WvQ8ev5p2MbTCcG47MzfewWjbueCKFL1GEG3x1hNMxB6Vo5r9YSrj9dM4oHQIhVe6gyX0uSfQ7z1BrF8jGugEqFTwrlnfg/4AhfHCUqJj2JllcM5FzN5+N7r7QkT7dBpHbwS9Nj1RalZbUa3DsY7TfVaoKqorW/81wcDwnBtwd/wZbN+ZHuwoIDMn/mCPk5rxYnWc/tSa8SBfArL0Fjz7TdrvP8308kGcDvDGE8WA5vST9+PIZ2vlFzqMLriY6rp9hN6pKYesUPKSKsveuxz8Z9n7YDCrKSoCNFRwxkV0rt/P4enNeNuFWGI09aLWlc4U2TsyK008jiIi4zaQkeLwG8RvPEx86XuozkMN0irLE7SqEmT1ihyBoZvBnXMZ/ZvuQbedDb4LoxJGggvjANyyrldxM073UdXxXAZoCqHdfRadfX9Ge+4tRFcwzUEK8SzbjZbY/4c1kJ4+mTQLZAAEajp+EX76z8w/+yjd+u00tC2CW5nX8Psf9Ow9UVUiQti8i+KmfcQd52KDI5RQO6WDGydcZVn2bnLwn2XvQ0EBJoKDEqWjCsUcXHc77oo9HCj7EEtoHUVg3F4u5p3/dyExpUet1EZEGb9lK3nlJtJ55UVGj34N++bL4CJqzYarEX0nQioQx6Rc8i6W2JmDy66l+NitHDrlVCimQAvMOA0orFMxidEj6WwrsWwwMDLK4JTtVB+7D3PhHkaVI+UIBWTCuq1YoMCsdJ1EGTGlC/DSzwlPPEr5xos0dgilA+3i2gKrEc0DAY9JjJFgLcs33kznguuRODu+rHogkIckZNl7l4P/LHuPBINVhyfgWaZgicpHPBWH5jYxtXcf7rTTIRTgDTaacfCfI/93NX5AsrJvt5IChEA0htYoJg6ZeuGHHPrGY8yXAw7bSLeenBQKszLkyniK0NJrPMSKpdlTaG/Yg9t7HQsz0+AqoqQ9TrtOHy85qt36kbaLgul3mLt2H/GqO4n9ko5CpATZBECfycnL7pJGMBDAqVLSwMGD+Ke/g/zkh3T9AoOiZb4sIfagTbMPWjtZi6ATQUQIIVDu2IHecRvYU7EN1A4sNZV6vBg0hzRZ9p7kMyXL3g8Bi8VSoXTAOYxVpoDl029ny+2fZTClNFMRL13Kuo8aj+Yb/jszrLaxtAouph8BhBYxnmgNrl5k9ptfZvahL7DJH+TVSvC0NIy7eGsNcQhERuv1tRyjtPAZvxHGQGEQa+gYw3DmEvo3/THmuss5VEbsqEd3eSqlQth/4yv9vW48Hzyfcl58Re0Ua5bpxBJz9WeIH/sTZGYLYgwOxaAojjRtdXLSMhY5SOsCjMAHYcAC/POjuKe/gmkOgjqmRo5+w+rTQlCKnAX4zlQRAkFc6holNTJUrN1N8x/+kt7MR6BjocN4hFcFUuRGnln2PuTgP8veJ8EgqRwVxGLG4+QlCFx0Gb2b99FolR7x2+bILmn23ujvvkQEESGaAqxg2nne+NIX4KWf0mNpPH95HPyLgZVUqw3LgFgQm7oeIfSCYvpbmbr9j/AXXIt3goQlnEbadZgKG1DqTqTp1lS1gu+jl15D9+P3Us9uxiDI+PhNqmbg6OnZk6CLwwVL00/n99bnf8rSY49Cc4iUC2RxanAr/SdTw3kkTs4C6LiQiErEasTbgCg0pcPd/0nKXZdSUKUiX5OaAhyZwzJJS8ssO75y8J9lH5BeHVie3Qx3/DHdHRcj4mmLJfDxd1ujZO+PWkysCFKM38aaGX+Yl7/wX5h74zeU4zK/lIFRgDhQmKQMYBeXQAyjbR/llD/5Pxjt2gGyBChWy5RzftTreDNSMOx6RsV8anG5/Srs5/53Dm3agf+QpLkVozmkhdec4hZ/Af//A0z99jUarclh6LHzxqT5iFoTTESlw1uXXER738eh2breh5dlEyFHJFn2AYm2ppUezdwF2Ds+xfL0FIVXUhiaT7U1UQdqURGQQDfMM/Pyv8BX/g4W5qlCCrdaGO+a62ra0ESQkiCOWkC37mDqP/wnFs6+nIDBhVFqkYoSSG0RFY48PTkehxMNU0seo5HFc3Yjf/Gfqbecj2WKzocl8I0w6CizvEr95f8Kv/weMMTKh+TrP05MVEwYD7FrLMNNOzjl03/Mm2whL6qy7IORI5Is+4A0Vcm0ApWByy+nf8NtiN1MKCuCyzetYyaAxNRdRs14uFLLpnZA+MF3aJ98EA6/RdnGlREMJ2b7+wRqXIVayyw1GKU9Zw9Tn/xfGZ56JmoiwayMmFBOSFZJsLh2GjtzLr0/+XOWz70QB8w0UOiH5LZiIHCYqW9/Hb71MPXsMnU3fU5znt+xMx6MF1pxYLbSu+lu4q5LOUX7TFR7ryxbRx+Sq3SWHX+CSe0qgWH/FLjyLvTc62hsh42dg76+VAJIjVPFBgPY8Qagxy4eoHn6K/Dz72CbwxQEWGmZOUHx12pzyOiJGBbdFHLRHqbu+BSLW3YTBfyJCvyB2ih+6+l07/hzhufcwDIOGxi/5x+S24pdpvrpM4z+7r9RDQ8wKjxBxmWnk7X2PPHEsui6cOmVcPUdRDmNsoWmGqz3kWXZRPiQXKWz7PirvEFtS6BGKNFdlyE33EY5M4eNExSJnmjiQVqIHqIBdXjrUOMAT/+1H7L83UfgzV9iGKFEJu3SVlFjiaj08RQUDIidAJfvZeb6eyk6FWJNGox2AsQtM5g7biVccxdF2M62ABRDmqqllsl67/+Q8PYv0L9/gKm3XoNOYHbZ0atLgpFJe/B0QqkVvLVMnbqb5raPUZ96DpWH6DyRA+t9eFk2ET4cV+ksOxEUoEAocEC0JVx4GfXVt0I1RdARg9XH1oHGjXepYz4N34lEh6hN6T7iAYPEVEehBlQ9/X/5PjzxEObQq3gMPoAqoB7wBFoaPH7lCcwGW4tZ0mZykPRjF4Ohi85uhxvuxl55L4WbIpqaYBSJFSkvZQ0tZr2jdoZRoenvaT0NMJqaxt24H3PD3TRTmylWawsMyoRterewTMsyNUQlBojRw6GX8V/775S/fCF1nhE3nkwX/81p1dnvkYC3ARUDrYHoWey0tEaRWDCa20x5za34c66itantrxGloLPeR55lEyFHHVn2QUl1ppjxaWUJ0J+juv5O/FkX0dgONngwbZoXEFd6uq/vYZ/01EIsVif9ooINFolCFKgpYXSQ+rnHaZ99Crc8n4Lk0Bz5K8YhaUxZ8ev0haxFCuYdKe3Z0UGYQkyJbt0Jt94PF11NN/awSFpYamRNTeWNwUWIxuPLBrC4YgtyxbUUN+4nTO2io2BSp0WgoqKYrLRsAUekILIyr9ssHWL0xCO47z2JxGUoCohVWqEZnwL/vPX/LmIqUl99ShQQ9alg3XWpLrgMLr8OLU7BRdJ7q4Iyt47HnGWTI4cdWfaBOTKiVgFvLbgKe8ppmL2fpN18LtWwBR0QxGDrDqjH28mZenqi2Qgdryx1Awzfxj/yddzPnoc4D9bQiMPjsDhKHAWGCHjZqIuAf80bOLxrG9zzOdh+La61tOVh6qpmuTj2vvpN4bHaUsaWpVJY7vUw51xKddv9jLZux5jJv30sO6iainJUEQUcA/jRd3FPPIoZLK334W1gZrwujYQqgkam5pXS9Di0eyfFNbfDlp2IiZTjgn/E4SeqgW+WrZ/Jv3pn2YkiEfDIeH/ZIzRYKProxbdQ7rkNOj3wARvGqQJGkSPlnNn7pYAoagJVXKb72s8YfuXvqd78NSNb05K6/8i4DZCMU6z8hAT+kNqbRqbRHVfDZ/4cNu2gCi0LnZZ+fezBkqVlUHpsNMwNeoTTzyN+5rM0u67AStqBPVE1BuvFQ6rVN4ZWGvTXP0S/+RXc6z9BYvMufzp7JxLTfI6llT69oxJfbaK8aS+cfzW+6CMxYLRONT8y7uSVZdma5eA/yz4oMk7jASyKw2CMxYulKbt07vokb559IYQ5aITlTkNtAtbnBOFjpVYJFqZHDojglui++Bztl76IbV7DUWNjSFFDytwAQDZa0v87KDFsDg6nUF+6B/70TxnazWxe6oM/9p3/oVWq2iCLfeiezsy99zN/1oVoKCj85Af+AIVGtIBhWdMuvMTwm19BfvZ9sEs5s2etFIymRbhaC71Z9KyLmLpuH4NqE95UlLZIqX7Gp0X8+h5xlk2MHPxn2QdFU/CfmlFGhLg6cr4SqKdm2PaZ/42F2bPAWYwsj4sFq/U97g1OJUJbQexDIRAXWH7mUcLjD1MNFnF+CLElmlQwm3LnJ2fn30V+Z2Fz8Iqbmb7/L7HNdgb22P/eYWmx7RQUp8Fn/5hw6XWUdKmO+n9NujJEhqbB1m9jvvso+syj4OcZFSXRrOHNzUBAVOk3ULsOb+84leq+P6LtbEdJZST2d1rH+smqJ8mydZSD/yz7gARZyUJJj7MtEavjG5gMU3Hm7usp7v0ci9OGbrNI4ZXa5uD/WIlGXIhgOxCnIJT4apmuOYx8/vP4n7wA9RJIQ2OP9Mu34+/RRDAGLTwULRUgbIMb74dP3EeY6h7zX3vKomFxapbmM/fS3HgLi2yliBZsAx+SOpVolcLXlN9/geKhh+gP34JOiwl9TMi3z7VQk1atbmQYGMfU/fsJZ52Hp0+HOi1qAygVDQYIuMl5YJdl6ypfvbLsgzbeXU6ZJeMdZmkpo9JYodh7G+aya8B3MVFRiahAsAE146zW8VOEnFrwLtSAGhoLqW2qJVQdkJZqcZHXH/xv8NoviAQiEU+LpwXv0Al5cxugRVEalMimGhaqabj3bqb37CNUPbxI6n0aPMEGgtGVUch4M+4hFBQY4U2T2s/arXRuvQ3z8TsYFDMUgDcCsjrNazJ4UCI1EU+AqBBTLYWXEfKbn7P0Tw9SvPEKMKCxjrLppGnT2R8mYfxSVDjyMgpYgso4l9+y+co7kT13MW/7dGPaOAGOilDc+Jlqro/Ksg9Cvnpl2QdkpRd7YlJBrxgQMHQBRQpY7myiv+/f0551PaB0fOoaEoyntR7UQegCjpgbhr8LAQrKWIMsg0A16lL5LnSVXb98hgPf+Ar+0FsUtBia1LDxRI3CPQFKoKRA6CMYYhGZipFY7KLZ/2dw2bU0bjbFTaaldm1KlQopmPJS4KkgRogDFE8s+ry57+MUez+J0zm64yclJYAU4/qWSRAhRAJHhZVtqixtgd78r5h/+PPYl54DNyAUPVS7IAImn5vvSNr0IhLFEMQQjBLFE2OBjZYgDe1Hzoe7/oJFu4OuGtBFoJuik3T5HH++i3RNzbLnttpBAAAgAElEQVRszSblCp5lJzUlxVoGmMbAtp0Ut93C/NxOiBUSasoQsNGhYsEYoMFq7iiyFt4aej/4PubRL1Ecfp2uryibiqac3FbsIrJajOu2bMbcdS+9cy+jLrsc7oBhnCpVRcDRaVswy2jZgu/i/BwL11zDtpv3wdQWoMRFR0kKxFR0Yvb9FairgMXQ9wbX2HSS2iFlOAAPfgn7vR/QHUXwFeg4Rc/UMEF1I8eHHb8MNoLTiIsRqxExy4hGmpmPUOy/n7Brjq0tdD1okQd5ZdnxloP/LDsBAlAzvhXWQujN0Vx1NeWevUQ7m1IyosFGSysOb8Z/Sj8cudXHS4ulu/Aq9rsPEp/9Fgw8KDTSECc0eFPV1R9VSvzuy9B77qG+4AK6oUunNXi3siC1oC0uDgAFNwUf2cPUrffQbt9NLHpgOlgVnKYbRtrLnQwRaGhSl96QFoS1bSAcZvmJB4lPfJ255QPjlWJFoEJUgCETlfp0HAQcqgWQJh+vpFOhIKal6VR0b/oEgwtuZF4K0BFopM69/LPsuMvBf5adMOMi0wgjW3K4fyrdPfvgzItobQFaQBCUQDAxzQ3I8cWamGigXEbmX6b51iO0P/8BQ9dixyWEk2hl198Yg1VHEeeYv/BSqlvvopo7D4ZTuFAwsoo3BpyHRpHY563zLyLcdx9u+8X4YpbGVqiV8ZZ/+vt1ghqlrj6Ji+n0O1xAZAl++F3kK/+I1G9CMYAq0BYWpaAMQPBMzhLo+FAsUcy4LiemtDIF1YIYC9xHr0Svv5Omt40uDl/WaKF0cjP/LDvuJvX+l2UnFYulghQvuLQrZunDrvMwN93O4qnn0kgFRAqtUdOi4iDvgq2JQxl0LBhP59c/5cCTXyS89WO6bZjYlO2VtJ/VPvwKPWYor7gJbr8HemfAoORAT1FVlolQdAmbzqJz26dYungP2BmKlcWqOepFHNe2TMatQwBaBwaGBkqW6b72Cw5++e+ZeeMVWhsZlcJyGWmdYFVzzP9eyUoP2nE0L+Ax1Kai2X4B5sb9DLfvpAN0g6HG0YjmDY8sOwEm4wqeZSc5wWBTLg9LBRgCW4IlVj3Ycy3u0hsY9edAawwDkJpWLJDbgK6JtDjfTzMAZJHujx7DPfY1eHvpQxFkqASwkdKXDOUU2HsX4fZ9DGdm2DwSKg9WCg5s3gK37Wf6klsp2ER0DqeBCk/A04jHj+ciOxx2Ym4dBmxBbaDLkP6BVxn84wPMvPZriAuUTXpK4mKk1Bq3MtXXVSC5z/87C+Oi3wbEE0QYuZK6nKK84W44/0a66tKTFBE6VDhIT6KyLDuuJuUKnmUnN2V1x7BGKTFQG6IYBlObmLl2L/3Tzhq3+BwRTYPGHPyvVbCeclhBqMA2zI4OwePfpP3Bc8R2hGpAVYkogUj62QSRCDJk6MDiGBWbCJ+5g3rf1fSWu4iH0k0xc8112L37QKboj2DRQtqxVYSAoqxmY4zztjcSBQKR321SGokElgzUBKRegG99i97zL+CWDtN0PNQVrnFUHpzXlLcuUFuz0d6CE0/SnBM0texRI1B2mP3IRzGXX0fTnUNGAcRTG7CtwyqMyHk/WXa85eA/y06ElT6JBrYgKfjvGZwpcLGiPvNS7E1/BDMXoxbq7mHK0EI7td5HvqEVvkDLBnUR1RnUzlDUr1F89f+iefExpF6kbYURQs2QhiGT1MVesEBJyUoobyjjNub2/hk/3nc/lD2WrryF4s7/SN05Ay2ACgpqwjjtzFJRUVCt7PgbNtyE3wiMiAxIBctpIV4DC2iEbn0YfvAwfOcLsPgSmMhSNQNVDXa8Ey2SJnIDlY/kLrzvLIgBPwXNZogFTkeUW06luf3TtDvOpRSg6zDGpS2OAhBHJ294ZNlxl4P/LFtvRtOu4hUXcfD26/D2VDYd6jAoRjSdxfU+uoljjCEuLzP84gPw8o8RM0RRelpRhRKBydp7HF/lHeDUpMrWuS1ceNc9DG+5k5n7PsFgbobWxBTTK5QTlNiDgo3QJzBNTamMV3ddAl2K2FL85KfU//Q0C4cOMJqJ+NKweXFi3oF1UXrLqBoRuochwvz0bpob91GedTZWc+FElq2nfHXLspOAUcPS1Azh43ei510Hgy1UKKNyfr0PbWKo6upLRNj0s+cZfe3zFG//nCqMIDqIk1VgraQJwBApFYoAUIHpwrYddO//Xxhu/wjLFAgpNxuNOCZwmFL049a5HjUrQ70cnTd+CI8/QvXjn1JGz4EeDAugzrfHtZDoEGnALNJWXcLFt1DccDeDzlQOPLJsneVzMMvWmSD4wlBph6nqDMq7Pwtbz8HVZR7ydZyoKrgl2h89Rf3IA7j5V2lszaAAIqmrywT4nfT8lVadIjRFl4Hr03S3ocwyRUlPx3MlTBwHxpNxewgCamJKVRLwEhmM05aKhUPEb32V5R89DbpEFQK9xmCjYRLXPydSFKUaKrY2DM44h8233o/r7cZKjyh55z/L1tNkXN2zbAMzCFHSrmy37rJ83kfh058D2UzV5vzXD8rRLTBFhLqE6TggPv0NePoRrD/EkBFKCzoZiT8pPX8c6Qppypxb+W+GUqEXoRsKJDoQA2ImKu0pPf2IIAalYIhBqHHDN6ife5T6iW9iwyHUjZAY2DQwdFvB50Gza9LSAF2aYhezd/w7OOMcbIRKCnxeWWXZusrBf5atMwNYItgWLAQ7A1ffAB+7gybMrPfhTSxPF6LSHbzG4ImHkGe+yxZfoyaiEzQEoBgHWl4iXiKBiCVSEQlHd6uUAqQgYCjX51CPCyFiUdCCSIXg6MUafvoMS1/7W7qDgzit8TaCsRANouTd6TWqjHK4nMLs/TRcdNN44Zm6aZkc/GfZusrBf5adBByRZWlYcJ6ZBg5PzcH+W+mddu56H9rE6jZ9MA7iIr03fk379cfgX14CPJOSbCUYJKYLfSDiCUCLpUVCYMCQxrSoBW8M9fiWIGHDNfT5gywRpxGCw0YoI/DGm7z+d/+VLW+8RBSPC4EiQBSDL0AFyna9j3yDa0aEC87B3fdptDwFCCzLkBpwk7O2zrINKQf/WbbOUpDl6NNnBocWynQwhG1XsfjZv2TUOY3XpwPezUPTonRZLB2Y0Tof+clP9A+/jLZ4Kak7c8A87rePMnrqbygO/IpIQQxA7VFd5iBDFoipO+Rgnb+o98ukRUCFo0NBaqxYgS2YpktJgYz3YivSBi0bbH6Vx9PQEvAoRw2JUhhhqClhBDSecun7DP72/2T7Ky+CrzDqwBRgCowaXJDUxtPknf9308gswbbgDuNFqXULMfaAt3ll+9Vs2f8XLE4XvFm2BCr6bZ+OelTyIK8sW085+M+yk9BKXvr0uefQuW0f080MzpdQRYJpmWojutEitJONrYnGoziIFXYU8c//C83D/0Rv4Q2ihBQ4hw6b6dLHoBXQXe8Dz36fBSwyrnFItzUl7eBXwWCjsDgF1AfRL32d0S9+QesULXP6yVoUOkIxeClx4qniAl5alrrb2X3LnXDabgwVJSYN/AIQnaiakizbiHLwn2UnmRgjIul5QDs1hb9uL/0z90Ds0ziw1EiItGay2lKecDICFLQC7UJwTM0fxj31GOG5b+LqA+P8BAvjWU81LQOp1/vIs98jgNXfDfxX/1sEo4pykOGzD6NPfJvN3jOySlPmBfRaiA6IVATtpU5RcpBhKbjLbofLboDeDEKHIto0PENS69n8TCXL1lcO/rPsJCMiq73oFUs89VzYexuD08+nDB2kbUEiXvLpuyaxoQwRiQVeKigMFCPM4ssMHv0K/PBZoj/EYadp+ijQweNy6HLyiQY0vRRDQFEUAaKNGL9A79mnGX7ra5j6dRgN6OMI+Xu5NtKiUdA4LhEvFHfmOXSu/wRx62mMyn4qsF5ZjRmIyMRM0M6yjSo/88yyk4wxR4L6Qi3RTLF45VXI26/BVw9B+xtqFzE5cFkbNRAMzhhaB8GAEDAEpn/7c5qHHqDcMoOeXbJs5ugL4C2lIW+bnGzEpO1+WZltEJAIBBAGhJefxz30IDO//QXDYkRXCkzjKfPDszVRgUI9RIc3HYZbtzB97a1wxoWMqh4GKAGzUj0+niIt+QTKsnWVz8AsO4nJOMBv3Vam9txKe+GVjLrTaGjp+Jw5uyamACw2goueYDzRAGohDpCXfsjSQw+w6e3fULJILYCUEzcFeGJIyixZOStEI4SAvP4ao8e/SvzV93B+EYPQmAoEXMwpXGsxshUmtJhQU1eb0Utug0tuYdSbBtLuolVAImrT8DiHIZ9BWba+cvCfZSexViIjadncWJg5g+L2WxnsPJUOFprci3At6qJETQHR40JLrw10GsHVFdBQ6AL2uWfhy1+lWDpMS8OShdZNShPMCSJpF3o18I8KPsLiMgtPfofiB88xKA5B2VCNClQL6gKI+Rxai2HRgdhAbOnvOo+Za+9jecvZNBYKWhwtUIMEGiIBsBhEc+iRZespn4FZdhKzOCoqsNB2DEsfuQy583/i7ZkdqXLOVwQDo0Kp3cpDdgW7lPpZZn9Q6QWhBVento5agJZgIgvdHioF3cVleOJh/ONfpB/eTiklCtBCBCUyYsiAYWowmTOx1kWqJY0oQzypjmNkB8QXvsDM4/8PxeAQXV9C6IGBUmvKAEhu3fSORAFNOXHeAIqaFhUg9JnyvwZ1+K2XEO/8HJz+EXoKPRQ7Hl+IFCgWd/Ror7x+zrJ1lYP/LDuJCZIazph0v4zSZ9PF17DpipvRog+AQRH8+D6dMmo131zfVVobRVYjdrWAgEDfC4KFvkd1nkPf/AbyzLPMtIsESfuXKEg0OAwlMQU2OfhfFxZoMFRa0Auw7IZ0fvI8i196gNAcQkSxwabvsaSUoPT9z91+3k2wHowBWxCM0NqYpsDRUvoSPzWHufoazIWXoq5ABByKIKQQwyAY7PiVZdn6y2dilp3kVCKMu8w4CrTcjL3zfl4+92JwimikCoEyBFLVoyNq3tFcCztM1aJvzngWOzWnvP42+vl/gJ8/h2Mej0HTRiguVjh1EGLe0VwnAZ/C+NpBhJnFF1n4m79m9tAC3uQAf02kxlsYuZLWlCgGwYNZhmYHb5x9Eebeu6DqIQpBIPX0ybLsZJWD/yw7qa20LGlBIyYIjenDltM588//E4dnZhhaM/5tKX85iE0pLPn2uwbKylMBFyO0A+Stlxk+8kWK13+GEmgEvIx/q1qwkZDjzHUxosEGTXe09gCD//uv6R/4MZglqlFuanfMFGw48nTMREvVjhe6KLF/ATv/+M85MHMqtSlThtDKH8yy7KSVg/8s2yhEqWzqauiLPvHMC5m74x4OdTaBVKTcII/mXP+1qwAT2TyEXgMULdh59Kf/zOjRr2IP/BINNSMZp0Ibgwdy75j10SHQyhKhOcCBv/9b3M9eIHRG+CLkOHSt2hIXoQiesg3QKpGKYW8L5uOfgZ3nM6BPlJRSNX4glmXZSSwH/1l2UjNAQcCtdjIpxnfWlgKu28/0JTcxdNNgDMFEonishpXK1OwYNC4SxOBaB8FBaWlNoFsvEZ95kvDEg3TmX0EYpvoKhXw5XT+2NZj2AEvf/jtmv/kg0Q2pTQfnHRR+vQ9vg+ugYjBSQ1wGEQ53NlFceyvcehNR+8xRpFNAwBHHsxayLDtZ5btVlp3EBEDBY2nHj94lgvNQoixvPoPp62+lu/1MohQEoylFiGY9D3vDszFNivXOElyBV8GKQFR6828jTzyC/ugZOqMFCm0hRFwwVOt94B9SMUbCd79H+dA/4sJv6TSG3mgGlYJg8jyMYyaCui5DZ2hdDW5EKEHOuxB36728Md3BhIrp2iBo6ngV4MiEkizLTkY5+M+yk52k3tgOC4yLSg2ICp1YEM+5CO64j2bLbspWcbElapl2/lf6nxuOdADKW3Lvyup4ONFR/27UIGJRAff268jDX8L+6CnaME9tUqGp9RHUAx6Pp8HjV7sJrcuXMkFqFE8DjIBWI1FrvF+AH30bvv73dBfeTN+s8fcvSMw3ubWIAqFEGRHMEjQlduZ8ZvZ9kuFpZ1AiKycHTjVtVhgwmPy+Z9lJLJ+fWXaSE9KkTIdD0p0VDCgGGz2jzmbiJddTXX0jodvDBIvKkYLfOF4AxKOD/xyIvjMVJAougI1x3LYw/XqQgkhAX/kxw0f/keK3v6Q1kdoCIb2xK+XCwDgJgvyer5FSISglNRZoMZgmYH/5I/xjf0f5+k9QUWKsUCOoNFiN5L63x04lohIotabbGuifBtd/HHvOZdSmwywKVqAQCjGp45Kk1p6Sw4ssO2nlszPLNigVWHSeXm0w5WbkhhuoL7oM6GJDm2L/tCm3Ou9LV1pv53jomDmfhnvN91vaX/2Y9h8fYOrArxHjwUIjjoCjwFHiKDAEIt7kRIi1aCG1V2oXKGKD8cAbBwjf+Af05z8ghIDmOpcPlIoyrA5TeIF6M4duuJaF26+GYopOntKbZRtWPnuzbENLQ6mQDmHHBVQ338XwtN0pSNLV37EqjlOAcvC/BkYxxqB4en4R+/y3iQ98nnJ4kNq0rJSXipK6tKpB4Uj6T3ZMiggYB7YHRDoLbzL6zlfR73+bqh5iTLqdrfyYfTCcGUDbhdMvQ2+5k4W508F16OS+tlm2YeWrZJZtYNNqaEtNbf11Fnvx9cQb90JnCxEFI6gq9qhoXyVnoKxF2vCMbBpZjEaMHkIf/Ro88mUkHsJqi4zHM/zuG53f9bWQsMzIwAHTR0fL8MIDDJ/8/yiaERxVap13/z84olA0BqZ3EW+7i+kzL2c7HTAC4pC8+59lG1I+c7NsgzJYCAUtSjBgIwxklv5Nd7F82R4G3YLaKA0RVFfq8hDNG/9rEUxIQU/bR6UDJmDtEoce/gfs95+gGs5j20XQgJo08VSAIu/8r42pCTFQRZBfvMDhr/0XNi2+jJeC2qTg/3+wd+dfdlVXgue/+5xzh/deDJJCExISIDDzKCYjQCAEEgKM8ZROZ9oma1X1tFb/1qtW99/Qa/Xwc3evrKrOodxVTtvY2CSUB4wHnJ7neSIxAhs0xPCGe+8Z+of7QghcaQRSKBQR+8N6IhRSxDp678W5+5y7z94i+s4+k0QMoTwfrr8N//bbgC6uSiQzzvXX51upFUmDf6VWqMXS8l0CwpDKJrI6h2IH9t3vwW3aSOME3Pj2fGwDf6sbo6fFLcbwtoOtp0hBCNkxutVhmo9/nPSbn0EYgmmoDHjaidbqLulpqc0kvbpi4hff4ZWP/TvWvXwcQgeinmBfKkEMw51XwTvupy5nMClBURGp0O4JSq1cejVSagXzBgjSFgGV1DYAk4Jm2yWUB99H1dlIFiJED9G0DatAuwCfjvFTV49bmQqOKje4VFH+7nmOPvUYvPhLGoa0RT8hICcqAak/Iba/BCKeMP6orR/vJcArv2LhU/+e3nM/g+iADjZFiqS1/N+qZMa3Ar2DZIjiIXlSBLNhO1P3vZPB1gvJyJEEA0BDB6VWNrfcA1BKvTWLJUCxbSHQDkDZ/tkkU3DDn7HupYb68b+mpN8mq0tGbSI2BfS43ltlIUFOf/EFoDuaGP/RAjM/eob+lGAPlcRtPYSceKLMkvrT2tsqhvbIRIzjbrEC3Ve+xdGnHqf88Y/ohIQvE7VNdJoIUdD17FsTGRcACxmYSJQBBljINzJ5+0Nwwz10YVxYwNHVsEGpFU+vRkqtVgL27n0s7LmPEevBVFTlHEkiVmufLwlvoO8aev/0I8qnvsjEsd8iVG2qVdSg6Y3MmUACpDE4b4kYHEPy+ReIn/0y7uvfp1vVEJv2C5IhaN75abERhER/sqHKK5w3DM0ksucuuOuu5R6eUmoJaPCv1Golnv767fTueT+jC64lZOAY4mJaLFmjzjARac9ADo/Cs09jvvQ5TH2YWZParWz1BvyJw+i1gcZ4zPAI1Zc/i//aV5gaHAMGYANx3L3X6jnq0xOBBFVWkccGQof6kuuYeOA9zE/vWO7RKaWWgEYASq1SIRc6sUNn81VMH3gH/emt2KHDhkTUSHRJ2ASFh1T2ofodzdNPUP7gW7hwlEG+3KM7903FBFWidjBrIjEdx3/3K2RP/xey/kuQDaBsCHkkYXCBtqyqpvycJmHdICAjR9iwnakHH2Fu00UUvnjjL1VKrTga/Cu1SlXkmBowIFddx+QtB0h2E4imnywdGf8aqDpDhtVhFj7yn5n6yY8Z2KPLPLYVYJCDSVRS0+EI9sffYuEL/4g9/Gu8GdEvEv0CKmeQZHDRaOB/uqxAEkydkbJ12P0P0Vx5Ew0luZb0UWpV0uBfqVVKKIi5J5Y1TK5Hbn2Auev2MJCEEc2VWCptKVUhGCirhqmjR+j/3V+z8ejPlnto5z7jqFwiZ46JX/8U9/inmf7Nr6DoIyLYZLDRUTSO3LeBf3CJpPVr37pkIBlGWU59521w+1142chkElI5Wu7RKaWWgAb/Sq1SJbBgAgOpSMmQzruY7r0Hybef35adTBGEthOw8NqHemsi0Aj9zNBpLPlIYHSceu55+L/+HWm4QEoBTxp3oo0sJmGthfA1cfLRhwgninm2Hw8LqCSQH/k94cn/Qv79HyGjPgtlg/NCWVvKRrBewLdv1MpFGr2SvYHF7n6LPRESUcbPewxtt96LL8Luu5PjG7bTCZCHyCzD5R64UmoJ6JSp1ColNEyR0WGSyjjqzJNdeBn9O/+SNLUNfCRKSd+WjKzDm7apT9Jp4a0b11/tVRkSCigclLB+dBx+8W2Gf/e/IXO/YyEJ0gjEAYEBA1gT/X8D0Ie2+UEdgIo+FYEGRoEFC1Mvv4Q8+STNd74I5Sx0E5168rXpaoZxmVWhW1tyryvWN1I5qG2ExkNsONKJNBKg8lQb1yN3vpd0/n2UlIgBDEy0RT6VUquMXuWVWqX8OJy0qY2TJFnIu0xfcyNy3R6GUzNIXGDSz1OESEztiVTRw8BLZvCdb8GTn2HdsX/mWN5QmQmcn2AyRuwaCP8dkanU9pqrc4snY5IMS0YoLZvmn8d/58u88PUvImkExkMy2KiXqtMjuMUf66K9y7Kp33adHs3MUNxwN/mV14M1r/b/kAjaDUSpVUlnVKVWqZpxikUCF8CmjGBLWL8Z9j5E/+Iria6GMI+ECGmxsoee8lsqGxdegS8+Bl//FFk4Rg3jblbNMo/sLAqeAIwweBySHAJtCsqzT/LKZz/B5OhlhAGhPYvadqdeC3lRS8ZgY3t3ZG7xx3zgCKbL6NrdcNtDMLmFOjXYVAND2idciwMotRpp8K/UKhUWf7zbjT5EoDEFdd6hueAKZu5+kOG6LeDaC7whtnnoSaOspdMnhueZffZxel97lok+DHOIzpPWyh0Xl8gT9GiXmQMZQT2P/+43iU9+jI3HfsdEtUAmEAxENPA/I6LBEPEGklhggrTlYnp37CfuvJxR3sOaDCMeTABEj/8otUpp8K/UKmVOvnRbiPLqnzRZgVy+m4m97+VouZXgwKYFTIpEsuUY7pqQrGc+q3EvH0aeeBz54ZeJDJjlpMXaKhaAGgEPtoY8Nbg0D7/8FqPHPoKZ/T3ONxgRJBnSiZ3n1Z8StaSSATHYCFmAKutQb9hAsfd+souuYzR+67XPtj1x8F+LKCm1Oq3+q41Sa1SGazN2TSSZiCciRHIiRWgI+Qzc9n7k7Q8xZwMSjmOSIaCNfZaKpIy86WF9JP7h+4Rn/l96v/gOnZixFqbj9hypa4NLA7kfkv/mpxz/zH9i3T9/g5GzYGybghYLJNk27cc26Pb/aZL2aZ8cOeaTZbT3Nrh1Hz7bQIGnTOASBAo8WXvwX59ypVal1X+1UWqNyqHd8TORhkCgwdJACFg/pDGWY+s2sv7A+1m/4zyICzBeHqgl4nM6C11IGQv5K4TffAWe+kfcSyNMWv1JFpIMzreVZyoHHDvG8ac+R+eXP4DmRQbOMXIZUEDKMHG882905/90hfZgBdSGjTt2MXX/vSxMb8FQYtNgfPakTcWqyE6cF1JKrT6Skib4KrW6xddcwwUgeRIZAcElqH72DZ77m/+dSw//BBrDoLce7FHyVOHqDGIBLlK5QNFoBZC3KtgGE2R8wNVQWUvfCTM37oY//7ek8mKkgWjBZH2ggTAFxqyc/gvjUvKVaQNJS5tOEqiIDOhU6xnlI8q556g+/Q/whScpmiNgBmA2vPo95ORvuPi/lfIknH3BBmwAvAVjqDODNwaTItZ7sliDr/nDlsuZ+bf/J0e2XMgk0PEDcCWLe4F/NFcopVYd3flXatUzyEkPMCCCSMIKeAPFjp1ceuc+5robIMvohj5F8EgyQAaSkQCbdAf2dCQMGAEskgxZShQx8cq3v4n/4heQ/ov0Cxg4IOUQCpI90c9qZZBxijlNm04SwTVQhIKSDoMiUc4fI37xGYZf+xpFMwRnGRadEwsH4NWP02LJn5X0JJx9Jo1/ti1gI4jHpZoyeDIaMJb+xA42H/oL7PpN5IwLeZrXppxprz+lVj8N/pVas9pAPgAUE3DD2yluuZv5Tg9iHxsSNmQEUxBMThSjwf8ZMZ52U8KGROkjPS8MPv1x+M7nKcMfSBKBNv2lwqyoOkABaIAMj6N6NYiPIKHE1r+Hb38Vnv4862b/AKZhaAyVTCzvwFc4Ce2iss4SlQuYFMh9A74BAsfzHuXt74Kr9wOOyTjCEIiiB/yVWms0+FdqDZPxLuso68D6bRR77iNecgVpXP6TKHiExgLJIEGnjNNjTtrJ5kQPhtJHpoYv8crjf4/9/rNMNkepJDAaN13KVljydcbiznEi2sAog+gAP6L44TeY+8ITmCO/BVmgdhViLFNDPWh+WqIhCTQWvDTY2LTr+yTUrqC48kbs7Q/g182AK7DJI9FT6xa/UmuOXsmVWoMCr2ZX2NTWUm+KSdh5OdN77mV+60UMXYeUGO87+3aySNr053RIGp+XEKUyQNcAACAASURBVNrGC+OqN0IkOM+Goy/hP/YR+ME3yOhTEclCxISVc8fFMl5UhjZlbAEYiCfFWcJz38E/8UncC7+AbETd8TSZIQtgmpW1wDn3GKJAlIhJ4wa9WEZFQb3jCjp7DsF521koFsv+ZlhjNQhQag3Sn3ul1iCPnEglcamdCAI5oejBVW8nf/shBhNbEIGMESJVG9BFPex7OmxsK94sBv0Y2ihNIJgS04xwL/6c0VMfxfzsh0yHClJcUQnYiTbfvL1fUZCwTNJgf/cTBk/8R9yvfkTOApURYswpmgybEuTD5R76ipcAkyCPFkJBoGAws4XObffDxbvxRcC2rxCMS/pm2tFbqTVHg3+l1qCAaZtKpQghkY8TsyOOZmoT5U37WH/ZtZAZiANcasa527rzf1rSYkUVQxDwpu24GkxEmgKyHDhGev4nLDz1Wfj18wQTqM3K2RUPRDwJxECEPEL28hHiYx9j8jtfhTRHkkDCUo56uGFGEs8fpgfLPfSVbbxAlERb9SdYKKbYcNU12GvupJrcjMg8HY6Sxt2T22IA1TIOWim1HPRKrtQadCK72hggIQnycRpKjSFs2kl51wdoDi+QHf4ac+Yo3cJRzGekP3E+UFZOjLo8xJ9otmQTJxYDYLCjDIqCUWYo/StUP/0s1YShWP8I9cYrqQCXIkZqIoLBImE8hZ/tGzLj1znIYvO4REZs6/gDDRnBQ5NDZ+7X8LH/G/P9Z8eVjhw2GWyMYDzYhCTH9FD3ok5HnVcYn9MddMHPQW9E//JdTN3xKH79BVgLhmkAEgmRxdtJetZCqbVGZ1ul1iCL4US2rxFEXi0GahMYMth5CdnBBznS28R636WoGurOSqo7c45K/HEZyyRgPMEYsCUSLOXCPINv/xPVl56mM/f7E5k/Ei02ZEh0BNuWdT/rTqoFKeNfI7Y9x4Bpe0k5KPtzDJ56jFd+8mViGgAWxGGSwSBtjooASbR/xGmqxSPGAx7KkuObL2Dq7vvhvAtJWbvTJ+QIOQYZv24G3QNUau3R4F8p9Ro2QR6Expb4t9/M1P5DMFvAKFCVC8s9vNXLDkmmhpRB7EBtWX9slvS5J0jfeJp89HuQhpgyaNoOWhUw4OwfBm5TeyIGyHHkOMBR4fBiIQXyNAvPPE56+nOUYcC89ayomqUrUeqDG/BSbx353e+HK++kKhJoXr9S6iQa/CulXkNSWw2kyYU5mSS78x2w525SWTJZeVJKr3moM6XCxYDEAi8luAxkSNl/kYWnPgbf/QrWH2PeciL1Kicsy4HNQCSOk48IQBi/bwCPJ6/nCN96htkvfZLewotMzC/Qw+gm8xIqvMFay4KJTO2+m+5t72U22wAx4pLm9SulXqXBv1LqNcQa/DhI25Ay6G2Hv3qUl992BVSTJ/6eBv5nWoAUsRGCsdSl4DsRX4yY/P1vqJ/4BPzqhwizHLcQHLg60VmGEplmnPSfYJy2A8Yn8liR13Pws2/QPPUY+ZFfgBlAk+EqQz9fOSVLVxoXMkapi9l1A917HiF1SjKBQjJE9FKvlHqVzghKqddow7pIQZumMbKO2fWXsvmB9zPackH7d9LJBwbVGeEs4HAxYgl4G6kt1MaCGSLP/Zj5xz7B1K9/wjQL1MYDBuLZ79Bqx49IWzUmkiANsdUC5rmf0X/605S//SGdMASxYLqQ7EkFZtWZ5k1Jf9MldB/5N7DlYhDoRmgv89rFVyn1Kg3+lVJ/JCdiU4V3nqHARJPDRTcRH7gfU7TVQUREFwBn0MAVeCuQIi7UdLyn8JZu1aHKIMtGTH7v+/CfP4n551+TGDHMpS3HepZJEixtxk8FBBcgVPDyYY4983nkx9/GplmoaogF/e4kdZHRHWru+VLx3Qlm9j1AuOztvFyUbf+I1BDEUGu+lVLqJBr8K6X+WGqrgESgw7gsZXc9xe574KZ3EIspJI0QGSHJINHRWN3VPR02jUulSlsKSFJqy2EmSIuZ/dKHn3yV9MQn6L58GPCMDBAbKtoHsYGmTa/pL9VgY0OKAU97p6ghQPUSzTOfYfIbX6HbjCv72LJ9L8mIZAJ6yTk9g6JpD3s3joQHGUL01FmPtPdhuHEfI1OMi3fGE0+3PutKqZPpnKCUeg2BtkGTFOQ4SoAccDm2dz7c+TDh8t00uWubhBFIJrKC+lCdkwrf5vu3jQBOrqUZKYLDUkBZg5tl9MNnqZ78NJ2Fl8niCGSxdOM44DNt8L90xTMNkgRJbR2ZbnWc+vNfIP7TF3Gjl8fjL9vg3yZ6TUXhPVgt53k6DGH8+hqS8ZA8lSsw19xKdueDxOltdGJiChAcSEabTKaUUq/S4F8pdepMgvO30Ow/wOz2G8CXYOcZFANc0GZBS6W9uyIkGQd91XHmf/JNRp/9JHZ4FC+OPGUUFAzImLeOBJR+iQ7YhgJ8TpSaSV6Gp54kf/xzFAvHmOvpod6lUg6F+W5gdmKICUDoMNh1FebeQ9iZmRNncfQwvlLqT9HgXyl1yqLAsFMil91OceODNNPnQQz0mpoguqu7ZKKBZAgGgklkqU/5h18Tnn0SvvkMLjVAxNPm4VtA8LBUPQASLGQQGWC+9kV47KMw+h3RVjivef1LJji89e3r7R2jjTsp7n6QeteNBNdFRIgxavCvlPqTNPhXSp2y9oBnRk8mmbzlAPG6W8BPwjCn1kouSye1QXwQQxBwMTLh+/ReeZ7h554gfftZQnOEeWo6Cbo1EAzeLU0Q2GSQSUPvl9/j+Ef/HqrfkboLeNfQ8XoIfMk4y2QNvTkg24C5ZR9u9x4ymcJh2k7dxuhBfKXUn6TBv1LqTXCUFEgDTPUoDryT5m23g9mA0+B/6ZjYVm/BILEYd/mykBLm8K8Yfu5j2Od/yGRawPnUrtLEUHNmgsCTG7qllPBmluK33yX99d+Rzb/I3LoRmETe5ASrGeZLpTEWNzSQbyBeczP53gfxxWasBxmn/GgVLqXUG9HgXyl1ylwSygCpqKmzCs67BPvwn/Py9p1koVnu4a1eJrTVcpJgYgapA1JQuwwnI7Kff4X+U4/jnn8OqKGkrfN+ho96Li4COi/9gsGn/gb70q/pjSoKb2hMBinDeQ3+l4qNhmQK5i7YSTx4AL/xQvLGEtyQaDTdSil1ajT4V0qdMkkJIgxNwCOMbBe54npm7j1IU26AAN7UBNuMu4XlBGNot6I1D/l02TQuuyrt4d8oBqQhC/PI975F/cznYe4wC+JpABoIbSFOAm1lnsXynG/0ctRATQM0SBRiErwE0rF/pnnyU8RffJ8Qj0ETKYYWL46w+FKr0zN+bYJJNCa25V99xITAaGYT5T0HaC67gSg5LoJ3YalOdyilViEN/pVSp84kcA0FHQwdBEFixNx4Fy8e+CBQUFuPNwMAUipIKQP0rsBpSRaJFhdAkgepEGpKX2NiW/6xO5yjefYp6mc+xcTcCxA9jYVE1VaHTIsLgEgktquAP6FdJIyXC7FtHWCOvUT60kfhu19iYrCAtQIdBzajWws2eXC6A31akjmxOmtcZGRD++L5QJMJndv2k+9+mGQ2kAuQgaPALmFhV6XU6qLBv1LqlCUgjdOJHZAlASmgnGTnHfuYu+UmxE9TVDnJVYj0cb4hWOEMpZ+r1/GSM8xKcJFefw7/9NPwzNNk9Swj0+BCF2lAAhREMhoSkZD96e/bTZGi6kDscCRLGP889iv/iP/S15C54dn5x61JBp+Bt5GyjkwOEiTLQq+gvuUA7D1AVRaMz3SD8TRY3flXSp0yDf6VUm9Ku4cfcWncS0pKousSZ7ZQPPBuZOd1ECaQ4MEsgBmStM3QkhFyYiqoLMA83aOHqZ76DP6bzzAZZgEzbgwFpIClwXIK2Tnj7sJeIGMOfvx5wpc/TvnyYVzUUHMpVS7hbYQ6QV0wCiXNFVfQe+CDsOFCKpOR47EMaV/JxRdYKaXemM4WSqlTFoG4uIU/zktOBhpbMDRdZMdVlAfeQTVzIfgOURpGZcBpyv+ScQF6VYY30BQN2HmKhRc58sTH4TtfJ1IxsDBvElECREFi4g02/gkmMle2dwymfvA9qs98lNHcLyEbtDnoamnIyd0ZBGyXwcwO1h98N2nbZTSuS4GjQ4IUIEKZ9GKulDp1Ol8opU7Za/YXzasPoW0slckU4ardFPc8QFNuobEltW0bVGnezxKJEZLHIYyyjKoAzIDpl37D4LGPEH77TYo0S0OkIgdySG8cvy9IxDPAHv4BfORvmHzuBbyNLORxfMtHLZU8eoRIKDrMTa9nw8F3w0W3Egy4BEUACbbNwUuA1/WYUurUafCvlHpT8nEKjyfiJRKIZERKIhKFamIT8da7aW69k8r3mBrZ8cFTjU6WQsgCvqgoPEyOCqDDyEZK+nQP/5z6H/4D9vlfMpHaPgHQ9ggI8qcP5loMG2ZfYPT3/wcc/jbUibKZIo+WpJHm0hCASNFA7g2vFEK57w649hYG+VYcwzbIj4AYgilI1uqVXCn1puiUoZQ6ZYKBCAZDIOIJQIMQIASigGsc1ebz6e67i6mdl0OVMXTjrB953QMYHyNeln/PajDKPPNlA97AoKBoCoIxbd13P0fvxz+geuIz5H84RhGACMkIo3G5n0AkEce/tnX8I4FsME//I/8f5U+/RbKzVLmj6JfkQ0Gi1vN8yyS97ibYSe//mIjiwSckOjZdfjX5zTcRZs6jNgALQAMGagMDHEMcyaI31pRSp0zSYttGpZQ6XQmCtCUiXRow+s5XGT7+H1j/229B2ExVRKqsRmJOt86wqQK7AMmOu9aqM0qA6KDMYe+9cP+H8BMXYSKkLGKTYc5U9GgwqUc1buJWN38g/+T/ypGnP8uEZLgqYE/eK9JA8y0LJhEM5HUBKYKtwHhoOuBzQucwJszQbLuW/D0fghtuZo4eDugu9+CVUquCluBQSp05CYy0FYFqKSgvvZbyxr3MLxxj8pV58lhjfQUpnahKnrDtHQV15iUgBvqxT/3tf2L9xE7cnVMMp2boBAgOpmogF4gNGcI8L1F88Ulmv/4NCiyEiJFxtD9OMZfF763eNJsi1kegAJNROU8yHmMacpOwzQSDrdvp3L0XrryCioIu7cFuLeWvlDoT9IqrlDqjBE/CUFEQujNwywH8DW1tciHgfIPzFURPMhDEkUSnoiUjYFPDxJEXqZ7+NOH7z5A1RyDFNpaUrN11BsS/TPnNL5Ce+QSdfp8igAmJmNKJs6VRNO4/LSlCDCBQG/dqGVxpaGxD7GzD7r6deNtdzBWbAYdLEaS/rMNWSq0eesVVSp054y1h2/aQZWAK2HAB6+9+BPO2K5jPOuBTW6FGwrikoeaQLJUk4J1Q1kLmK9zRXzH7uY/hfvRNiLOMgKEzRGPoG0/40Q/IPvF5ipdfIPMRF8EupqPLOPDXl+v0GfAW2sO9QjkS8tqA6dC/7maKO++j6p2HRdpzGkQqUy3vmJVSq4YG/0qpMyYIgOBIFOPPVdbB1p1kB99Nf+slNNkUiG1TSCS25x91K3lJRGk7xdI4wGBczfThnzP/6X+Awz9hxIjOKDJPw8ILP0c+8xT85jkIZvy6CMYYsK9eKmzU5dppEQPGEkzE0iC+gcqQ0hScdynlA++ELbsoYkGvBkK74Bpolq5S6gzR4F8pdcY0ix8kT0mkYJymLIZw2U1sfeADzPfOI1IQjBBNxKakeSRLxKZEFhLkBbgeEsE28/Dc93jlH/6OyaO/geoVpg//lPSp/4T77bdhYr5NBUpyIsf/1e8HEtHX63QkS0odEmBkCGkAZc7z6zaRvfMvaXZeQaKLjYCFkEPAMaXHfZVSZ4gG/0qpM6ZhHBfGCKEhT21TImLgBTsNl9/AhrsO4LMJvDHt302ek3uaqjMogfXwSqeg7zpQCciI3Cww8+Mf89Lf/S0MfgqPf5ytX/0aA/cCf5iaJywG9wLBnJTqk056qLcmOSQWmBRBKig8R0rY/q534a/fDfSQ6CB5+rbh2Lintl3QnX+l1JmhpT6VUmdMO5nEk9JCFvcXIgwbXuo4XDpG59//P/SeeQzMLOBYyApcspSVaQ9EutimqxDGu81a5uStGU/vi9V64niRZdrk/Voi+eQksT9AYmLxFIZJ0rZiEPmvfjt1GnzbZdl3D+OGAfx25u//AJN//iiVMWSmGKfBxfHNFwGMploppc4Y3UpQSp0xbYDyX7uhaIglzCSLjdOYew9Sv/xz8p9+F1IgSwkX/eJfJY0Pl2bRtGkm6i0ah4wndvLNa37vkuCPzwFgjMEu/rloOc+lEl0AhrjKgusxvP4GJg8doHaOPLg22BcAqwG/UmpJaNqPUuqsWJBEVoGpMpptF5Edeph62y6S5BTeY2MDpgEbqF0gSUKCbVcBaskYY7DWojeBz45gGqIZgu8wf8HVuEfew3BmK5J0L04pdXZo8K+UOityTHv610Fj19FcejP5/gcJ67cBOaQ0zjH3BDPe7k9A0mlqqcUY26o+amksLqxSau9yJUvafDG9/Y9QXXglReyQecNIs9uUUmeBzvZKqbOi9Dl11qY8lxF8sYVw0+24m+6imthIZTsghpQSZpzzrHkPS0tEEBEN/M+G8QIgJYPvnofsuRd/5a04NmBGBiI0eklWSp0FOtMopc4agweGGBKSHHHyQrjjIOnK6+h3p6kocdGRhbaefDKMa4UqtTqMign89Xvgtv3EqW2U0UDmIfMnemMopdRS0uBfKXVWBAcuNjgGNKZPHiAb5fR37KLcexfZ1u1EV0B02NBu+odxqUmlVrzx3ZXOhRdh7rmPastOnDeQYD6rmDeBwi/zGJVSa4JeVpVSZ49kwARCgbFADjklcdd9TN7zIdLkZNv0KBpS6kAUbNCIaKnIn3iot867BjDge4CDNATvmdt2Fdz/V7id12BNhnWQTKKgoMDqXS6l1Fmhwb9S6qxoO/06oMCRtaXnDWQIWAtXXU/34P38fnIaJMdVATGBymmtzyWT3uCh3prkqByErILQgMl5ecNmpvYfgl1XY0wXhyCmPXeR48hxuupSSp0VGvwrpZadiTVNN6O6930M7n4P/ZRDPY8wotIKiGqFsaHEGwjZUUjzHLfTLNzzINyxD/JyuYenlFrjNPhXSi0/N6A2OcfYzEX3/xvya26CXDBJ6NaaC6FWlkBO2TjyegSFI1yzh4sOPspsNkPI8uUenlJqjdPgXym17LyBjIyNEXDryB56L8cvvYoUJ3C1TlNqZYkSsV6gWcfxXVcx896/gDRNN2WMRIN/pdTy0quqUmrZeTpkgKsBgXT+5ax76IMsbN4JVoMltbJkDMFaqu3Xsu4d/y1p6y5IkGnrCqXUOUCDf6XUshMKIEJR4XM4Us7ArluZvOsAgw1Tyz08pd4UCX0GMx3SA+8jXHInQykZFhXBeDphuUenlFrrNPhXSi279kyvAYlEPLmB2N0IN99D95Z7CEWPgTEQI/gAkvDGnPhKpc66lPDGUZtO28RCKupsBAmGE9sxdxykvOYGYl5isASEKBERjf6VUstLg3+l1LKzgGCADjmOKUCsIc1cCHsOIFfsxtjJtvyka4CIJENt9DCwWiYmYqMhCzkQQEYgkWC7xN33UN5yEDoTZAQcUJJjMGC0hqpSanlp8K+UOueklBBps6Ob83dg7nuQcvPb8FnJbFcYZR6LxyYNpNTy8MYgjUf8PE0+hGDJm2lGV1xHb+/dsGEbuA4NlsVOFe0FV9+zSqnlpcG/Uuqck1I6sQAYygQLl9wABw7Cuh1MD3MqByOXsI12/1XLwwUB00C2gBMP0iNuvITOPQ+SLryU5Hp42yGMT/hq52Sl1LlCg3+l1DlncdcfoBNzkpuB227H3XEPyFamj+fkPoHV4F8tkxqaPDCXN0iTE3o7MPsfwFx1IyM7hTc5gTbgN5x8sdUlgFJqeWnwr5Q654jIiQWAFegFSLIODj1EddteqDdihsKxTrPMI1VrVkp4E4lFl1G5FW68B27fx8hN4JJBaM+yWNpj6UKE9NplgFJKLQedhZRS5zSTAiZFKpMzn2+meOefMbzhGppeh7LWnX+1PJoOdLylnLX4a3ZjH343g+5WXMhwySN43PhB8uNUfzNeACil1PLRWUgpdY6LYAOetgsw05vofPg9DHddQqeehFhDinhJeJFxVkUCLamoTldKBAOVg2BoA/gY8RKpjIeYU+y8kolD72S0fgsmgcMhIljS+AvGB3wXs30060cptcw0+FdKndO8sSTJmPBQJug7B1suZmrfB2m23ACpJhlPEDN+ABIBTQlSpylCYxP9vH1vEcafM4GJWji+8234D/93DHdcTYlQxggOgmTASQ9xtH0slvVfo5RSgHbIUUqd49oqKfFEukSFxduS6WsuJRvcw8KTvyZ/eZbCBzA1yUISg8RseQeuVrxRJ1J4KKsIIsQMokRKD8c27mT9/nfAjivxlJAcEElEku6rKaXOYTpDKaXOeQnaVUACQ8aIDvPdDcSbbiG7437q3qZ2o7+pEWna3f9ULOuY1coXAUkRoodYEyXSmIzQmabY9xBct5fabUBS1r5JTSSeqOqvlFLnJg3+lVLntADU0JZNSTAdYZqMnB5MbKO4+QDda/dAOQliIY5zrJPmWKjT0x0ZkkAoAAPOl9QyjbttL+Xt9zKa2k5jBHtSo2nd9VdKnet0llJKndMWz1mGcZckiVB6KLxgQkGYuQRz932Mrr6BQWc9xA42JILTA7/qNDVCYwz9HLwrCNKje8XNsPcB6unziLRZ/UYAE0ESFoN9g2+rlFLLSYN/pdQ5zSVDiSEBtaG9A3BS56SaDn7XZbj7H2S4/WJIPSQYGjNa1nGrVcA5smApm5yRFFS7LiXb9yDD869HcHSBPLZvSU9FICIJJC33wJVS6l+mwb9S6tx2UuGehshIIt5GahOpDFgDx8wUcsU1zOzdD90NgEVs/dryiiceryvBqNauP4rUX/v7hTIhwZCPMsrpzXTv3gtXXM2C6VIkwPs2Lw1PJLYf6ltLKXWO0+BfKXVus0DWlibr0d4FcBhyDAWR3MBGBNgCtx7g+P0HWZiepDjqCYuBXDJU1tHPDN4AUQ9lqlbt6raSVHAgkWA84KBeRy++AiZQTZ+Hu+NhuGk/C9k6SsBLBs61eT84cnrkFCfuSCml1LlKS30qpVa2FEHatCCKKdbddhfhxd9RDyGPR8aNmRy5CSfdCdDoTLVyD2BINqO2Ee+GWDvEGXCjCfoT6+CWmyn23kFTTlIAmQdMGif7K6XUyqJXQKXUChcR2uygoenA9Hbs/e/nyJW34814iks14mvy4NvfGguigdual4CUSGKoJSeIw0YwNGAXIM1gr7qZ7sGHmF93Pp4OWUzAaNxITimlVh4N/pVSK1wa1/9v06+H2TrYdhnnPfwosvMS+qZsO6zG2NZsBxqjU58aM1C7SDCRvIFyJOQjg2sMx6+4lvLAO2g2XYjQpTPu8OtdQ9TgXym1QukVUCm1so138F1q8xg9ULkSLrwEe/+fMbf1YqpsAkx+0nlODdwUIBBE8CZipMI1NdQOwiTMXEHvvR+Ai67CxS4TNe3q0gpD3Ph+k1JKrTwa/CulVqwE+MWjSzFSENvzl7RnOLnyLjbd9z5mJ7fhTQkYLB6jwb8aM8lgU8BIH2QIWcbvZ3bAOz5EvPR6MJOYYNs0n6ztNzFBB6uXT6XUCqWzl1JqxYoYPIxztwMSAwWefFxv/XB3M+7qW9l8215iMdEe9E1gk9ZiVLR3grzDJY9NFWQ1/YmCjYcO0b/5NjwFBAupoclGHJOGAEgfJOrlUym1MunspZRasQxQLH7gLBiLLE5rEpkGjs1sggOHyHffD4ONUAnHOsch5JAcSAMMIA6AxCDLqa1OjatGok3XSRAMeNs+2lPihpQmGeQNUQIjtmNu+wDptgeRcoIOieQSKbNYCtZh2ztLPfTqqZRasbTUp1JqxXpt1rX5o8/3KrCFpZ6eId9/F83si5iffo0NCyMaNyJYQQAXMywAkSLUGL0xsHosdoMevylO9PBKgElUbsTUvMHnU4Qbb6R3551QThOTwYiMv85qhr9SatXQvQul1OrVVBQ1jJiif9Gl+AfvZ+6CS8FPkWxNNBVBHI0pqF0GYrChQlJY7pGrM2Uc/KeTonez2IVXEt4MoOngtl9Fed8DhB07gYzM6wpQKbU66c6/Umr1KgOSCsoIs2aK3mXXM73vFZrZEe7498gbIAnBOLyNeNPgUqKtBmSXefDqTEi06T6LO/4mLd4EaEvEdnxGs2sX2X2PYHdew1AmMUYokr7+SqnVSYN/pdSqNe8yJmPbxXWdg9pMYK67HT/b0Pzj7ymOzUMDNg+EMuFtxCLtYU7d+F11FtO5FhcEGEF65zO87yDuptsQM0OJMLSQNNVHKbVKadqPUmrVsmQncr2zCEW00NlEvucA+dv3c7Q7AzaH1GCkIkokphx013fVEMBGsIs9HlIiGKgcDDtd0p4D9G46wHy+lSQWSQ05Dc1yD1wppZaIBv9KqVWrW9Nu8+ae6GqMJDwl1cQW5N5DmFtuYth1kDcgFSaBjQU6Na4uspjJlcZVYa2hksjkNZfRHDyEtedTBGHBRpAKF+tlHrFSSi0dTftRSq1eDhBImPENAMHYhEnC7OarWPdgyWy/j//hs0z6EQahkQYh/otJHwKaErSiBKK1mCoH32CyPmZY0LvyLvrv+x/Ip86HCDmM3yUFiJxoFqeUUquNbm8ppVavcYlHwSA4RCwGwQiUeNKGC5g++CjVjqtJAib0iQJB/uV9EY37V5YkBhMDyTbEToDYpdp6EcVfPYqbvJCMDEzb/y1DgAzEab6/UmrV0uBfKbUmFU2fyhTUF1/Hxoc/zHDdJKSKLKJ1/lcRCQliYNiZZ7YT6K/bQfFX/xN/2LyLotYQXym19mjwr5Ram1KBGMvAAW+7iu6hR5mf2QWhwYU25zulgSQwiQAAFh1JREFUREq6EljRvIVk8NIgrkfvQ/+a6m172NysI5Z6CVRKrT2a86+UWpOqfIoCKFggdkvS7geRuUj9+b+lGBwjJXMi8BfRHeIVyxowXQqZoNj/COnaWygw0ECTCcVyj08ppc4y3fZQSq1J7d6+hzQkYFhYt5XeLQdg951UZY+UEsboFLnSDTPod9ZRXP8Acc8hJN/Yvuxd2kWAUkqtMTrzKaXWpInFD2SKSIZLEdm4kfLu91C+7Xqsa2+MatrPymayHHvttXDfuxhtuIqULOQVkYqkl0Cl1BqkM59Sak2S5AGDp8Bg6ODBOdhxJex7H5x3JZISTT4kSoKUI8kgURcD55xUkMSAHUAcQCPUpkNtcortF1PuexfVzl3Y0Hb2DQIWCMs9bqWUWgYa/Cul1iZxgMHRlng0koMpwBZw+S3w8Aforz+PTsgIJtLY2H6dzprnHklIGr8wLoKpEW/w510EB99F2HUTLjgyidiUsOPTHnroTSm1FullTCmlXic4w/Ebrqb3yKNQnU/uwWdzjPKKkdPDv+ccMw801Gk9x4oJhvkIO23p3vcwzbV7ERE9tK2UUmMa/Cul1OsMjcWZTbD7QXjfo5AKLBWVC5R+uUen/oiHZCKjLDE1yhG3CXPwIeLN+xhl6wGt2KSUUos0+FdKqdfJMEyMcsi61A8/AAcP0IwKpoc5VDptnnPSJBIMU/Us0kTKW98N9/wrFspNlOnVwF8XAEoppcG/Ukr9kcLb9kQo0DDF7Pv/kondD8NgEkq7vINTf6RfCkQHw5zm1lvhz/81jV3PpBcs1Ym0H03/UUopDf6VUuqPWYPPIjhPD4hcCu/4IM311zCUuNyjU6+Thz514Wiuvovinf89R4suIwcCmJAt9/CUUuqcosG/Ukq9zkAgEghSAbB+JPTPfxv2nY9Q7LiYJAaPhSgQapCKJEDKl3fgq5kEgjEEydvnHU+wDZDIvKG+8GKy9/0FzcaLyREa6rZCU9LLnFJKnUxnRaWUep0ukJNh6QEQskCZHP6ivaSDHyJuvYAgk23ReIZgBm08morlHPbqJg2NcYQ0AaEgUePNCJKl2raHif3/Cn/RxcwXiQ6ODU1ORsRnekJbKaVOpsG/UkqdImst5upbsHc/QjHdIZUD5nsT1GkLNhiSO7rcQ1y1KmspG08e+oRiiCShGPWY23oRxb59cMnlJFvisNgIJNq8H7Qpm1JKnUx7nCil1Bs4+ZDoqLuB4ub9mIXD1F+YJx8MGTmLkRrXNGA0x3xpOKABW4EJ4EuYvJBsz37YfSNpah2egiKa17Tu1RMaSin1Wrrzr5RSb+DkSjF5FJqpLXDXn5Fff4iCHr36OCQPcWq5h7pqFZVjlAX6nQobhFhsJN26l87b72WwYSt910EwFIl2s//E1U2r+yil1Mk0+FdKqTdwcvBvpaGIAr0LkAc+zODaG7CNwQ0N8x3N+V8yDQQrVNZQZ+torroFue9B/PptCCUOyKCN9S1gIwmweplTSqnX0FlRKaXejGTAQ7Awv2Ur3ff/N/S33UgqOhjml3t0q1cGPe/I5i2DC6+geO9fMthyEVEKyhQoidgYgUiyES8QcRr8K6XU6+isqJRSb4Zvm3zN2gGRhrTuUnr/4//CS+dtolfNQkokIokIKbU70Xrw9NSceK4YP4/tf0iiXyYYCpPlNta9690cP28nNRaTBEkRQoDUgGmoidSML3D6tCul1GtISkmnRqWUOkWJiMR29x8H86amywL2uz/gyN9+hJnD32A01cdFcKN1eDdJlQ/p+SOQuss9/HNa5Qx5MO3zmxKNBJJpcCRMM2Bu62V0P/w/Yy6749XA3nmSgGj9CqWUOiW686+UUm9CALyJbV45ELAMKeDSS5l54ACz23eQ1T2cN8S8wtGnVzdUmV3Wca8EeYhI8BA9lfP0O4FgwFSJwcaLmLr/PbhLr2DoEskBDmpxNBr4K6XUKdPgXyml3oRIJBDb9JQEGRZPQVNOwU03Y/YfIvR2QCiJpgJZgNQQNEB9Q5ISSADbYFJN3kRECpieobj3/XDLQQZZD08g4AniaXv8KqWUOlV6NVJKqTfBAEJqC8hH6AFD6/DG0UxZejfvhyMV4SufwVUvUGU1QqRbFVp18o1IZJRHTIrkA0sWcvrrpgl3vx275xB19zwikBNxVIAjQ3exlFLqzdA5Uyml3gTHYsaPbz8RoBPbMpOWkjS9DbPv/2/vXn70OtI6jn+fqnN5L91vX3xJnMk4sWPHsRPfMpPJmDi+x4kdXxI7TMJlEBqkETu2/BVsWbJmAQskhITEZhawgRVCg1iAYAQayCR2397bOVXF4rxtJxM0OE67u9/272MdufX26fOefluq81TVU09dJZ4+yzhfYJg5Bj7BSM3t/2fsYZRB7aDJ6+nRPfk2w8s3GMztAYM20Max3vsqEmQa+hcReWR6GomIPI4MKGrwEWITgOYJsBb9fQfI37lBdew7EFt0x07zrI+g8o5W5SjrjLV2QfW91+HSe4TeMaBqOliTLXsDWZN+pT18RUS+FgX/IiJfQ8IxxlgjsUYi+AC+BmKTDgQEK1h68TDdd64w19tPNixYam3tfU+DYEY5AD/y1EcOMrpzgdVDL9MbdWlPPnUMxkAfxxAIFsDUARAReVQq9Ski8jWk/2Ok+WFp+oSlAHXRvBAS45/+hNU//SMW/+ufqFozgMNiThYdmBFcpPaxqXSzw1vj5AKDvKIzmoGQk7KKQV6RMLJQUsafQ72Xwa5XKX7nR9w/eRJPwfwgQWngPOAmXayHf4fm89dYlojIo9BEtIjI12C/IsiMBsE8RQ4kGOdG8doJFj+/xfKf/YLe/RWG7cSo48iqSLcyfA2O+FSsBbbk8MlIFjEXgZoijpvXg4N6jnuLiyzcvApHjrErtZvIvh1oVlo0n72CfRGRx6fgX0RkA1WAt4izZklw7Us6Z67BEPjzP8G7ERYCziKYgTVBcWPndwHKKiPhCL7CMySLY4gZhIwqP0Dr6nuML5wlSx1cv1krsVQ2C32Lrb55EZEdQEMnIiIbqKkGFDFG+BRIvsO4vY/exY/g0llW8x69tRbttQSuJuTx6clZT0B0RIsEF0gEmvQdRyo6pLev0z53jXv0WLN8va4qhsPpcSUisiHUmoqIbBAPlBFICVKkxNMCcMa4O8fozl1mTp+DehbqkmTQz2NT2nLnD/oD1uRGTSQcydp8Vi5ir5+juPUBtPbSoY3DCG0gb/ZS0P7IIiIbQ2k/IiIbzZrRbJLDB/AOaqtY6rzKrisFLA1IP/07LFaUIX4xHt7h1lc0T2Y6Usmq72LH34JbnzBeWCCLjm6MBJeoMZJBNvk4RUTkm1NzKiKyYSJYzZjIEEdtTEb0R2TcZ9dah+r5w1R3r7B0/CWInqLvcMmRno6hf3A1yRIuGUbB7P6jLJ6/zufPHcWSI1gkEvCpoqQmS/EpmRUREdkcGvkXEdlI5vDkOFwTszpoklZmoE6MujkrB0+y8E6Ez3L4j3/Eh19QuxlClkFy5AF8bNYCjLOAjw4/JdMDtU8EFykrB8Ee5O03InVRkQ0cxBmWjrzCzM2PsEMnmA0ZmUskMzA3KXtqD342oT6AiMhGUPAvIrJhmslU/5VJ1aw5OgNa5DgWaL30Hbh4n8Fff0br0xWyGDELRItgjmYWIZGmLOK19HAX3knmE5UHSLg0edFy0rP7mTv3Lhw9ySDr0G7KJE0CfP+VSH/KPgYRkW1Lwb+IyCZZzh29kJFVQNGBs28Q68/o/2Wgu/xvZGncBMzmSN4BjqL2UxX4+ghEBw7qLDD2TDowERcTrark8937WDh/CU6+CW6eDGPsA4WW9YqIPHHK+RcR2SQ1efNFgsq3+azcTfet94jfuUJqzTZRcqyxNCb4imARi1kTTE+L1Cx0CD4SXCRLNZ1xRWdklFXOON9L6823sQtXGc7uI1DioyO48VbfuYjIU2GKnigiItNtAUfyULchAB3a0N3H7K2PqE68yf1ykWRtEk0tfKApjJN+1VW3GQN8k+pjRIqhYYMCG7WaUf4TZ+lcuMHyzB5GLmv27XVK6xER2SwK/kVENomNmx2A+wAk2jUQMwYLuyg++E36R7/LcraAWRuXHNFN5wZgwSZbdyUHtQfaDFs9RkeP46/dgfnnMPL1eRBIkOtxJCKyKdTaiohsFhfJiZRUFFRgocn0wVh+7jDP3fgNWvteIcUSi5P8d5u+DoAjPbxnn1GVLT4/fIDW7XcZ7D9I7dvMxEQnrO/wC/5hV0BERJ4gBf8iIpsla9JbSpqqNtEZyRkljjLOEg8cpbx7h9G+w7hxh6IykhsC9cPUn8QkXk7NRlh+83OCkkFwzf/pwV4G62pSqijGBVldUuWOlRf2sO/2R/RfOkPtC5L5ppTnesfGaMoCiYjIE6fWVkRk07jJkWEUOCtweDKMsoY112Z4/CSt67eJiwehapEsEX1N8omwXjN/vQOwRTMCcRL8B8dXdieuHUSLZFWAlLGyex+L1z7EDryOi/PMYuTmwGfgcrCMpvznlvwqIiJPHZX6FBHZBtYKmK2B1IXTb+CXlxj/1QDr/zu1rzCriTh8gsKBBYev3JYN4bhfnnBY75Qkj09AWmE022Px3Y/h5HWCz2mHFXCzm3+zIiLygEb+RUS2gZoxpACpzUr7Geoz5ynOX2FQ7iWrS8ra0a4jWaypfCT5CFizunaTudRs5mWTDsCDfoCBDxGLiX5vL+XF9+H0Oe6Xs0TfgjBdaxdERHYiBf8iItvALDXDPFEVUJDTn3uedPECvVPnyeM8NiywvsePEj5Gxp6mBd+CdBmj6QCsH82LRkwJc5Fh0SaduU06e5c4t8gcY8ygKuc2/2ZFRORLFPyLiGwDLnoCRgDKCjwZawvfhiu3iEdOUWc9SG2oCnxyBJtU0dyKXPn1kf/J29cpMoo1tSX6eRs78Rbdix+ytPsglWVYGJIBfeX1i4hsOQX/IiLbgcvp4mglwCdaIdKKLcLzB3F33ud/jhxg1Oo0i2QBLGJpi3f/mrx9lmVkWYZlHv/CMcorn8DePRhjEjlYD4DWFt6qiIg0FPyLiGwDYxxUDuqa2tV4AlnlWMlaLB8+xu73b7D2rb2k0kPK8bXHEcHCw4vYw+NBGc4nIaVJ4O9IwCgNsAT5rhcpL38EB18H7+gwAmDkmtNLVp/QDYmIyKNS8C8isg0UADmQZ2Tk4AsoPfNAzl7yVy7Qu/Yunz+zC2JJOciASOWrL10n0awBrnxTivPJqAEIllP5hFkk9p6Bq79LeP0K5B6sR84sLaBkPTtp5kndkIiIPCIF/yIi21y7HmF4stM3mL30Cf2ZNtgyliKksjnpl0b5v1KKcwONiow6r6jyZYoAZf0C7sodhme/S3qSbywiIt+Ygn8Rke0u1URXsNJepDjzHp0LVxnO9iAZeUgPAv8vht1fLMW50bLg6RcB3ABiDpc/xL11hzW/yEBPFRGRbU3NtIjINpeyLtHntEjE7iyc/wHx7F1WillIdbO3FpBSIqX01TKcG8zXjvawINYlXLxMuv0BqT3PrnFOpseKiMi2plZaRGSbG0xG9vPYx0jc2/Ui5aWPKV4/Rz8vqGKgigG8w6w5eX3t75MQzZEPe3SOv8vqh3fpd/c0swwG7eCf0LuKiMhGUPAvIrLNPSzn3yVQAom4e5Hy0keEV97C5xku88QYSSk1565PBzwBg8LDsVNw4/dYnTlOB8BHUh63Zt8BERF5ZAr+RUS2uZJVPJGhgzHQZZXcj2D/q8xevItf3NWk+zjDvtSqf8Po/8HCgckxmU7oLu6GH1zn/ovHeLbf7DsQ3CoVA9acHisiItuZpbTVu8SIiMjjCvUY/vYnuL/4Y0b9n2KxpBj3MEYQ1iArH+/CQ8d4pmJQVMytJKgLxu0Zqt3Pkt/9fdyp87hJoO8U8IuITA212CIiU8ycw86cYPzOdVp2kLL2DFr3wY0YdrLHv3ArUlTQqiNLM5FYZhTdZ2ldukLx6lG8b3L719cYiIjIdFDwLyIyxcYO7uU9sl+7CW/eBN/D2RrL7RGkx198m6z58SxCGQpWF/YS3j4Pb1xh1F5Ek8YiItPpGwwLiYjIVktAlxa+3YL3b8P4Z6R/+G8MR2tYgB8/1nXrSa5/PmjhiznC6TcYXL1M0X2RIvgHdURTShr9FxGZIhr5FxGZYm0crRqIMNr1LKM7dyiOXWB2eY5kj9/ELxWRfFjAYB5eO0P3yk3c7PNkwTfrfs0wM+X7i4hMGbXaIiLTLNHUAs2gAFYWX8Xf/jEcPMVy/vhpP3kyKsvh2HH44NcZPvMKZeriDNKT2j1MRESeOAX/IiJTbGyOkY1IbhWIzI9KlvefhB99zNzuPY993bl7iaWXnmX04w8ZvXAI6FKZI/oRRrVh9y8iIptLwb+IyBTLgYIcmq22cHmkEwPh299j7Yd/yHh+ngG7YNSDao1+5+estIewtghUrORdxjYHITEu79PvrMEo459f+h677/4B5Z4T1FYSAE/CJWtWA4uIyFRS8C8iMsWafbfcw8MmX1lB96WXKT74IS7PIFtibdZDWGB2mJNmP6X2jtlxTRHGxKzCjwwblHw+v8iR92/DwZch5RQpIwMMAzc5RERkKin4FxHZgVJKVPkM9alrlNcusbKYU6cCX81DyqnyFaJ5qEdgq8Qs4q0LrW9R3LyNHT8NWRd8hzw6CpqORg2ELf7dRETk8Sn4FxHZQdZLb5oZGQ7r7mXl4rvE77/HXJqnrCrGWcDXXYqhQRGIfoivHSF7hvaZd8i/f5n+zCKjvAPmIYHF5oERMLTcV0RkeqnOv4jIDvKl0psp4JMRe6/RfjuHT0fw939DMYJ7nUUWVtdY60YCOd2wG3fiLJx7h9T7FokSJht9WVy/YKRJ+NG4kYjItFILLiKyQyUAV9NNEPcdhqs34eXTQAuIkBtET3SzxCNvYJduM3juEFlsUZLwzVkkB8FFIuBxPH4BURER2WoK/kVEdrBARrCKSE114ATjW7/N/UOHWVj7lHudRHfgmV94kfzyVUaHXyP5kiwZWajJqEhUjKmoaYb/fXJY0qNDRGRaqQUXEdnBfGqW5yZy6qxDceg15q9/zL8+d5qFfmCwdz9c/y04dIYCRztClfUnTwePx8jwZLiHDwwV+xERmVoK/kVEdigzAwcZOb4p1Ak+h0OneObWD1md30f72k04dZq608ESzUEimQFuEvo7/KSUqAJ/EZHpZiklFW4QEdmBEpFIBZQ4IAVwsYZ6DajhP/8F9j/PUrGbjBbdYJAgZTWsB/siIrKjKPgXEdmhApGaQIbHR9cU6TcIWWQQxxRWMnCJBLSItGJTAG7swIMW9oqI7EAq9SkisqN9IU+n2aaX2hzmW/gIM8maID8BRJJz1CjwFxHZqRT8i4jsUA7IJqk7aZKun2gCewN84uF2vdYM94fJ95XwIyKyMyntR0RkJ0uQLFJNSnU2HYLm9doqMjKIHsxR26RTQD05U10AEZGdRi27iMgOZ7jJv6aSz7pIJBHBQZpkBzkADQmJiOxYGvkXEREREXlK/C+IEQ3Z2KlxCAAAAABJRU5ErkJggg==;" parent="1" vertex="1">
          <mxGeometry x="401" y="82" width="49.33" height="40" as="geometry" />
        </mxCell>
        <mxCell id="Moh6Mw95iDRhxWac097l-2" value="Venafi Trust Protection Platform" style="text;strokeColor=none;align=center;fillColor=none;html=1;verticalAlign=middle;whiteSpace=wrap;rounded=0;" parent="1" vertex="1">
          <mxGeometry x="450.33" y="82" width="120" height="30" as="geometry" />
        </mxCell>
        <mxCell id="Moh6Mw95iDRhxWac097l-3" value="" style="whiteSpace=wrap;html=1;fillColor=none;" parent="1" vertex="1">
          <mxGeometry x="400" y="425" width="200" height="215" as="geometry" />
        </mxCell>
        <mxCell id="Moh6Mw95iDRhxWac097l-5" value="" style="shape=image;verticalLabelPosition=bottom;labelBackgroundColor=default;verticalAlign=top;aspect=fixed;imageAspect=0;image=data:image/png,iVBORw0KGgoAAAANSUhEUgAAADYAAAAoCAYAAAC1mQk2AAAL3klEQVRoge1Za0wd1dp+5sK+sLdFNi0IkiBSK5eiRVuUxjQxqYmUiBCtURODJDVRbJqoaaRRG1ONibE/TLUNP2ov4o8aTdtYLZYIsQEbEqlKhSJFqHLfpeUOezMza57zo8w6ewD1fMl3Us/JeZIVZjOz1vs+76z3st5RbNsm/guhK4pyo3X4t0C90Qr8u/A/Yv9p0GN/kAR5PZao6nXOtm1DURTcaF90dFMURer4Z3rpwHXlSUJVVczOzmJ6ehqGYQAAgsEgEhISoGnakoVs25bXywkhKQ3jwDHYYjhrOXo4BJxhGAamp6cxPz+PuLg4BAIBBAIBSXaxbJ0kpqamcPHiRXz33XeoqalBb2+vfEDTNGzfvh2VlZXIy8uDrusgibm5OXz66aewLAupqakoLi6W5B0IIfDll18iHA5DVVXk5uZi48aN0hAOEee5K1euwO/3o7y8XCo9Pj6OlpYWvPfeezh79qxcOysrC48//jjKyspQWFjoWtMRzvz8fHq9Xvp8Pno8HqqqSlVVqes6dV2npmkMBAKsqqqiEIK2bXN6epq33XYbfT4fQ6EQR0dHKYRgLNrb26mqKuPi4ujz+ZiTkyPnO7Btm4ODg/R4PPR6vczJyeH4+DgNw+Dk5CSzs7Op6zo9Hg81TZO6aZpGn8/HYDDIt99+m7Ztu9bVAWBgYACapiEzMxMpKSlITk5GIBDA8PAwurq60NPTg0gkgsOHD2P79u3Izs5GIBBAZmYm+vv7MTs7i/b2dmzatMm1HQYHB2HbNmzbhhACk5OTuHbtGpKSkqR1FUVBXV0dTNOEoijYuHEjAoEAIpEInnjiCXR3d8O2bWRmZiInJwdZWVkAgO7uboTDYfT09CAcDi+7t3n8+HH+9NNPnJmZkcydceXKFZaUlBAAAbCsrEzee/XVV6koCnVd53PPPUfLslxW++CDD+Q8RVHo8/nY3NxM0zRdb2zTpk1UFIWapvHYsWMUQvDQoUNy7p133snR0dElulmWxV9++YUDAwMuuVxwTAohpFKLh2maPHnypBRy8803y3snTpygqqpUFIUJCQkcGhqiZVly8aqqKqqqyrS0NKakpFDXdX788ceuZ4QQTEpKksR7enpomiaff/55aZBnn332D/WzLGuJC5Ck6kSq2KgXO0hi1apV8g1PTU3BsizYto177rkHoVAIiqJgamoKra2trjTx1VdfwbZtlJaWIisrC6qq4vPPP4cQQobs2tpaXLt2DSRx++23Izk5GQCQkpIig8sXX3yB0dHRZfXTNG3ZSOv6jxACo6Oj6O/vx+DgIMbGxmBZlivaKIoC27ahqirS09OxefNmKaSpqUk+19nZid9//x26rqOyshLJycmwbRtnz57FzMyMTAUffvghHONu2bIFXq8Xqqri0UcfRSAQAACMjY1h69atqKurQ1dXFyKRyFKfWs7HLMtiW1sb09PT5ZaLHQ888IC81jSN0WhU+kd9fT0BMC4ujg8//DBt26YQgtu2bSMApqSkcGpqip988omMtI2NjRRCcGxsjD6fj4qicOXKlRRCyG1lWRZbW1vp9/upKIpLH6/Xy/379/Pq1asyyi7xMdu2uXPnTnq93mVJLR6xxCzL4sDAABMTE6nrOteuXcuJiQkKIbh+/XpplPn5eV64cIHx8fH0eDzct28fLcvib7/9Rl3XCYBbtmxxKegYfOfOnQyFQq4g5PwNhULct2/fkhRCknjrrbfo8/mk1V966SWeOHGCp0+f5smTJ1lbW8sdO3a4iM3Pzy8Rrus6fT4fL1++TMMwGAwGqaoq9+/fT8MwGI1GWVJSQr/fz4qKCpqmydbWVqnogQMHaBjGkhwnhODQ0BBPnTrF3bt3My8vj5qmSXIej4eVlZU0TdM1FykpKXLxXbt20bZtGoZB0zRpGAZnZ2fZ1NS0LDHnrdXW1sqkeebMGf7666/UNI3x8fEyTAshuGfPHiqKwvvvv5/T09MypDvbMzYNxEIIIUnPzc2xpqaGaWlpVFWVAOj3+9nW1uYmFhcXRwD0eDxLWJOkaZpsaGhYdis6Vu3p6WEwGKSmaSwvL+dHH31EAFyzZo0M00II+YYCgQBHRkaYnZ1NAFyxYgWnp6eXyF4MZ6sahsGJiQnm5+dLnd5//3135cGFsBsXFyeLz8W4ePGivCYJ0zTh9Xrl76SkJCQmJiISiaCjo0OG34yMDFf4D4VC8Hq9mJubQ319vaxJS0pKEB8f75LNhRoytv50/mqaBr/fjw0bNqCjo0NGWBcc/wLAY8eO0bIsOUzT5JEjRxgKhVyR6dtvv3U5uWEYfOWVV2T14OyCF198UVpZCOGyclJSklyvubnZtZ4QgrW1tayrq+PMzIxMwrG6/fzzz3TcyOPx8Ny5c+6tmJmZKZX2+/2sq6vj0NAQOzs7WVpaSlVV6ff7GQgEpCKvv/66K9sbhsHm5mYGAgGXAd599135nBNoiouLpW84LjAxMbFkuxUWFlJRFBYUFHDv3r3s7e3l8PAwh4eHefToUSYmJkq/zs/P5/z8vJtYX18fs7KyXD7k8XgYFxcn/aGuro4dHR2Mj48nAFZUVLiIOVbevHmzKzV0d3e7hJmmyb1797qIHTp0aEkktCyLW7dupaIocjgnBK/X65pfXFzMcDi8JJfBtm22tLSwuLiYmqZRURSqqirD6KVLl6Sw6upqPvPMMxwfH1/i1EIIHj9+nAUFBVy3bh2rq6uXOL8QguFwmA8++CDXrFnD9evXc25ubtkgMTk5yYMHDzInJ0ceVxySqqoyMTGRVVVVHBwcXDZBK3SiB4CrV6+iv78ffr8f6enpCAaDSwLJjcDk5CR6e3sxPj4OAAiFQsjNzYXH4/nDOS5iMZc3vMexGLG6AX+tn4vYfwKc0O6o7aST2N+Kori7VH9ncKGpI4TA2NgYJicnEY1GMTs7C0VREB8fjxUrViA9PR26rl/vefxVxv87wDRNfv/993z66aeZmZkpa0VnAGAgEOCZM2dILvQ8nKytadoNfCd/jiNHjmDHjh3yLKZpGrxer+tsNjc3h5GREQCAftddd6GsrAxPPfUUcnJyAPxx7+9G4qGHHkJzczP8fj+8Xq88kEajUYyMjOCxxx7D8PAwfD7f9QkrVqyQheibb77JkZGRPzy83UjE9jgMw2BfXx/D4bD8fffddxMA6+vrSZIYGhrihg0b5D696aabuG3bNtbX1zMSifxtyAkhGIlE2NjYyPLycvr9ft5xxx0cHh7mxMQEU1NTCYDt7e0kF7pUs7OzPHz4sKscUlWVt9xyC8vLy9nS0rJsJ+j/k3Rs5ykWlmXxwoULfOSRR2R9CIDp6ek8f/48DcPgjz/+SEVR6PV6GYlE/knMQV1dHYuLixlb8WPhZF1UVMRdu3bx6NGjPHfuHPv7+2XlvVxb7K/GYjKWZXFmZoZ9fX1samriwYMH+dprr3Ht2rUuXRISEvjkk0+yq6tLVvwvv/wyAfCdd96Ray9beZw6dQq7d+9GZ2cnTNPE4vsOnC5VUVERcnNzkZSUhJUrV8Ln87nOdrFfSLiQYKPRKKampnD58mWMjo7i66+/RmNjIwYGBuT6TvfLtm34fD7k5eWhpqYG9957L4DrXbXe3l4UFRXBtm0MDAz881y33HawLIvRaJTffPMNKyoqZDMltqrGQh6J7fF7vV4Gg0EmJCQwISGBiYmJTE1NZUZGBm+99VauWrVK3gsGg/T5fHK+U4A7azt9jYyMDL7wwgtsbW3l/Py8K7AJIXjgwAH6/X42NDS4doOLWCycVphhGLx06RKrq6u5evVql3Cn4l5M1BmxCTR2LL7nPI+YpFtYWMg9e/YwHA7TMIwlHV+HxBtvvMHPPvtsSXv9X6oVnQQ+MjKChoYGtLa2oqOjA0NDQ+jr60M0Gl32w9xyWPzhjiQSExORkZGBtLQ0FBQUYN26dSguLpY56c/yqmmay367+z8VwUIIlyAhBNra2nD+/HmcPn0aP/zwAyYmJmBZlmxjc3FxquvQNA0ZGRm47777UFpaiuzsbKxevdolR1XVf6lQcIy5GP8A3q2uTQ67t5MAAAAASUVORK5CYII=;" parent="1" vertex="1">
          <mxGeometry x="403" y="427" width="54" height="40" as="geometry" />
        </mxCell>
        <mxCell id="n85-47FMdQ1bUjtsNz0O-2" style="edgeStyle=orthogonalEdgeStyle;rounded=0;orthogonalLoop=1;jettySize=auto;html=1;exitX=1;exitY=0.5;exitDx=0;exitDy=0;exitPerimeter=0;entryX=0.99;entryY=0.75;entryDx=0;entryDy=0;entryPerimeter=0;startArrow=classic;startFill=1;endArrow=none;endFill=0;strokeColor=#3333FF;" edge="1" parent="1" source="Moh6Mw95iDRhxWac097l-6" target="Moh6Mw95iDRhxWac097l-7">
          <mxGeometry relative="1" as="geometry">
            <Array as="points">
              <mxPoint x="630" y="541" />
              <mxPoint x="630" y="230" />
            </Array>
          </mxGeometry>
        </mxCell>
        <mxCell id="n85-47FMdQ1bUjtsNz0O-3" style="rounded=0;orthogonalLoop=1;jettySize=auto;html=1;exitX=0.5;exitY=0;exitDx=0;exitDy=0;exitPerimeter=0;entryX=0.5;entryY=1;entryDx=0;entryDy=0;startArrow=classic;startFill=1;endArrow=none;endFill=0;dashed=1;strokeColor=#FFB570;" edge="1" parent="1" source="Moh6Mw95iDRhxWac097l-6" target="OUz0pmae6rex_LKDjg-_-2">
          <mxGeometry relative="1" as="geometry" />
        </mxCell>
        <mxCell id="Moh6Mw95iDRhxWac097l-6" value="" style="sketch=0;points=[[0,0,0],[0.25,0,0],[0.5,0,0],[0.75,0,0],[1,0,0],[0,1,0],[0.25,1,0],[0.5,1,0],[0.75,1,0],[1,1,0],[0,0.25,0],[0,0.5,0],[0,0.75,0],[1,0.25,0],[1,0.5,0],[1,0.75,0]];outlineConnect=0;fontColor=#232F3E;gradientColor=#F54749;gradientDirection=north;fillColor=#C7131F;strokeColor=#ffffff;dashed=0;verticalLabelPosition=bottom;verticalAlign=top;align=center;html=1;fontSize=12;fontStyle=0;aspect=fixed;shape=mxgraph.aws4.resourceIcon;resIcon=mxgraph.aws4.certificate_manager_3;" parent="1" vertex="1">
          <mxGeometry x="479.39" y="520" width="42" height="42" as="geometry" />
        </mxCell>
        <mxCell id="Moh6Mw95iDRhxWac097l-7" value="" style="sketch=0;outlineConnect=0;fontColor=#232F3E;gradientColor=none;fillColor=#BF0816;strokeColor=none;dashed=0;verticalLabelPosition=bottom;verticalAlign=top;align=center;html=1;fontSize=12;fontStyle=0;aspect=fixed;pointerEvents=1;shape=mxgraph.aws4.long_term_security_credential;" parent="1" vertex="1">
          <mxGeometry x="477.39" y="200" width="45.21" height="40" as="geometry" />
        </mxCell>
        <mxCell id="Moh6Mw95iDRhxWac097l-9" value="ACM" style="text;strokeColor=none;align=center;fillColor=none;html=1;verticalAlign=middle;whiteSpace=wrap;rounded=0;" parent="1" vertex="1">
          <mxGeometry x="479.39" y="560" width="50" height="30" as="geometry" />
        </mxCell>
        <mxCell id="Moh6Mw95iDRhxWac097l-12" style="edgeStyle=orthogonalEdgeStyle;rounded=0;orthogonalLoop=1;jettySize=auto;html=1;exitX=1;exitY=0.5;exitDx=0;exitDy=0;entryX=0;entryY=0.75;entryDx=0;entryDy=0;startArrow=none;startFill=0;endArrow=classic;endFill=1;dashed=1;strokeColor=#FFB570;" parent="1" source="Moh6Mw95iDRhxWac097l-10" target="OUz0pmae6rex_LKDjg-_-2" edge="1">
          <mxGeometry relative="1" as="geometry" />
        </mxCell>
        <mxCell id="Moh6Mw95iDRhxWac097l-16" value="Venafi REST API" style="edgeLabel;html=1;align=center;verticalAlign=middle;resizable=0;points=[];" parent="Moh6Mw95iDRhxWac097l-12" vertex="1" connectable="0">
          <mxGeometry x="-0.6647" relative="1" as="geometry">
            <mxPoint x="23" as="offset" />
          </mxGeometry>
        </mxCell>
        <mxCell id="Moh6Mw95iDRhxWac097l-10" value="" style="whiteSpace=wrap;html=1;fillColor=none;" parent="1" vertex="1">
          <mxGeometry x="80" y="271" width="120" height="89" as="geometry" />
        </mxCell>
        <mxCell id="Moh6Mw95iDRhxWac097l-14" value="" style="shape=image;verticalLabelPosition=bottom;labelBackgroundColor=default;verticalAlign=top;aspect=fixed;imageAspect=0;image=data:image/png,iVBORw0KGgoAAAANSUhEUgAAAQwAAAD3CAYAAADormr9AAAgAElEQVR4nOy9d5hdZ3Xv/1nvPme6RqNmy5bcbbkXyZ0YW25ykys2JSQ4hICxCaRAnssvl9zLfUgukBBfwECCCSGAg3Ev2MY27sZNtiU3dcmyeh1ppBlpyjn7Xb8/1rv3OTMqSJozTbO/PEYzc87Ze59d1rvKd32XqKqSIUOGDLsBN9AHkCFDhqGD3EAfQIbBCwXUe8AjEqECoj686lDx4BWc4D047GdwiHpU1d6DQ8r8WBEp+znqvy+UodfIPIwMKVRjMxKlPwBmIFQAPB41Q6AxqmJ/9/a+WJLbyYyEfcbhUmvhyv6D7PYbesg8jGGK4h1fQ2NwretxxSIeh6qmq7+qgIsBByPG4aqqiSOHGzUeydcQjxxDVDMCHTkOXxUR5WvRfC3FqmqiXDWIIuJRL6gIKg4RMzIo4BRRUATJDMeQQWYw9lH4f/kT/JaNSEc7Pu5CPAigaiEGOJzGeEKYoYKiiHOAxymouDTkgAhHjIrgJUKdUAQkiqCmjri2EampRxpGoo1j0TETkDET0P0ORupqkdpGfL4el7NNipqhELKc+1CCZFWSfQPxl86wf1WJRPDiEa8kbr+o5Q48JS8CdSAeUfDhwXUIqmYkLF/h7DPBK0i2ZR5I6XePlOUpPLgobCcHY8bDxKORA49Axx1s/46dYMeTy5HT3c9jlOc/MvQ/MoMxxBH/5enh4e75ircwYJdX1wxCAktqbv9z+evp57wEz8MMTvd9Jfvuvv1YwNXUQm0T2jQOGX84OmEScuBhMP5QqG0EzCikxi1s25V5IpYoLSVfM/QfMoMxwPDahZKzqkJbC2xai5/9HO6tl2HzaujqgrjLPAdNEpDbVx3K8w+DFaqx/eAiVGOcy1nupDqP5OqIj5pCbvKFZkQax0BVldkl9Tii1IA4l0M1tu+NY3B/630LmcEYQBQL22DTGli9DN5/G1n6HrpyPrRvAXVIlAsPma2iqhpWWpeu9jsrVw5GWNhjRk/UpZWXBCoWxrjRE+GwY+DwU+HgY9Cx43H1TcEwmvchWM4FyExGPyIzGP0M1Rjt6sC//w4660ncsoXo5tVo+zZcsSvwFnIY98E8B08O0RjnzGiUHrYSkhzFYIbxMgJfQzzqQ+7CmRG0BGyMKBSdI6qqh4YRyP6Ho0eegpsyDRk93sIlolD2hZQnouVhy+A+F0MVmcGoMLwPK6gIGhKKSox2dkDzanTOy/iXf4PbsBQorY5qhIbu4UZIPCaravLAiZjRGGpQjUHykIQTmlRgrFKT8DYgZFdChSYmtqpNlEOOOwc56yqYOAkaRyEut8N8CXicy4qAlUZmMCoA74tA+aoWbnrtQprXw6KZxHNewi2fDxtXIeqJNbmhvXkMIQeRJBsThmQSkjiSJKC3h8xLt1V0KOQwkpBERMoMni9LsLpubFKrxEgp9xEYpNTUw36HoMeegUw6Az34OFx1rZWBA0R9GsI4N/SM62BFZjD2GB5NSpXhL6qxlRUpQqA667ZW5MW7iV/7HbSsxhW7wCf5CCs7GsfB3PHtKxJhxfRJibO0f9vn0DMYKSt0u+/Ts1LjQ3jR3WMwXoh5J7GzsMTVNMFBR6GXfAY56hQARGJQRcin28so6JVBZjD2CrZWSkhBqvcWfmxrQ1cvRGa/is58Et24JrxdkciFzH5I7DE0KhsDiYQbkngkGqjqlgeR9HXVGJerQQ8/CaZciDv2LHTkWCRXBV7S92fnuvfIDMYfQPnpKc/qJzG2SIQW2/GLZuJef4J44ZuweSORFtOcgzrBxSGnIUlz1kB8m6GD8qRuQiwTETO+ovielZHwd62uQw84HDl5Km7y+ciYQ+heiQFH5m3sLTKDsQtYk1X56Sm78VSg0I42L0WeuRed+xLS1tLt/Y5STiLJP2SucWXQjWSmpdwIoSdG83kYfSBy7g1EJ52LbxxLHAlOLQ+SJUT3DpnB2AUSDwHKE3EKcRe6dC76xm+Rt38PWzeW9VyUvJK0AiJJOdQqHBk7ce9RTlNPE6UhMSyShCil65aLaihMPIJoysX4U6YiTfvhJJd5GnuJzGB0Q6hMAIJP3V5r5VYED5ub8S/dD8/cjSt2AGZMYgcu3hEPIDMOfYnyMFG1lExNStoixhB1HvzhxyMX/in+uLOJclWIc1mn7B5i2BuMlNugkBKA8KCaluk0LkJrM/rWU8iM36Krl0CxkG5DRIMmRHckLnKG/kX3vFPSQGf/L3Wj8JNOJXfu9fjDTkRy1RlTdA8wrA1GIgQjTkG7061TtahCJ37R2/DET9FlC4gKRVSKwS0WRHPErkjkk20aAQsyNamBhmrco6ISeBwuQhuacJMvRKd+HBkzIctp7CaGrcFIvnZyUxk5SksdksSwfiX64n0w4zFo35IaieTzCR07YWdmZdLBCB+uS1RGTRc8ocR9yLHouR8nOu5sXH3TQB/soEdmMMr6ESAkKDvakZm/Q166D121GIqFbtqUJQOTGYfBjR6ksJSKXkpgq0RQ14g79gz04hvJHXj0wBzqEEFmMALtOBYHvgu3cTXy6E/xbz+DFNtDqNL9pnPuD/Moku1nHsfAouT1letnJFya5NqEcndtA1z3V0RnXj0ARzo0MKwMRlKvjwUiTZqcQndk3EX0xhPI7x9Al84mKdMlQrclzyJhHu7OvjKDMZDYkQhQCeVCxUnzm0Orq2HyNHJ//A/9dJRDC8PGYCRJTCNRxYE1GFmo0bmN+L5/RmY9j+vq7JafyDBcEErjCbdj5Fhy33hsoA9q0GFYGYzEm4DgLcRFWPw2/PY/0MUzUSeITzpEsnLo8IJPdUoTPoc0NOK+9fRAH9igwrAyGErBukm9ol0dyMsPoc/fCZvWlEg/qU5lZjCGG7qpm4W+H5+rIX/r7wf2wAYR9lmDUZ5DSH723lteoq0F/9yv4IV7kM6ObpqYFo74jHQ1LGHsXhFBY49EJTGf/PdnDOyhDRLs8waj289SRBe/iz7xM1jwJhJ3pQrU6RQvEkUryAzG8EPCyzFvs3RvAORue31Aj20wYJ81GLEWQ0NYhAciBV05D/3l15GVi/A5R+S3V+DOkCFBSX/DmSgzRTSqIve9Vwb60AYM+6TBUKBIJ5GPAId2taEzn0Se+DlsWttN9m7XpbcMwxmlMrwL7A2HC0Yj/93haTT2SYMBnjg0k2lXB/LsnfDsXfiOFlysqWhsKXeR9Xxk2Bl8Kr+o5Eol98ij+x9D7n/+aqAPsF+xTxiM1HVUC0FE7SJr63rcs3dTeO4OomJppmgqkZdI3me5igw7gFXWHE7ibjmuZPKbRg6ZcCS5/zF8jMY+YzDSZJXYVC22biZ+6Hu4mc8iXQVrJksUuoOGgpG3Mq3HDDtG2j4QFpbSuIdS+RUnsN8hRF+7Z+AOtB+xTxgMT9y9KrJlE3L3v6BvPWXhRzAI1iyWzeTMsHtI7ylX1nOiCU8j+VOcKphz4/8mf+oV/X6c/Yl9SATA0lJ+3VLk0Z/Au8+ZXkWYKm7dphGZociwuyhNuU/+Uj73JHQ2i1XbYhFyj/wHcQwy+Xxcvq7fj7c/sI94GAo+xresRe74Brr4bTTuNLVun7N5IS7KqiEZKopUqzWomYODuhr4yFfg9ItBHJFUDfRhVhRD0sMot3FpI9mGlbh7vokueB3E2Wg9NakU+0xsbmOGDJWCV5yIOSBOUC1Cexvy0G14J+gpFyCR26fUvIb0N1HxoB5ta0Uf/09YMAsS7YpEA8EJQ9+HyjAYYUOhS+FJGsK0tSCP/hgAP3kauHifUSgfkiFJMssUMRVvfeSH+Dd+h8Q+FUvp6Spm8v4ZKo0dk/5KbQZSNxL5479Hj/8QLsrvE3yfIfQE+dJgIbFxedrZgf7uZ/gZTyJxsTQOQJ1ZdJ81kA0HdB845Xv8V3pPpbGznFiiG8rWVvyjP4LFb6PEZUOlhy4G/dOU3AyJ1VaxYciuWER+dwfxy48GEfmghCXlTWSS/jcEvmqGvYULU96D1mppkHNpHivOlMNNF0XTnysNVUlVyr1TZM0y9O5/IV65AMRbj9MQxpB4ilJilhYsxCh04l+4G/98MkzIpf+JZr0hwxXl112lGBaY4F14TV/3O/54xeEI+163FLnvNnTNMps8n06nH3oY9Aaj28RuMUUk3nsF97tfQUe7JZy8uRTdxV4zDBd0XySSPFau7KF05lEEAxIlagcVZvh211Tpoeu6ZCb+4X/Hb23BafdwaShh0BsMKV82vMDSeZbkbFtv+hbiEBfjEoJW2VzNDMMD5n3GqVEAQrLbB3avw7mSGA5OQw9ROSrwAIewKAmDbRBjUHKLIZrzIvLEf6HtbUPWwxhSZVVdtRC971Zkw3LrGfHF1OR1n+adcS6GExJPQcF6hVTxuRxSVYPmayCXQ3GgMeILxIUirqsdV+wKW0hC2l7Cp67Ljl+OO+GVR6BxHHr+J3q/vwHAoDMYHmvsUbXJVAgIgnZ04Z/6BfrBXETFLr7kEcr0/7Hms8zB2HfR04PwkeDU4X0RifL4xjHoIcchhxyLHHQMjD8CbRxjnoYq2tqMrFuGLp+H/+BdZMV82LQBjQuU9xmVZu3ufsJ8VyGOOgXvoKMNffqXyKHHEh92SikpLxoGQw9up3/Q8TB86Cq1LtIwBqCrC33iZ/hn/xvX1ZHK6hkG9wnOUFnYKMtkpkgIOSSPTjwSTrkAPWoKbvyhUNuYepwiYgO2gWRQovceOrcSb1iFLHoDmfUMunwuFAuIGm/HI0E3pffeqvfejteZUfDjJiCf/iYy4ciykRau4nmVSmNQGYwkwelTjQoPWkRmPIa/51boagcIFzRJcGYGYzjBh0ff4XHk0boG+PA1yIdvQEc0oeQQUZwkgyxDd2myAbVWAo+AFkoJ846t6IzH4Inb0a1b09JoJebT2Hxu09aQkMDHK0w5D/nYV5GG0amGbGYw9gBJ4go8XhxOHayYB3d+E10+J20tFtGynEVmMIYTVHw6EkKPPBGd9mncMWfY+Ahs0YnS0Zaue36DUshrk862H6qt816De/8V1ryPx2bU9NbDSLwiFRd0NUJytqoOLvok0YU3olVV2PDG/KAOqQfp02bNY9LRij7+E3TlgvSV0kV2qZpzhuEDjbHV+sgT0Y/8HXLMh3BiqThRiBzhvnBB0qDss+lPyWDtkKsIzGEwXQvp6igTh67sI5IaPBHo6oAX7qE452UqlnjtYwx40tMsfwgtxCPeWHt0FfHP/Ap99yUitQIZEOJXsITU4D/BGfYeSUiQMDUByOVh0qlEH/t7dMxYS2RKZCMOEwPhNBQ0S56BpP8GTySILqlg3myxgCybj/7Hl6GrDc3XIk37oc2rbEKebdg+K36PmskcYuGIApILM3s9ooK2tSCP/wf+wCNwYyeCxCjJpPnI9Fz28vz1BQbBExfaz8FKX04QdfhFb6GvPIzzxr93JDTvKLiIg+DQM/QxSolKVSVGkXET4YrPURwzPr1fgNK9QW43HmZLQCYeiPgY5rxC/N9fh46tMGIcTL8J96l/RA89DjChHDNculd5hrRNQZNh3uH+9QJrlyLP/wrf2W7qcWUMVQlB+mDBoHjqjEZTWk18+2Z4/g5k8wbiQXGEGQYCEpi9IooXiDzI5Z/FHXxC2j9UKoHuCSwc8YkRWDYfvf9W3PqVaHUteuGniKZejx40ifyFn8bXj6F7ybVSN6VN4pO4C15/Apn3EqVHMngzquggMhkD+jiGFiAkCLkD0NmFf+ZXyMKZCEWczw1ZVlyGXsJb06FHcJJDzr4GPf6cbuxfE3/eM5Zm0jXqikWYNwN3+/+A5jVozQi48hbkQ1eCq0VEKB53Fu7DVyFR3pKiaWK+dzAPx5m37BW2taGP3o6sWGQjPRWgaN7IIApKBthg2IkwsxHjifGLZyIv3IMWuqxElpJnMgw7uJAc9DEy6gA4+ypcVXUpQVnGX/hDSOjjSSerEiOLZ6H3/Cu+dQM0NOKm34T78A1IlelxigguF6FnTIexB9mGfGXuRet/8RTFjJcKsHYp/qX7k8yuJfZJcnyDAwPr8Ps4bV8XtVo4L92Pb29L3gAu6w0ZjjCvwVmXqQgcdhzx+EMAS1w6BJz9u6sVOG1vT3+PUd+Fzn0df+c/IRuWQ3U9XPRJ9IzL0SjCuVxpm15h1P5w1BT73UlZ4n3vkeThcmo5OVFjlvD208jcMPjZhTEHvd5b5TBIMgQOHxfwrzyGzn+DKFjfpHRaiQuUYWhB1EFIePuqGvT4c4hqGuy1tCy6622Uv2w6GLF5sgteR+75DjSvRutHwfV/izvnY0hVHVHanBTIg05xUTVyylQkX3lB30S6Abx10bZtQZ/4Kbp+BRoH8tkgCskHhcEQ9bB8ETx3J1FnZzc3MyNnDVckLF6PVFchh08u8zRdN2GknfoXKXM4tBn4GF0wC7nzm2jzSiNOXXIjevql+HzOhHtDjiIJg4WQb9j/UOSgo8vEeXqPksBT8DIkEMWWzENffRjijjLW8+DAgB6JOCPLxh1t6GsP41tWWx5jUDlhGQYKKsZ91P2PgJFj94j7UEqGlhrJmP8G3PvP6KZ1aH09TP8cnHl1eFDzOF96OJNVP6GOa30TesDRfZ5PM4NUhFm/Q9d8QEJAKynPDeyzMcBJzxyxgFsxF5n1FBHS7abIkp3DGaU2ACadCi7a7YWk+xiKoNa2fD7c8Q1k7SqobUCu+WvkvI/iahtwzoV2gyI+7kRfexT5xg34Vx4xL8ULLl8FBxwMVTV9nFMLBmvTatxzv8YXC8QMDmMBA+3r+BjX2YE+ew9sbSUON0RC0gJSBaPBcLIy9CcCR0FB9j885LF2N5cV3ucVXyzgZ79E8favQOsmtGEEMu1GmHwRkavGhZYwJEIlj3RuQ2c+Qbx+FfrCr/DNy9PkIyP3Q3L5Psyp2XdUcjiF+J3n0PdeRHxJLWygCwADHhzJm0+j82eYBN9ObEIpXs0wXGDMyjA4u2FEUMna3XsgkeRzyLJ30Ie/T27zBrR+BO6yz8I51yO56m6fEDzOm/AOI/ezcv6m9bBykb3BS6ra1VcPbSJQLFg7vHRug9/fj2xpHjTPQD8ZjMSZ9OlJUTzavJLCq/fjih2hK1D2mISTYV9FSQneVVWnVY5dvTfRA/coxAV08SyiH30Zt3oFcb4Kd9lnkLOvgrxxORJ/NhWQFsXlapFDjrdyalcRNjVbL4jGZf1MffPYmP5LRCw+LbVG778Ds3+P+q5AQwi8jT45gj+MfjIYZTRXSdwuQea+hqxaRJwMfskUvzMEpIlKHGzZjCdH6Xbtuai40Isk1nSmHubMgDu/ie9sRxtHwZU3IWddA7l8qaej2zY8JAuWj1EXoc4jkd235l34Pl/pIxGisoegWOgIQ7ribk1vkiqD9C/6xWCY5S/YL94k333nVvzrjxN1dhEFzkU/HlKGQY+k4SxG1y3H4Xe9mGjiw8bQ2ox/7N/Rte9DTQ1M+xOicz8K+Vp0J15K0s/kOgvI8rmWM8s5XH1T2LxSbG0hLnb1cT4teFZa+lkXzcTPfByRfPCMBm5MQb88nRIadmJJ5NJieP238MHbFg+6aFAkdDIMHqiYgXAKbsksI2u5hJ/T/bZNSqim0O1QZzxNc/EFOjugaF2g7CScELwtZBtX4BfNQlwBHXsQeujxVt71ntzapUSFjp0n2yoAWzhdKugTaSB0PfpTaF6BUAwt/QQN0P5Fv+3R1IacSaNtXA9P/SwImPQQOcmMRoaAJPEZr1iIbt26Hc27O8pChvrRyMV/hjbth+9oR575Nf6ZO/CF9l2PoXCCxMUwdlOQE85DRu5n2922Bbd6cb+t7D3ntuqWDcSzf08cx2lINRA+Rr+bKPFW5nLNG7qPNdQsh7Fvw6cPa6L1kCbAhW6EPXtYym7NrZvRpbODurYvayQLzWQSektS7kYEJ5+Hu/IWXEMjurUVefIXuJfvh7grve88pV6mRMWNkWPhpA8j5/8Jcs41kKs2b6VlDcXlc02cuo+Snsl3t9OV5PuCIYyL8M4Ldi7UvA8GgMzVb4pbguC1iGttQd57kXKZtBKy/MW+DlXFi8eFVnElwpXd8PY3BwrijINDVycy/zWYNAV6lEPtPtqeASouhz9tGuQc8vCPjQr+xH9BV4w79zqoqe+hNaGIxkjjOLjmr4JxyttLhRg/91Vk6+awxz0p8e4Z0gVTBCEKOZfgiS+bBwveRKdcGt64D4ckhI5Uv2webvlcC00yDCM44qCTGREhahl/SSeal8JTUdJSZjqcauGbyMY13T2T8O+OwpRk8picdD5c8RdI3Qhoa8H/9nbi5++Frq40sVjaT+B9RFWIy5FOgG/fgs55yY5D+nbMYbnHUN63ogK0t8FrjyBdbYHk2P/Jz37jYYCHQif62oP4rVsYqrMlM+w9oqD2nmpSCCRjp0QEjXJoVIVNWi+vZnhYt5z47ReCVoQhGUu4q25On8shp1wAH/sq0nQAUaETffYO/O/vh6JV7qxEGTQokpGbZclVP/c1ZMUikrGHAxM2h9Bk4Vv4RW+RG6BkXz+FJA4RT7x0Psx5LQyt7Z89Zxg8UC82qQ4s71BTix8zHsYfik44EsnVgi/CmiX4ZbNxa5cRxzEIRJ0d6FM/xx8zGTfxeONGECFiLvt2+wpGxKmHXA53ynl4IL7vVtjSDL/9CRTa0akfheoRph0bqitaFubo6sXw1H/iu7oIcVKfyi0krRDlv4cvZMY2LiAvP4SfdCouX0d/pz771GCkrpV4tFjAv/4grlgIKspZdnNfRbep5ZisfjqkqrrW1LOOOwuOPgOZOAlpHFuaei6W65KWDfgFrxK9/hS66G1UOnHtreiDP8T/yf/GNe2PShFVZ+rxPbyMZDqekjMD4AQ58Ryk0IF77CfoxlXo078wb2bqJ5BcFU6N/KUiiMbolvXw+H/C2uVB+y3xjPoqg5Ece2nrpWcovKbAyvnI6vfxBx+Lq8BUtj1B9PWvf/3rldygWWe76JbFNVanW78cefq/kW2bzUqTK602GYYkjERk9b10YFBCuZYwE1ftfsAJMnZ/uOBPkUs/gzv5fNwBhyM1I8K4iLIHQxyupgF34JG4o05Fq2uR5fORuACtG6HYiR4+GZfLhWqBJ5mDZzNKFZFgSASciFUdoggZfxh+1Djc++8gW7fgVywil6+Cg481ioY6I0bFHp76Bfr640gSujgJ2+0flc1ywyGB+yHOQaEAo/ZDDj8FnAuU1eAdaWw/95ELX3EPQ3B44iAIEuY5qBLPfwM2r8d5QUWBeFCJm2bYc0jyoIr5i4l8vqB4b7OHxUXEjWOITjofufImpLq+VE5PKwJqD6poGMItaLET3bCCaNkCaF6Ljj4QXb0QKRaQF+5DOrvQqz6HaxgVvJNE0s/hxad1E/MFJBgSUJcjOvkitAj+wf+Ha9uI/81taLGAO/ejUOWgvQ3/wj24J/8rJYAB/e3926kJD75PZrx6RbUdee9l/NlXIw2jjRifTH6TXUoK9Rp9FpKIJm6Ug852ZP4MKCQDYUJ2VwZ8jlKGXiHhPWByeiqoSyZ7gc9Xo8edRfRH18ARJ9twIA1udmAySuKB4CFRumpeg750P/rOs/jmtRB3IporS5iCf+03tt+LPwVjJlgYIdFuzfFQJzBlqjE2H7kd3bACefZOGy502iXos7/GvfxgII717DkZGJghDj1YmoPV7yOLZ8GJU8HlSrKFfXy0fTJbNclwp9nwD96Gn34N2dxsPSWaw4snNyguRYbeIhkunHgO5hY79MqbiD58A1pVF7wAQVwc6Nk2hMiV+phtWy3rkF9/Gz/3Fbw3WnRc34Db7xAk9rBqARRjiihRvgq//0Sia78Mk04NCuOWHIx6LEZaXl1J2J5e8TOfgDu/ievqQqqr8SPHoBvXIUUPwUPeE6WvvkKSw0hyQSIR8ann4z7+D7jq+nAeS4On++rJqrDBMCtn3H7s4vkC8eM/IXr85z0YfL7XQ24z9C963ioimiYCbfyfIPkq/NFnEl34KfSw48MwooSFWeJZJNTn8vm4smox/oHv4ue/guZrkOM/RHTWNeixZyJRDlFP3LEN3nwSXn0Ils8H75HqWjjjcphyITruUNyIUTY2UUul0fKY3kJmQbzit22C3/wYXnsMjTu7fz81EeC+ZHbuGcx7s2PKoXV18KV/w004HNRmnCSGt++IZX3gYSRWUFXRLevR738eWbfKXEAvZYNoBsuFyLA72Omt4sLKXlMPH74WOe9juJHjKDcShHChfFtmLIIRaVlDfO+3cbNnUERwZ16BTL8ZN2JMYD0av1K9tzEBG1bCr/8RFr9n25OIaMRI4oOOxh19FhwyCZ1wTCg9lio2ANrVYeXSpbPRRW/h359FbktLqNJ0p6f37OkYWIRQ3iXVmjzc8BXcH12JEIUzFNrfh0LSM3WFRAK9N4YV85FNzYFgI2lGN8NQQfAa06pHjHcmxl9iSAqMPZjo0k+jUy5C8/ky77GnF+nSbRKqobp2Kdz3/5B5b+Cdw510LnL5X+BGjAoPsHkolrQUkByy/2Fw0afRVf8H2dZi3kprMzr7FXT+G1DbAHV1+FEHwohxSNNY2NwMWzYiLWvQrVtwbZtRLaYlU0mPr2QkBo+xADs2tWwyHnEF/MLX0NMvg+ooUMl9CA/7Jj9Y8a2akEnIdmuMLpppsyMzDFGUvMAkDyAaqiIK5KrRw0/CXf0FdOIko1XvFovXbmy3fhn+/lvReS9Dvg5OuxR3xefQxjE7/aRIZMdy6InIUZPh3RfsWFRwxLhiF761GVo3wdqVtjeR1MihLl3YHD0qNkMAiRH16pElc5DN62G/iWWv992CXNGYIKHYJkw4LRRg8TvdJpxlGHpQNdEjXOBTBHq0Rjn0zGnIn/8THHIM6vKwC6GbIiVBZxWHbl5DfO93kLmvo5JHT7yA6JovpcbCh6m73WG9Hw6BuklPi5QAACAASURBVDr0yJMteZkuUs7yFz3UuZyX0owbV9atGiQhy4WnBzfKjbGDbW34999JO3dL1cm+QZ/4LUamiWHtEqR5VV/sIkM/w1ZhSwCKKH7EaDj/E8iZVyJ1IwkySYEpuX3Qqao4Dbrw4tGVi/CP/gjmv2H9HidOJbry8zYCQHa9jhkb1Lo5pXZEqd80TGO3YzQD4SlXr5Iy6nVpGntyfEPDYHQ/N9K1DZ3zEnryVFy1Cwaw74oJFTYYIc7EViR9+wXY2hb495XdU4b+gwo4T1iZizD2UPSaW5Djz4fQUGZ9HZhR2cGDl3gVXjyycS1y/3dh4ZtolENOv4Lomr9E6xoTvuJOJ6am3as+xvsi0mot52YgSg9L+f1WSngGtqSWeROadKAqffmgVRJJ2dpJ4EoveQeaV8DESeBdn6YJ+4DpCaiH9hZk2Wy8N1ptXzPQMlQKPq0QpCMDNfAkXIQcdAL+sr9AJk1BIpcqPyVVjB2v0tat7BBkzRL8vd9HF8xAXBWcNBW59M/RmhGk+U1CHix82qa0l/o4vPc4p+i2rbBoZvqebvkWSdrkS5zP9H09niibkj40VjQ7vyXDphojmzfgVy9GDzgyUMgD67NbT09lULEcRs/8hDavQZcvIIlpB08tO8Ou0UMz08ehD8Phjj0b/8mv4Y45DaLI9CUpPazb35Y+FcRRAb9hBTz0A9zCV03J6vTLcNd+CUbul35CwvZ2pMCWJFpFQuJy8dvwwbvsUA9jD5//oRGObA8bWK64Je+ZvGCPyYGV/l4V8TBKvAv73Xtj5Ok2cxfN2tvrQ/XCDBeo2IzzKJTBVYDqWqLjz0av+Rui0eNDD4l0azrrtg086q1DVFGcL+LWLyO++1uw8C2EHJx6EXL1F5CGJnqSq9I8QyIYDfjAkVBixAt+9UL00R/h2ttMRJrBVgLtD/hQaRV0+Ty0sxWXG92nz1hlQ5KQcfZxF7J0rv1Jk0TMztzVDIMKXqy7U0yGzlfVwbnX4y74Y+KGUVjI4oiSyWI72kaikemd5TjWLUUf/gEyfxaaz6OTL0Yu/zzS0LRTtq8ZB7VQx0saRYhX/Hu/Rx7/D2TtcqiqtoWo0LnD7QwHOBTduBZpbYGGJvoyF1PROEFxxB6i9m2wclFpYIyWMtEZBjfSyXNekMgRXXAjXPoZfP0oK3IqIbm464yUiBAL0LIOvf+76OyX8TkHky9ErvtrpGmc7W8n90TK5wnzSeyY1IRw77sVXTEfraojOvsa2O+gSn39IQYLHz0Krc3oxlXd6PB9gQp6GNZ5GIkj3roRt2mduaYhi57lMIYKgizduAPw0z6NO/1SJMqTaGXF6omSEIByvkPPzUS4lfPRB7+PmzcD8tVwygUw/fNoXQNJ17nbSauUBBqox5SwdOtmePNJ9Dc/Rrq24RtGo5feSHHC8fD2M8MwHCHkh0o9OTr3VaLjzg0SAUOA6ZlmZVs2QGtzGCpjt4N6n4Ukgw7bcxEQoK4Oue6vcEd/yERnNJTKcTjC9YRu2tlJz6lgTVC6eQ08+u+4BW8alXzKNPTqL+Dqm0pjMSEQsjX0i9g2ku2qeMSDFLvQZ/6b+OUHkc6t6LiJRFd/EX/MGcjM38GWTf10vgYjXJoj5P13iIsdRLmqPttbBQ1GYHcKyNI5VitOCDh+qJBihhesFV2A0BPiBMYfiV73RdxRZ6EuxpG3XEI3WfuSulNId5MQphSPX7cc7vs2On+mzSQ9aSo6/XPkRoy2jlbbhBGwiINCOGUjAL3xNdTh25qRR3+KzngEFxdh/MHwkS8jk85AOtrws1/BFQsMR5FYkSi0YRhvhc0bkQ3L0QOO6LN99oHf4tBFb2EhSvhTD2HTDIMDpdZyS0zLwSfgrrqF+IhTAv8iB+IRYYfJSVsEHGiRdKVbvxwe+A7Me9OmpJ92Ce6yz0KTda/2fK6tYQoIA41IW98drHkffvtTdNZzkBcTvr3yFjj4WONtbliFLH1vh8zS4QBVNUa1WLeudLTC0jnIgUf22T4rZjBSsdK2jbgNS1EfQ9IkxI5vuAwDDB+HVV7Rw09CP/U18mMPI8IazHyQfttZfsAjiGro+IjwLWuRe25F5s4wb+WEc4iu+iK+voEdPdXldGwfXjPat0dWLkbu+iaydL4lUI8+E73+K8joA9LwJ17yLrRusm7v4WgxnCA+KpHdCh3I6qVosQC5vnneKpr0VPHo6sVoxzb7XRNxleF4NQc/RMSEaSadTnTlLTD60JJyNzEutEvbs76jGzAkPUXwKxchv/k3dMGr+Koq5KRz0Su/QFxXn+Tx2a4PQkoy0IGxgY8LuMWz0Id+SLxyDlJVg0y5DHf5jTByXFqi164uojefRotdw3sxcgKqafJYm1cg7VthRE2f7K7iIYlb/T7asTW1ehkdfPDCuzzR5GnIVTejo8YheJwIMYJLstVsfw1Tr9G2ApuakQe+BwtfNwL4aZci13yRqHaEZe8pbvdQl4+gSCDFTnTmM+ijt1tvRFUt0QV/gr/4TyFfXRpF4BX/xhPoitlhG8ORtAWlyWeBxq8O37ySqKMdRvTNHitgMLwJsKJQNCUkS2z5Up/BcF4BBgk8caogZatRDnfiOXD1LdA0Gki8CCEXxG3sbyUkhiLxF0RB1y+DB75LPP91nHPICefB5Z8lqmuy9wiAZe1DE3oosXurh4TBwlrsQF/7LfrovyNtLWjjGKILP4l+6BokV0syycYR4ZtXwIv3ooUOnIixQIfhwqQh6eOIUAkhX1sLum0zSqKPYZWrSmGvDUbJlTQVIBWgox1tWWtDbdWl2gkZBhaqajM1kiJmdR2ceily0adg5NjQnyH84RbvwNpNeFQblsGD30fmv4rkq+C0S+HSv0hJWTv6vG09mVYWdFK2biR+9le4lx+2G37MeOTKW/AnTcXlorDqeFPLLnbCu8/AqsVWJfBqsl1u+BmM5NnyUkhp+q6zAzatQQ45HigrlVcIe20wJD2YRHdAobMdNq4jjW171PkzDAxEFB9UsshVI2dMh+v+GlxJs9LEZXctUy9hfggUoHkN/Pr/woK3bWE47QKi6TdTbGzC7aJsocQpYUsQ4taNyGM/xr30AEIeP/5guPZvkEmnIZELnAzLqDiN0Y2r8K8+TKRlvJ/IDSnFrMqi1IcjChp34TavLy3o3fJEvUevQxITRBGcRvjONmjdYH8XLA7OMCgg6tB8hJxxOUz7FEQusDetbR0fh3V/R9TiwLHBcg66dgX68G3Igrchl4fJU5Hpt+DrRxL58P4eIjiJwK6mJDEPzSuRx36Ce/tZYidw+Im46TfD4SfYjJFQYo1FiTDPxr9wL6xdTqwlIuDw8y3KkSixW2jnizHS1ozr0cFbqXPUC4PhEXEp5x8BWjcine2J8Dzl4+izPEb/YXupeYdUVcOHrkMu/yxak09fS0V8nZBTdvCgd5/n4VvWwr23ogteRZxDT5uGu/ZLSN1IU7zypZk0PcObWMvuh9WL0Xv+GVk8x4726NOJPv41dPT+lKZ4Bd1Po33iZz2Be+2RIMmXfDPtW026QQw7v5KStyxsU3zzGhu/kJ5/RUUrksvYa4NhWdkQi0q4Qdo2EceFME0gLqkwZehXJPmINNFZXQcXfQJ33ieR2trElOOIcC5Ro4rCc+dDgS4sBoGP4VwOXbMQeeB76LwZSK4KnXwx7rLPInWj0nmjmmowSLdtQfBy4k506bu4B36ALpuLVtXhplyEu+Kz+JFjiSSXdpd4bHyiiKKrFsHzd0PHVkQinKZ802FcJYHEJwz9F3ZOWjaCxviEQ+N8xZLCe20wErVla34x/QNt24SLyzyKYXsRBxphILZgU7Eu/CRM/ShSUxda0ovdCD9pHJys28lqheUQHB7duAZ96HaiBW8SuxxMuQS55ma0bhTsoNnJPIxSNUSkiHqQd19CH/0hunYFRDk49yP4qZ+AEU02PV2SrL5HVIAiWvQ2aGjVgh1MK8/kH0uw61jcspYqFB/OJ1o5LtTeV0lUg1EIuggR+NZNSNxlv3tFw8CV7IL2D9KRhTiUGJdvQC74OFzwx2g+Z6GjxiiRaV7QM3QIgwsT5iAeXIxfswx3z3fwi14nJo+cMhWuvAkaxqat7gks9PRlYrsK6vFdnfD2s/jffJ9o82aKI8fgzv8E0dSPormqQHNOmtESryTGx+DeeY745ftxhUKY2zpUFL4HBm7rZopekRylmbTpme0d9r5KUjYt2mToPWwtE2QNTm+GfoRP+jFiqK3HXXgjnPcRIz05SSej4z3qZIeSA1rWTiYKrF+FPPg9ZP6bSL7KkqaXfAZpHFvmQSYjMsP+jbNp3ACv0N6GvvBr5Lm7ce1t+KaxRNNvhskXoDljJIp4kojcp6EMuGWzkQd+gHR2MDzZFnsO17YZ7WhF6keHvxQRzVck89mrKolqbMQZUbxglFQfBvFmF7dfkSYTiSxnMfXj6LRP4iSXzgKJpMqecQeJF1AO74vpzyKC37wOue9fYO4MvAM94cPI1X+J1I0MYrp2jb33xGqf1XQoswcvaLETnvgpvPQAcVcnbsx45OP/HzLpDKvOJF2uEgjkar/HAq69Bfe7O4hb1lpJ19v7M+waKqAblpsHKALJyMcKbLsCTE+HaGyJzpb1Jn0uGrqJyvkYmbfRV0jowSoeauvhvOth6kdD85/lI0w925OoY++4N8SulQroqkXoI/+GnzsDyVcjJ5yLu/ImpKaBHV9PVxowFNwDv2EZ7pGfwrvPob5IdNjxcMXNcNQpKalPJcTXQQ5BQ9wddbTin/glfv6rYdCzIhTTkCTDriGbN2LGOAquYmXmlfSC6ekD7zfoeKpCVyfee5Ofl9CrnKFPkMymsOnoSqzgampx027En3cDLl8TQoTucnrpzNDwhzDi2H5xYhSKzevxD34PFsyyB3vyxXDdl6C63t5Gz4SpjRFIRhIgnnjdKrjnO/gFs2xBOf5s9CNfhrKyaXoEwe1RjfECURzDa0/CC3ehxQKiYqMOpXLZ/n0aXmFTcyhMVHax3nsPQ0vFOYs8u5CtmwIJKCRZ0pp+5l1UHok3EIEXoroauOSz6DnX4aJqCw2DjkUyuhJ68mFC3T6dGKbE65fAgz/EzZuBRDni485Fr/gsrqaRlMCVcjOShcEBRUukqhIvegf34PeJl88DJ7hTLkSnfx4Za9qbNgc1GJlE71XAqYR5vG/Bs3cgcTG8z4qHCYU9w25g63og8Ss8Qr4im+1F0lPSMXQaXF4tdpGoSqerTYY+hK3K1NajV36B6IwrIF8DUgyltPKYPxHXKyGdd6uxhSHrliH3/wDmv4bPVcHplyKXfw43cv/wie0fVk+MOPMSNPYwbwZ6/634tatsPMH5H4cPX4eM6D5c2ZKjYShRaG1HFV2+EP/wD5DmddCTbOSyUv1uwQm6aaPlrYJaiQReVG/RqxyGI2lEAHyM37KBdKhtdmH7FN4JLqjOuGKMrHof37UVclUoQiQRVqSMdprt8oGhK9j4Qr3rW7BoJjFK7rTL0em3EDWOBjTkDuyG8968A3uWQ79H1zb0rWdM9Le1BV9Vi1z0CfxFn8JFVTaRS20xSRS1VEvhkKiHDSvxD30Xt3QOQKnK5iwQ6VnCzbATeIXi1jCvpYjgwpDq3m+6V92q3favmibWEkp4RgfvOzgvSEMjmo/wLc3oa48gUQRXfJ6opo6UvIXuwpUP+Yf1K9GHfogunIVEVUQnn4deeTPS0JTyNKSMt5F4B6RlWkVfvAd57m60rQUdvT/u4k+jp12E5qsg9Mla2TRpVDfpPxVrtfedrfDUL2DRu5SMgk9DFdPVkIw5vBsQEVi3osSDSReG3qNXvSTlHalxZPGnSITHV+wAM+wEI5vgmr/BjT8U/8uvI6sXwov3G3Humi8hVXXAH1qVi9C8Br3zX9Alr+GkCj3tUuTaL+Fr6yFheHeT0EkGFwdC3rZW4nu/g7z1DBQKyKj90U98FSadDQKRD91GYs1uidFIJPlUBenYgnvoR+iM34bwyFvuxees2S3xYjPsFmLniYqAaJpQrhT2ekuCs5kRCa1449p0SrZjx6SgDHsHyzXEVhTVmLi+Eb300/hTzoUJR1rz1/6HW8Lw1d+gj/wbbN5gTUkhBEg+6xMNCo1h3Qq4+5vootcRqvGnXYRe/hmkvt5MhA9iN6k6eFllRgs2OOfB22DW02js8YceC3/8VeSYsxCxcCPxTpJmRE+Yuq6Wf5GuTnj+Pjvu2AZ3OyJzq9PBSS5jd+4BIh/OrToceUR9xZTv9vqpNiZgyK6L4La02KpQNh8zQ+9RUlsPfRkjRuOu/DzuzKuRMH9CjzoNPvE/0QOPgGKMvvoI8VP/hfpiMA4Fusu5xRS3rEcfvg3mzrJRAKdchLv2b4lGjUfIW4OXK3mQti1J6ee6YSX+199G33wcibuQI08huuHv4OjTMaNSfi+UhaaaCA8XAIe+/gj++TuhWMClLW8Zeo+dVcZ6h713A1KxWLvAPkrIIRkqCQmT44yU1YSbfhPujKsgX9KLEOdwh5+IXP8VdL8DjUb9wn3oPbfC1s1pghEc6ruQtUtwP/8avPN7ijlFp1yMv/YWtGFEenPZih51Gw8hFFHfhS6dh/zy/6DzZ1iO46hTkT/7RzjkBNNGkTj9fNpCkHBCJLJ7plCAt5/HPfxjozInLQblic7Mq9hrJOeu0udw70MS0RKzDxcUkLKLW2mo2LmWxrFw1efhtMuJ8xGlGZqlqWXu8JOR67+KTpgEgJvxKPrEz9BtSY+PQvMa4gd/gCx8C8lXkTvjStyVt+AaxgVS1/ZGX0NCW2MP77yA3vVP+KVzcVU18EfXIjd+A0Y0BWq5Q/2O7wPVKIQ5IHNfwT90G9relva4+KhkHMu5IxkGD3qdaNDgKseS5Sz6CnF1DXrZn8NZV0NVDc5bbgJnWhHlsz3cMaciH/kbZOwEtLMdXrwPfeTHEBfRlvXovd+BuS9ZXuO4P0Kn34IftV/KGPWU2LvlUAF55zn07n9FVi5BvOCmfgyZfhM0jipVU3YSUST0bg2UcX3gB8j61TY9LXgXqTRCFpVUGKEMXgH0oqzqQJLeBFdqREsSVRWmpA4fBK6C2kocN44mf8lN+DMuRXIRqj6dpWn9XxI8O4v/VSLk8JPhY19F7/oWrnkV/pXfQHsrfttmdMEMiGqQk6aSu+oWfENjcFtjiqHDxERziqHBzKNbW/Ezn0af/BnS2oyO2g8uuhH/oWuIIgs5XNKl4iyM8d6XekBCaONU0QVvwt3fRptXmvBSqLaYZ+FwoaozvEVxegcj42koqfu0SbAS6IUIcCK2EpqVGscFoZQoHFxi1TKjsXsoPSgAzoNvbMRd/QXiyRfj8tX29/AUqeTSa5B6GIAQI+KQSafhr7qF+N5bcS0bYNbTiI8RF+FPnQZXfQEamhBxIawUnPqgmhWa01TRzg54+g70+XuQQjtu3ESYfrN1ruaS0MiHBGkIj+xOSPMfPtFiWLsE/5vbYN3yUnwdCD2lGzokSjNj0St4caaDiqn6V+o57IWAjpjlCvoLbqSJqZS6IMtVwzP8YZRdUB8T19cjl3wGd8o0NJcnVitkJ5qbpvQdVnBfwLe3QfsW/Ma1uBXziZe+A2tXwratpuqusdGsm8bAuTdA/chgGJKeIIOKt2vri9C6AX3qDvTlB4kKBfwBR1C8/u/IHXESzuWs4TBwb7annSd8imDM1ixG7vy/yLIFKT/AciNZYrPSsPAyOadBPFm0IqXVvTcYAqJqq4k4k1fDpatK0pTU/fcMu4IN9gEduR9M/zxy6kVo3pqGEhVo9UVo78S3rsc1r4KVC/CrF8P6VeiW9bB1M3FcQGJvDWguqWSFasXmjcjTv0Cv+zJuxCiMBRi8BCK8xkCMW70E/9i/w9zXTD3tiJNtmtlBx4Zch92A6fTwsuubMEGtiuaIls9B7/su+oFRvp13eJd00W7HGc5QAejYCenPyX01oNTwkqanrXheMBe1GIduxigri+0hREGrqmHan+HOuiwI0BSg2IXbsBq/ej6y+gMTxF26AN3WnJZMRYQYJUpc/ETS35vujDvkeGhtgeaV6Mynka4O9GN/DyNHB4EVLalsrVtK8f7vIAtngquCk86FG/4OaWjCOwENs2ikiJMoeAtx2RcB5xwFirjVC+C+f0WWzEZDfss7h6oQyXAX8O0bqCpSVWseKCUF/4HXw1AxwZxk8lT9KNi8ITMSewWjXGsUmZs/82lYvwK3bhnx2vfxrZuNr1Bsh4RTEf4neLxXci6HOrsudk0cEuVxJ52Lu+oW/Lql8OBtyKql8N5LaP5W+MiX0RFNFpr4GJ0/A3n0dtzy2cS5avKTp1G84s+JRoxKA5dE8EYkHyjbIa9S5mmoeKLlC9F7byVeMjssK0HkB4/DxHJKY3YyVA4erWsECIa9MuEI9FaiLySrrL0dfD6HuCB2Ev+hT2coR1LpoKMd/9APESHoQZSUUdUn7kPZtO7AV7ApYWXsPnVoDjj9EuTqv0TrRyJjDkRGjCP+xT8gq9/Hz3oa17EN/vR/obWN6Mxn4ZEf4luW42pGkLvwT4mnfpyoyhilEvQuEp2NNFupMQm/S0OYysZV6F3fQpbNC59J6OEhNHIE+neWFO8L5MYcYLmLpN2vQr1dvbhapbF65lJGaH3obiwG1ejM0dhtJCVIAFfsQgpdaGzhXapbEZCQ5bonSrXbA6hRDnfyRcilf4HUN4R9RPgJh+Gu+yv8/geDePzcV9C7/hmevgO56xtoy0qi6tFwyWfw55pyV6KQJepCf4KkQs+CD23UtkLE6mHZfPj519FlC4zM5WOSAUfp983EcPoUcf0IcIqTOPhzlaGHV8i8O7wqUe3ILOvdC5SfN+ur2N2+HJfyGKw6IciUC4Mk3jiUqKzvJ4KjTsN94u+R/Q9FvBC98yL6xH9CxzZk5Hi44W/hwx/BBUm+7mMEpNt+DUb5jsURbV4ND34XPpjTbSh3tnj0I1wEoyaY16quoj5cr4YxG0xOXiLQ+pFQVnt32V2yB0jq5SGhrEosBCGcsnCA0BK+o1OrznJKUy7FXfuXxA2jkEIXokWksxVtaca3bkCWLoBFbyAbVgOe2HtcVxGtqUeu/TJ60jnBa/ChjlFEJJ/mKBJvx/IRoT9Zu3CrF6O//Aa6cn76PZLyXqWniGfYFTzR+AnYTZJITgxwWbUnRB0aavuQ3OCV2vrwgEiSE7Cfo7SU3r00XR6epPICaglFf8ARyNTriTdtQBa9hd/wAaxbhaxbCq3N6OYWpNCKaBUqRcQpSg6vMS6OzZAcdTK+vsn2JaTubGIsUoORivPEyLJF6MPfg1XzIHhH1hNi3bHbTyzL0FfQfA3UjbUGUXUlkmUFrkGvDYbRT00QRerrLeFplMMMe4hk+tfOZKV2NOA4hURAAVm/Av/f/4Tb1ops24QWi8aHCNqZThyeHFFVDjniTGTqDbiONnjkR/gNa9BXHkLiAu5jXwGJAhHP7/gYkkTnxnXIPf8My+cGMlZptISKx2lmLPoTUj/SGg3LvNJKoXdVEmz18WICbNowGolyYYaET7tXs5zG7qHneUq7R6UsV4Aikg53CFUqh6MIEqHFdtzaJeYJ1NUhTePQ6npk3IHI/kfix4zHHXUKMvowE/BNaNsNo+HubyPrV6Av3YfP5eHiP8ONHF1GLA7JbAqB41GERTORu76FX782TFkHDW6wVFjtKUN3JMOz0/kuiQEfNSEpX4aydeVY1xUJSdIDbRgNuRwUC6SzjMicjd4iTQX5xAAnuQSX5hEE0KgKGX8wOu5gZOwE/LiJuInHIg1NUFMN1SNwCVHKFXDk0tZyPXIK+vG/R+79V2T1QvSVh2041fTPEdU0phfRwowI1SIsnQMPfZ94w2oiIFYlChop2TXveySGopz8pqpo46hUNNmkEX3FRHR6ZzBCfT2xXjJiFLhcKtxXKbLI8IZLcxhJb4bXQJyK8si4I4gPPY74qMnIAUdYQ1ltI1JVRy65NmL0Lmv0MvVoR2zNamFuibgcHDmZ+KovoPd+B92wEnn5IRTFX/E5qK63BjMVvO+CpXPQX/5vZONacmjwMm2UQeZT9A/KawrFRGhCQEbvZ9cTQuEhEbfq/ZWpWNJTVdERTVDXQLS1NXWj0yRolgDdS4SEkFOIQ6VBBM3XwpSL4PKbcE2jEaLglobBPy4Ru4vC1I8gxBs0KVSjEF6ULowKuGPPQm/8Ovqrb6GrliAvP4iKEF32ebS2FokLNvrw0dvxzWuI1AY7o4F7msjyZde7fxAWk2Rtdrk80jjOBI/CYlHJaXG9MDlJJ6IPYi4R1DTgR4wDpynhCB9nN08vYDqaHrziXT64oBGccDZy9S24UbaaWN9OYPSlpU8fKF6hERBN1axErNMU6NZqLiLIwSfADX+L7n8gFGIbpPzY7WhbG8XZL8H9t8Hapda3gkPjpNFMbNvZ9e4XlHRErDlRNbQWNI0LPGAXxLrLl4XeoWIeBoBUWZINIJnTmaF3SOJTTcYZRnncSeejV92M1I8mVm9up0hpWE1CFy9bD0pNSFJqkRe2u5USVSw57ETkI19BH7wNWfM+8vL9+I3LkJWL0C3rS3GzSzLxzkSTMmPRbyjJE9glUBFcvsq6ncuQaI5UAr0wGOVzU0OMXVuL7Dex7LU4q5DsJlIRXK9GgtNEjCjwWTQIopx+Cf6qL+ICT0LSPFJ5KLC941jOIS1HakTS12Kr2+eq0GPPxDWORv/rf6FrPkBnv4LzGjphsVJuUFfLKiIDBG+Nn8a3iKG2EVc/upt9GByq4WWwafJqN9CYCZDLmxS9BHeowrXgfRI+yKklFz+0jNtYQmc9W6dOw132WaKGkTjncM4RRTYOoKdK9N4Zal9S9vahT2TU/ujEIwHK8h9J3OztvwwDgsTDS3uQiHCjD4C6uj7b597PbjruAAAAIABJREFUJenREJUMq3EHHoPWjCAZaFSpppd9HYlKkt0EyXkNQ4PyQnTaJch1f42OGtunfRk2RMh24Fs32VCk2S8BHudL4ZGoKymAZ+vBgCF5Dm1CHDB6PNQ09Nn+ejW9vTuCItT4g5HaOmiToN5k/Q0Z/hB8yHgrcaygOVQU5/LIyRegV30BbRzTTQezb47C2KC6ajHy8A/ROa+GzuNS85qEUZhZCDII4BUnYt5fLo+MPxStHoQexo7gUaiuQQ84Ol19EmWuDH8YIlGockSoU3KSg9OnIVd9AUaMAUpamfZzZZd2VYG4iF8wA3fXt2HeG2HGSClH0U1ZC8gy2wMHFZ8293kBqaknnnhCn850qajBSEfjHXUKKoRZJaVp7lkuozs8GuaVenxqWO2SRAr+5HOQa76IhspTYoD3Bom4jqa/B+OjNuvUe4/XLuT1J+Hn/0C85D173WmPkKM82Z0Zi4GHhSI5FbS6BjnwsD7dWwWJW2LlPCcw8SgkX0NULKDelcp8WWiSwvptAJw9lN6jPiQrq6rg5PNx029B6pu2y3InZ3F3z6cZak17PAjyiqlWuACb18Gzd+FfeRDp2Eqk3rQ+VcH13Fd5VSXDQMFCU7ueRQQOPgapH0G5dn+lUVEeBmBxeOMYtGk8bv1KvMSZulIPJPVz783AOoWi5HDirdt38oXoNV9C6psqcvFNzcsZWQuwZCqBnSnoioX43/4EmfsixKRDqVRBIpdxKwYxbOCVIs6hR5+BquBc3z1rldPDCJLyIjG+fhRu7IH49R/ghTB31aXvG/bwgTvh7GJbz2gMUZ7o2LPh8puQhsZ0KlhvE5yKqYLbbLQyUlehk+LCN3EP/Ri3dhGxgvMK5PASyqo+eECaeRODEdbGHqH5KmTi0aFj2FdE+2JHqCzTU73RUfN59KBJyJxXjZgqWeltRxAR1HtEcuRyEZx+CXrFzTCyKRBxKPMK9hylnJG1yFsIEhTRtmyAF36NvHAf2t6WErC0PO8UWqazazd4kYSbjDkQRo7dtWZKBVCZ9vZUWt5YiVGuivjQk8DF9CyRDM/BRiHpG8YSikLRxTh1iOSJxZM7/o/g6ltwDWMCizIZO7gnreKl6okGPYRk4BShHwUn6PL5uIe+j1/0Fi42jQ2jlPfU7hS8xCakkxmNQQcVh3hLmrsxE/C1jX3+XFU4h1ESenH7Hwz7HYGufT91Z4eXkeiB0NFpTErFJQ9nVY7opHPQ6V9E6kbRsw6yp52GO3quEyUv2dqKvvsC+tyd/397Zx5lV3Wl99/e974aVCWVZgkNIIQYxKQBMRgwsgAxjwY70O4Vp3GMaeMVupPuZHX+yLxW1kp6WEn8R69edpbbIUl3xxMdG9sMpmMDzQw2gzAgkMUkhCQEQtZQ756dP845995XKskS1PBe1fnWYqGqevXerffO3Wefvb/9fbgtr9aCQDVbUn9l/5Ms1TDaGj4jdMeeCnk+YtqdB8OIBgwNPhUOkJnzcccs91qSw7RTJ8cxJbYdPX9BPK+6TPtVurBV6+Har1BMHSD/2O+Hv/ELKcoZE68TKhRbNpH98C9wzz1MNtgMXI5Ul+hohLke19WLLD297JiMhMPZwTDiXRLfLlTIurClq7Gf/wTZt+cAivjEDxYQ5f8Br1dRE7tTzeHUT6BX3opNnUZuH92eoX5uFRyZaVC9asKv92EvPYzc+7+w1zd4fgfFKDbeEsYKvtEAbuEydNZCz/gc5U1gxANGZcijZMvPxt03E/a+7c/iQwx7J3LQ8DexDdE19SraljVwZ15Mds0/8XJqznASjYmP/HVKF/fYK8XAOdj+Nu6+v4Tnf4q8/x6e8yEjKqiSMH4wASfipQimzvaZqwwl2o0sRp6HEVp4ZgXSPx1btBzZthWjCMpPk0eRyUp/uiaF5WSW47ICXbkOufLLMHWGF0/WKKX20SZMy85H4FfY3t24Fx9HvvOnyM53W4KJ59DZwYTJEzoIYqD907EV6yCrWvCdRdwCyrZclsPSU7Ff/NTveEDprTmBMoyDtbIqCbwcUCxT5IzLsKtuhWmzvKqzVHoih4YjuqxK7TuhGRJ8YBxsfgn52XeR53+GfbCt1Fy1oM4kquBS7aIz0dptK0SROUfD/GXBulIOyORHGqMUMADUU4qXrqTZ3SDfO+i/F9nINrGKbibugK6Dcw6nAuLInENWXIZcd7tXVw/weYUcNLloqXpHNSx8ECAuDhPc4D70yR/jfvQ12P52sH+Qsk8v+NaowNB2SEIHwswQNeS406GnN3x39Gd7Rjhg1IOAF6S1eceSL12JPP+IH2YKhcCRdXwcf/hZmvhV4bUtXNDR1m7cGReTXfWlWrDQw9oJJLRiDSnFasz8glFV3P59uE2/IHvwuxQvPITs2+vrJHjuhX+fs8nd0p4AiC5yqJdBdJmhWQ5LV/oHOMMJ3jRqFPUPRr5LMvQbXQ1s5cW4Fx/FCg3Csb5SP5HEdeojxSJCUUQVLENWX0R2/e97unfNcOZwYAyGORAJKlxRkk8pdm7DPfg36JP3YNu2IhRBPi9YFVLPfCbOez05EYh8FuR9C8HmHYUtPoFMo6mH+0iF8yPBiAaM4MPlI2E414sobtlqmL8UfeMVryZlgrq8pizV4VArb2pcwSCOTAXJcjj5LOyqL8OU/qBKZlROZr8ZQsOrfZsLZgEO9u7BXn0S+eHXyF7/ZbBB9PqffmDY/OBYbOuqHF6ZJKF94QqcKKo5VjQBRVZegvYOAJSmRaOmrBQwCjWM6KlZu/SZc+D4M3FvbUSdA3MMitGYIMeS2Dr1u78X65W8G9asx664FR2YQyE+nzL/QOBImK8heymayMancY/8ADY8CLt34eL7bRYCQ/Qx8ZL/yYNsYkDE83ica/oNZ+YCOP0CaDQ890IsZJV+PYzWpz7yTM9AUBJzIII5QSXHnXIuPP5j+HCnV5lWh7nRreiOBoYTARIN3BPLQbynrJ64BnfN7aW6d2YOJA9Fx/hcXsLQxAV18FjMJFTC42ypw369G7n/Ttxj30fe3xaOc9I6BVzqI8QOVKgUpexiAsBvBJ7Hk6PHrkAWLA2ZJKHbRucRtyKiUIuE8zaLjoejjoaXd/jsw3XmKq5MgqixOENrVBzS6EJPuwCu+UoZLPzvVTUEL7OnZUu0bJn69KMMos45bNd76PMPwsN3YW++hDT31Z6nM9/DhI8OEwfdPbhTz/E+uWOcQY5KwKiyhuomkf7psPJC7KWnAxst73gihj83eq2PqPYtqy+Ba7+C9M88aPZUmhMFl3vvSlYg0ig7IFbsxX75JNz3Pxj81XNkg/tbvT/kSI40CRMBXh9XYPYiOM53RzwHaOyuYRR5GEOhcNqnkPu/CTu3gxSMpMHKWMHPYYQzpfgio4hXpnInn4Nc+SXon3rI51CyMLUqmIv1jMzre7om+vpLuIe+BS88gu3eQW6EWkTwAZFGOmZMOgTVdlPsxDXIwFw/mTTGm8aIBoyDaV0YYTcemE1x3o3o3V/DaHZoo89/cGaFd1EH76K++lK4+lZs+mz/vUM8g4XnMWtW9YxiENuyGXno27gXHsbeexexAjWhUBd2l+AHYsWoKSoltCfKete06cg5V5fH4Y7OMOrn+1YEkxXN6DrtfPY//mOyrZvKCQigNd1uE7ghNNuoTWoATjAVcsk9l/+a29CB6SE6Okyq4u/w70voqxcO+XA78sS92E/uhA+2471cmr6ICqhp6LIbhUDeoaE24XBRKZ9JmDwmmHBnn7gGm7Ng1P1pDoZRmFYd/i8QA8xRzDwKXbYSe2djeSQpyUht2jWpz4p40VUwFT+ivuJCuO52GJgd2lsAGeas7H4U1vSSe2peiVsIo+e70Uf+L/bMT3BvvoLu31fLHBqlUXJskumo18AT2g0W2yAAs+Yjp14A2l1uRGO9yY5NDSMMzBgFze4+8jXrcU/cDfv2+fN/6Ki0cDfaAC3BKwr34nkXogKr12KfvgPKAmeNjxF/DQlTqw6xBr5Fugv7+QPYD78OH2zzPqZWVOSv4V4/YVJBzHvVSKxbiIMTz8IWHEfsPo6uttbwGJuAIRkE2nJuihx7OqxYhzz6IwxBrADNfHNylEVMjwSxiXPAcFhXF5y+FrniduifHqZIdUgNx1WFSRHEBNu1FXvlKeyRH2AvP4kWhjFY5g8JCRFmEtru4ejaPQU99Vysqxs1z9AZj9tkjDKMAiS8CeYQzZFLPw8bHoVd74HWjiZtTmNW8ccQ+/TvhWBx8FkfkQxkEAb3455+AJ68Bza/AB9+EAaJ4hSpo7CkgpUAkSkt4srjLyi65DQ4/gy/+Y5jvW9MAoantRZkknshHYFs9hKK1evhZ9+BYr9P21VKXsJ4Y2jHJ35dTJ9Gdv71WP+AjxHOcFkTpevA7pAV2JZN2P/5U3Tj0964CPDZR1FRyvEzAkNpKZNTYX3yIg6WmRgSjvCg0DsNueEPka4pIbOII2Zjvy7G8M6MhKPMD0ppjp6+Fpk2y6ddKsGDY+yDRfQYLeXuAvuyEiyJj3ToBzuxe7+B7njTD8+poDRKxw8rH2mYa2IP/DX2yjNY4Z/P+6NmIUCo/3dbVW4S2gMOh4IqsmY9Nm8BUHUTx2vFjNndWUrz1b5nR5+MnXI2XlwuGxd3LV8zyfwVSqgpiARCjAbWpYMT12Ann4dYQbbhEQbv/PfY1i2l0pGAP3oFd3NFYO8e8h1bydwggO+UHKSoORzpVaLqd8KkgYggLgMn3rembwBbdeEwx9XxycLHN/fv7kHW3ozMXogLR5WxZot75WVvBuNPRX58uLCMQsC6u9GzLkZ+618iv/VHuHOupmhMIX/lOezb/wne2oiz/f45xJOrHIX/uq+PwflLcFnuKeThXJqQcDA45yjUbzqmhq6+BI4+eZyvqsK4BgyRDOYtxtbehGXjdyl+568yHK++7MjEkJUXw3X/jGLWPBiYg1z9u3DGxZ6W++JjuL/+Y+Tdt1vEjUsSmhM45iSsu7v8WULCUNRV350KYuY3nFkLsLU3kXX1tU2mOc7VRYdoF3baBcjCk8AVgQI7+qjL85v4GRGzkBkAaI4tPxu95jZk2kyyUGvI+md5L5GVn6TIcuS1Zyi+8ye4La9hzlWZkmTe+Xzx8WRd/YADzT6WV2rCRIKjZDmHo6eZkZkfRZRGD7L2JmT2wrDTaHl0Hk+MeztCzKEDs5HzPg1dPb6tOtbXUHrDBqmzRhey5lLk5n+NDcyBwLMoHzdtFvoP/jly9lW4vIFseBz37T+Bd14PH3wlp5f1z8DNmOul+tqQ/p7QfjBRdOkKdMWFtWARMthxzjTG90gSXLhMM68edNI5ODx3Pu725dl/1N4nB863ryLVVk49D66+DRmYHm5y56X1AMTrZUrfTOzyW9AV61AcsuFR3J3/Bnt3s6d947shrqcXmbukaqHK6Cs7J3QClHKeSFxtrYN192Dn3QDTZgAEqkF7YFwDRgsVvG8qXPoFdNb8cHNqUJUabV6G/+AcYCLoyvXYdb+PTJvtx8iHvnZwRAdFp85CrrsDd+blSKMH3bwBvvtVbNvbONf0QsdZFzZvCfXx5ISEMjhIJfEIYFmOrL4Md9JZSEYQNWifY+y4rl5vwqVk4vljsug4+MT1oEIhYVp0lN6r8twYMpjMHLZ6PfaZf+oHyUSCMlYTMwkCvEoRMwQN1zZtAL3uduysy/2w2fM/xb7xr2DbmxB+h8XLvHaGWVt9+AnjBzPz80nQojiv85ZgV36BrGcK5jI/L9JGm8y4XkmOBPq0/79oDmdeSnHsqlpdYfSvw6SBnLkevfJWmDodNKvd2Lk/RliBsybqQqCwoqq39M9ELv8CnHUNThuw+QXsW3+MvPOa94qYvwwavR0pGJQwOoibVRGL7KF2xqc+S9Y/o9zIsKKtjrHjeySJaTpRIAZkYC5y5T9GB+b6yOuCpsQIb8xlK8uA/j7s6jtgxlFAvTUa/125sKMSxtazKvMw88XRa2+DMy5BVeGVp+Cu/0r27hYv2trT53+vTdpjCeMNh4iRBfU1M8NOPBtO+SSFNqr1LtJW/j1ibcAkirNbDp+mFQJ6/zdxd38Nbe4tuwvR/WkkCV6eZKXojHmw8Djo7ocZ85DuXtycheSNbopGD+TdaFc3lndB3o01Msh60K4uzAmSZwyaI9uzC777VXj2J8hggc2cCz198PZrZQE1ZRqTD6VgtEX3ujgG4cVyZPFy+J1/69uotSNIJabdHmtmDDU9D46454qB4chE4MzL0Q2PYi89Vioje9HciJEphvpZDrAd78COd6prEkFCwmiNPrRLkUYflmdYoweX52hXD057obsBPf1kWY5Mm4NNmYL19iHFLmTH1gNeMWFyIm5yJoo55+02JMN6+7ALbkRmLzyIxkX7rJm2CBh1iAiuABmYjVzxRdxrv2Bw/z6vpUH03HCjTiM3AbUgrTe4B5pGYbvCTxV15ofPnHg7Eqs+aHGFl1SjdXYmHUcmL8wGfeagPpdWhZhXy/FnwqqLEcsPOLa225ppn9AV4DBUg+jpklPQz/wBed90cqSsOzi8nN9InqZi16Qc+CqfX0MtRcKkqbc7VPU6m6qKFv7xuKLU/RTzdZmW50yYlPCbW6iDubiO/dyRHbsCufZ2pCv3NQ2JnrxZ2xxD6mi7gAGxnaqYZt7IecUngUjgcuGmzEa1eiwiraxT9V+bSWvfPJDK6t2cagI2IYFyvcZiugtrxc2aD1fcArMWVF3BGqGrHdG2VxZVk7WnGy76bWzu0ZhkOMFPkQpjUD2uon2UeRexMA8SlJFMA9vCynasHYHZcsLEhwneE5XA+XHB7vD8G+HYVZDlfgUJpe9uu6LtVrZP+SVUk/0Nm81djP3Df4fMXug1axg6Ju6G/H90rqtOsBn2EeVxZNQuI6ED4cdBpJyCdipw5qXoedch3d21daVtf3Rtq4BRP7upKpmob1mSoUcvg4s/B1P6vdhOZGkGpSyPkf1zWm98Hea/+s+q32n3Dz1hbBHpACIC0kCXrURu/EOkZ1pYy1nHKK+1VcBoRXVjxoCgKy6Gc2/A5bkfGHNjMwqfkPBxEG0CzAw3bzFc8UWkZ8p4X9ZHQhsHDI9ytzbFpvSjV9xCseYSLOvyPqNtXiRKSIAwuTxtBnrN78HS02uC0J2FDrjTqjfWTCgaPeSX3gInrBqmotyZH0LCxIZZgeufil7+ReS084MQdmcWuto0YAx/42cCuWUwcx5y1e/CohPH+LoSEg4PLYpuWY6cewO25pKaolyb3nq/AW161a1cetXc+5h6X0XfsVi8HLn5X8D8o0EliO5EQd+EhLGHDxCVzKOJ8zNHa2/ALvltpKu/EsMZB2W5kUCbBowD4T0/LPzb96x10Slw1a3YwGwIKldxSC0hYfzglePRHM68EtbfguS9QRahs2tuHXblUdLMs+VMCuyUC7Brvoz1zaIUVnWdGb0TOhd1lzo/FtBAjjkVLrsF6Z+Oqo6bUddIoi3G248EjqKa+is/pAz31I+w7/032Plu+J6UikYRiR+RMBqobiHnCVpZF3LyudgNd6DTjypZyxDXoJ9P6sTxgY4Ld4JU6t6B6AVgK9fBhTdDVzdDi6aerj3215oweWASgoUZLFuJXftlZMZRFEoYJwhDiKYdzQRuu/H2Q8PzLhQXxsczBIeZoNKFO/9G1Izm/XeiH7wHYQReMc/RLyN6exg+J3QuLHKAXLUZOc3QZSuxz/wBOmcRmF9lhqACgtb0Djovu4AOPJIMB1+Z9hVqbTp47v/B3/xn3O6dNYWuegqYAkbCx0MVMKJxlWAr1iHXfAVmHxUelVNRCyeGxEGHZRit8BrcMXuATBXXaMCqS8AM950/85lG8E2tPq4ULBI+HuJGVE4mn7YOrr/DyzviNV8dDjHxvb0JECygwwNGhEhWBo5oRehWriMD7O6vw9bXqHdYIPmcJnxceIFq65mCrLkUd8WXvNo3+NapxAJn53dG6pgQRxJvCRCUxUshEsO5JrrpBdxf/Ufclo2oVePDlb5iCh4JRwrFpEmRdZOtuwku/hzWM7US7A3rLPKBxNp/bP1w0fEBI+QTmO+f+MISVGw7E9i8Ae76L7hXnkGCtYAFAdYULBKODKEDN3UObt2NyNqboNFd/lTJvOMdWY13cWDNLLq1dxo6PmDUEdQ+AXCuJpvnCtj2Ovrjb1I8fQ+6fxCnBwYMFzSbU9YxuRGL5NVN7kpLQ8VwM+YjV98Gp10AXd0+myCvtGClXuSsxHFaXiMFjPZBpJFL1MsINoXmmthdX8X+/nuwv4nYYIvMn8NKpp7HxDl7JhwaUYwJ/M0ene/8ccJnCoUouuh4uPmPYNEJpZJWgaHmwlrSMhh0YkD4TZjYAaO0I6h2Crd7B/LU/bi/+9/IttcRq+q+1SKJrLzO7JUnHDlMwIpmGAqLxtnel08Vb151yvno+s/DopMQLWqGQ9GQqFprEzFYwAQNGHWUxwwzBmmSId4nddMG5H/+B3TrJppiCA3UDYJm3p5xgn7gCcPDWwBYya+oiuIOuvqxiz5Lvu7zWHdPuZGIhHFIC0cPyTpAZO/jYcIHDP+BhinXqEUQqte29Q3s3m8gzz5I8etdKIHGW74j6UgyWRA7Gl4iATIRTAQ96jjcp25CV6/3ZsmE2SWstdMWs9MJvmYmaMCoahBVhlGUZ8tY1DQzbO8HyGP30vzbP0MHKyOixAadXPBO6XnYXMLx4vS1cMnvIIuW+a+1TlvSstbh2/k24YMFTNiAMTyca7Whs7A4nDVh07PYXX+OvvEitm9PaZTkW7Aw3IRhfaQ5oZPggiFVgWR5qFX4taA0cFOnI2vWw2VfgN7+YdW8J2t9a1IFjHorK8qnxd3ECei2LbiHvoc+8n3YvcP/3Blo8BrRmIZO/J1kIiOaUvncsxmyTsWpoCechX3qs8hJZyFkoDIGhlmdg0kVMOqIf3bU1/Dn0IJCMvS5B3F3/3ey11/0gUXw51lX6TGmrKJzEfk5ZoNATiGQ9fTDuVcjF/4jmDoN3x4tvDzkhC9lHj4mfcAwKxARmmJk5sDUH122v4U8+re4J+7Bdm5FnX9c9FVNAaNzEY+aoLiubuT4Vch5N2InnlGyNusOdpP1+DEcJm3AAIITfKtocF2pyyiQjU/D/X+FvfQ4NAcTA3QCYXDWHPK1n0POuRLr6asxNbUslNdFmhImecCA2nlWmhWJqzRPCn35D3cgTz5A8dC3sC2bwjxKaMPVjJcPZpOYiqMjj/p7WhUs6+9vcMxTCZoVFaHKTelHT1sL538aFh6P5A1iUbuaam4GlmcKFnVM+oBxcDhcMGA2AWnux+14E564D3vs+8i2twOVPEwoBvq5C94p9XmUFDBGHkMDRgzWFoK8Z1y6EDCCKlZXP5ywCrngRmzJaWhPrydbGZOCdDUSSAHjIIiEr7L1qllVx3jjZbjvL3EvP43ufg8rXGuAKCdhE5djrBDngFoEeUPW4PIudMFS5NzrKc66nLwxhdgdG5qVJBwaKWAcAmV9I5xrPQ8j7Gh7d2Mbfw5P3oM9+yDs203UQgCqVuww6NRJxfHEobM0F9jZUv5bJPPv85KTkRUX4U4/H5m1GNUg2VhS+oQoczMZiFcfFylgHAJRJ1RwlQGNSmjH+XkDV+yH1zfCvV9HXn4K3fdrCsRPOLqDqy2lgHF4OGB5hiNGdA4zMzSqwjs/IVqog5lHoxfejKxej+vpQSXH4eneWeDUxM9GJ5gq1mgiBYzDRGRt1EQ2QPzu5CiwvXuwXz6B/OLvsI1Pw3vbkGL/kGeJhbesnGtJgePQaD1iEDK92seAPwo6FaS7Bxac4A2PV14IM44CzYLGidfZhJBdlFne8AI3CcMjBYxDwKepdbhheBguZCJByWvvB7DlVXju75HHfkCxc2vZ0zfRsCP6hWrSrJ2hqxH8slI/KY4u9bHwug5JHAarCsu+oOkDRqFNtMh8pqA5nHg2ds7l6NGnIDPmYmHuoyTlSZ2xWfetSQHjSJACxgigsODr6gTJwq5oBby/HXn0RxTPPoC88zoM7kGKZunonYWiqFlR02HwmCx8jzhWLkP+YBMtvx911AohkOtyJM+QabNwxy6HT9yILDkZ62og0qDSd41HSbyZd8LHRgoYIwBH4QOENIAmZhneHFq9HP37W5DNz+E2PAGvPoNs3YwVhddTMEOpjihoSJuj7qhN7J2vnBxmsDwyxGE/SnZtVXR2/TOQY5bDspXICWchC45DGg3MSZlJVMNkrQK88bkmftY2ekgBYwQQ501i+lsfe/aLtDJaYvtW7JWnyB7+Hs1NL5Bbs3SjB1+AM6sUp+tiLvW2YScu+uGWmhfMlZbaRLzpm+Gmz0RwfQNkqy7CnXER2YLlWG83kAeejCM6ZpTPUWZv1hIwEj4eUsAYAURDpXKHDKrRvgYSFi7OmytRIM6wwX2wZRPyy8dwm55F3noV+3AnMrin0u2wA3fJTsawS03rGUGwwlTFTelHps/DFi/Hjl9FtnQVNjALzTMMDVlZ6/NFHRMjjYuNFlLAGAFYsDnQoLtkPmcgBgoJdYoqTa6xEs3Qwd2wcyfu5Sdxrz4Nm5/F3n2DrKzN6RBSUufvluXforVjQk8vtvAkZPEJ2PKzkYUnYb1T0KyrzOBEDSNOkPo3yIX3nvCV1WtBY/tnTXikgDFGcK5Z+6rqAkTSUOnPuX8vbvvbZO+8gdv4BPKr5+H9HbBrG9rcz6BFr04ruwsmrpTA98XColVZTOKcROtrxxstHp/icerAwOQYvpvgwu9qWY+p6434ekw1GRprMlHdyvX1w9QZyNxFcOxKZMmpyJxF0D+zmucJhUszK4NFJhO7rtPOSAFjjHBgwIAyaEgWZO6jQE9oKTqH7duNfLAddm7B3tyIbXoW3vkV+uvdsOd9aO4rU/p6a7KuEtbSfZFId89bFMVapQnrTXERAAACnklEQVQp52hauzeVYzlAoY7cJNRcqucvawdxZakgvVNwPb1o/xzc4hPQY07H5izEZhyF9PUjjV6sJlZTDgXW7C/NBFRSwBhHpIDRdgg3POo7L0RxHwlHG8Pt2wXvvI574wX0nTew97ZgO95A33sX2bsPpMC5ZmjhSklpj7u8v5n9vxWhMBduwsj/iBmKz1Y8u1JC8HDhOQm1Al90NMlQVSTLKUSQKdOwGXPR2YtxM+Z7P4+FJ8DMBWUQUurkKcJrW+3vHe7dSRWK8UQKGG2HKmBIjbyESBi3h9hyRDPM7Uf27Mbt24Ps+RB27sQ+fBf5YDtu907kw/d8JvLhLmTvbtzunVA4PzRnhqmRRQKrq0hSkR/iNCtvZ8tyrG8qog3om45090LfANI3Ddc/C5k6AzcwB5k2E+kbQHr6sd5+6O45kJ0ZBWpiwBi2gJnQbkgBo21wKEs9K/9dP7rUKeYmvo4gOMyFOgJNsAJzijqfbagraGJkhdeIkOZebNtbqBukiZ+zKAQkeLOYZujcRZB3+dfPFTXvApabYFkGmT/eIFkr1yEKEcVJXjUfGMquj7Zoj0SkYNG+SAGjjRBH6luUzQmF0SEfkytzkGjvl9W4G7QqR0mNk2CuxnmocT1iUCJDsNDpgSIEERHBufoMRvU8QK2GMSRQ0CzZlr5oWRVPh7qExb8whYv2RQoYHYTD/qji8SUoTlXzK0PHxOvkJn8cOeAVao+vdFCHmSCNcEM4JLWuiX+N+DNtzUYSOgIpYCQkJBw2Un8qISHhsJECRkJCwmEjBYyEEUXlKHf4j0/oHKSAkTCuSAXPzkJSFUkYUaQAMLGRMoyEhITDRgoYCQkJh40UMBISEg4bKWAkJCQcNlLASEhIOGykgJGQkHDY+P+x2w2T9m1cuAAAAABJRU5ErkJggg==;" parent="1" vertex="1">
          <mxGeometry x="90" y="281" width="48" height="44.24" as="geometry" />
        </mxCell>
        <mxCell id="WISvBgNTOO_sFKA44shU-1" value="" style="sketch=0;aspect=fixed;html=1;points=[];align=center;image;fontSize=12;image=img/lib/mscae/Azure_Pipelines.svg;" parent="1" vertex="1">
          <mxGeometry x="80" y="199" width="50" height="50" as="geometry" />
        </mxCell>
        <mxCell id="WISvBgNTOO_sFKA44shU-3" value="" style="aspect=fixed;html=1;points=[];align=center;image;fontSize=12;image=img/lib/azure2/identity/Azure_Active_Directory.svg;" parent="1" vertex="1">
          <mxGeometry x="210" y="170" width="40" height="36.57" as="geometry" />
        </mxCell>
        <mxCell id="WISvBgNTOO_sFKA44shU-4" value="&lt;ul&gt;&lt;li&gt;Login to Venafi Trust Protection Platform&lt;/li&gt;&lt;li&gt;Inventory &amp;gt; Create New Certificate&amp;nbsp;&lt;/li&gt;&lt;ul&gt;&lt;li&gt;Certificate Folder &amp;gt; Select the Policy&lt;/li&gt;&lt;li&gt;Nickname : aws.geico.com&amp;nbsp;&lt;/li&gt;&lt;li&gt;Description: This demo certificate creation&lt;/li&gt;&lt;li&gt;Management Type: Provisioning&lt;/li&gt;&lt;li&gt;Contacts:&amp;nbsp;&lt;/li&gt;&lt;li&gt;Next:&amp;nbsp;&lt;/li&gt;&lt;li&gt;Hash Algorithm: SHA-256&lt;/li&gt;&lt;li&gt;CSR Generation: Generate a CSR for Me&lt;/li&gt;&lt;li&gt;Organizational Units: demo&lt;/li&gt;&lt;li&gt;City/Locality:&lt;/li&gt;&lt;li&gt;Stage/Province&lt;/li&gt;&lt;li&gt;Country&amp;nbsp;&lt;/li&gt;&lt;li&gt;Key Algorithm&lt;/li&gt;&lt;li&gt;Key Size:&amp;nbsp;&lt;/li&gt;&lt;/ul&gt;&lt;li&gt;Installations&amp;nbsp;&lt;/li&gt;&lt;ul&gt;&lt;li&gt;Setting &amp;gt; Action &amp;gt; Add Installation&lt;/li&gt;&lt;li&gt;Track, validate, and automate installation of this certificate&amp;nbsp;&lt;/li&gt;&lt;li&gt;&amp;nbsp;Add a New Installation &amp;gt; Create New Device&amp;nbsp;&lt;/li&gt;&lt;li&gt;Device Address: 0.0.0.0&lt;/li&gt;&lt;li&gt;Choose Device Folder : Policy\GEICO-AWS\Devices&lt;/li&gt;&lt;li&gt;Installation Type : Amazon Web Services&amp;nbsp;&lt;/li&gt;&lt;li&gt;On what SSL/TLS Port is the certificate listening ? : 443&lt;/li&gt;&lt;li&gt;Add Installation &amp;gt; Yes, configuration Installation&lt;/li&gt;&lt;/ul&gt;&lt;li&gt;Next&lt;/li&gt;&lt;ul&gt;&lt;li&gt;Connection Information&lt;/li&gt;&lt;ul&gt;&lt;li&gt;Access Key ID:&amp;nbsp;&lt;/li&gt;&lt;li&gt;Secret Access Key:&amp;nbsp;&lt;/li&gt;&lt;li&gt;Region&lt;/li&gt;&lt;/ul&gt;&lt;li&gt;Installation Settings&lt;/li&gt;&lt;ul&gt;&lt;li&gt;Provision To: ACM&lt;/li&gt;&lt;li&gt;Save&lt;/li&gt;&lt;/ul&gt;&lt;/ul&gt;&lt;li&gt;Select newly created certificate &amp;gt;&amp;nbsp; edit&amp;nbsp;&lt;/li&gt;&lt;ul&gt;&lt;li&gt;Install&amp;nbsp;&lt;/li&gt;&lt;/ul&gt;&lt;/ul&gt;" style="text;strokeColor=none;align=left;fillColor=none;html=1;verticalAlign=middle;whiteSpace=wrap;rounded=0;" parent="1" vertex="1">
          <mxGeometry x="650" y="82" width="410" height="540" as="geometry" />
        </mxCell>
        <mxCell id="n85-47FMdQ1bUjtsNz0O-13" style="edgeStyle=none;rounded=0;orthogonalLoop=1;jettySize=auto;html=1;exitX=1;exitY=0.5;exitDx=0;exitDy=0;dashed=1;strokeColor=#FFB570;startArrow=classic;startFill=1;endArrow=none;endFill=0;entryX=0;entryY=0.5;entryDx=0;entryDy=0;entryPerimeter=0;" edge="1" parent="1" source="n85-47FMdQ1bUjtsNz0O-4" target="Moh6Mw95iDRhxWac097l-6">
          <mxGeometry relative="1" as="geometry" />
        </mxCell>
        <mxCell id="n85-47FMdQ1bUjtsNz0O-4" value="" style="whiteSpace=wrap;html=1;fillColor=none;" vertex="1" parent="1">
          <mxGeometry x="40" y="520" width="200" height="215" as="geometry" />
        </mxCell>
        <mxCell id="n85-47FMdQ1bUjtsNz0O-5" value="" style="shape=image;verticalLabelPosition=bottom;labelBackgroundColor=default;verticalAlign=top;aspect=fixed;imageAspect=0;image=data:image/png,iVBORw0KGgoAAAANSUhEUgAAADYAAAAoCAYAAAC1mQk2AAAL3klEQVRoge1Za0wd1dp+5sK+sLdFNi0IkiBSK5eiRVuUxjQxqYmUiBCtURODJDVRbJqoaaRRG1ONibE/TLUNP2ov4o8aTdtYLZYIsQEbEqlKhSJFqHLfpeUOezMza57zo8w6ewD1fMl3Us/JeZIVZjOz1vs+76z3st5RbNsm/guhK4pyo3X4t0C90Qr8u/A/Yv9p0GN/kAR5PZao6nXOtm1DURTcaF90dFMURer4Z3rpwHXlSUJVVczOzmJ6ehqGYQAAgsEgEhISoGnakoVs25bXywkhKQ3jwDHYYjhrOXo4BJxhGAamp6cxPz+PuLg4BAIBBAIBSXaxbJ0kpqamcPHiRXz33XeoqalBb2+vfEDTNGzfvh2VlZXIy8uDrusgibm5OXz66aewLAupqakoLi6W5B0IIfDll18iHA5DVVXk5uZi48aN0hAOEee5K1euwO/3o7y8XCo9Pj6OlpYWvPfeezh79qxcOysrC48//jjKyspQWFjoWtMRzvz8fHq9Xvp8Pno8HqqqSlVVqes6dV2npmkMBAKsqqqiEIK2bXN6epq33XYbfT4fQ6EQR0dHKYRgLNrb26mqKuPi4ujz+ZiTkyPnO7Btm4ODg/R4PPR6vczJyeH4+DgNw+Dk5CSzs7Op6zo9Hg81TZO6aZpGn8/HYDDIt99+m7Ztu9bVAWBgYACapiEzMxMpKSlITk5GIBDA8PAwurq60NPTg0gkgsOHD2P79u3Izs5GIBBAZmYm+vv7MTs7i/b2dmzatMm1HQYHB2HbNmzbhhACk5OTuHbtGpKSkqR1FUVBXV0dTNOEoijYuHEjAoEAIpEInnjiCXR3d8O2bWRmZiInJwdZWVkAgO7uboTDYfT09CAcDi+7t3n8+HH+9NNPnJmZkcydceXKFZaUlBAAAbCsrEzee/XVV6koCnVd53PPPUfLslxW++CDD+Q8RVHo8/nY3NxM0zRdb2zTpk1UFIWapvHYsWMUQvDQoUNy7p133snR0dElulmWxV9++YUDAwMuuVxwTAohpFKLh2maPHnypBRy8803y3snTpygqqpUFIUJCQkcGhqiZVly8aqqKqqqyrS0NKakpFDXdX788ceuZ4QQTEpKksR7enpomiaff/55aZBnn332D/WzLGuJC5Ck6kSq2KgXO0hi1apV8g1PTU3BsizYto177rkHoVAIiqJgamoKra2trjTx1VdfwbZtlJaWIisrC6qq4vPPP4cQQobs2tpaXLt2DSRx++23Izk5GQCQkpIig8sXX3yB0dHRZfXTNG3ZSOv6jxACo6Oj6O/vx+DgIMbGxmBZlivaKIoC27ahqirS09OxefNmKaSpqUk+19nZid9//x26rqOyshLJycmwbRtnz57FzMyMTAUffvghHONu2bIFXq8Xqqri0UcfRSAQAACMjY1h69atqKurQ1dXFyKRyFKfWs7HLMtiW1sb09PT5ZaLHQ888IC81jSN0WhU+kd9fT0BMC4ujg8//DBt26YQgtu2bSMApqSkcGpqip988omMtI2NjRRCcGxsjD6fj4qicOXKlRRCyG1lWRZbW1vp9/upKIpLH6/Xy/379/Pq1asyyi7xMdu2uXPnTnq93mVJLR6xxCzL4sDAABMTE6nrOteuXcuJiQkKIbh+/XpplPn5eV64cIHx8fH0eDzct28fLcvib7/9Rl3XCYBbtmxxKegYfOfOnQyFQq4g5PwNhULct2/fkhRCknjrrbfo8/mk1V966SWeOHGCp0+f5smTJ1lbW8sdO3a4iM3Pzy8Rrus6fT4fL1++TMMwGAwGqaoq9+/fT8MwGI1GWVJSQr/fz4qKCpqmydbWVqnogQMHaBjGkhwnhODQ0BBPnTrF3bt3My8vj5qmSXIej4eVlZU0TdM1FykpKXLxXbt20bZtGoZB0zRpGAZnZ2fZ1NS0LDHnrdXW1sqkeebMGf7666/UNI3x8fEyTAshuGfPHiqKwvvvv5/T09MypDvbMzYNxEIIIUnPzc2xpqaGaWlpVFWVAOj3+9nW1uYmFhcXRwD0eDxLWJOkaZpsaGhYdis6Vu3p6WEwGKSmaSwvL+dHH31EAFyzZo0M00II+YYCgQBHRkaYnZ1NAFyxYgWnp6eXyF4MZ6sahsGJiQnm5+dLnd5//3135cGFsBsXFyeLz8W4ePGivCYJ0zTh9Xrl76SkJCQmJiISiaCjo0OG34yMDFf4D4VC8Hq9mJubQ319vaxJS0pKEB8f75LNhRoytv50/mqaBr/fjw0bNqCjo0NGWBcc/wLAY8eO0bIsOUzT5JEjRxgKhVyR6dtvv3U5uWEYfOWVV2T14OyCF198UVpZCOGyclJSklyvubnZtZ4QgrW1tayrq+PMzIxMwrG6/fzzz3TcyOPx8Ny5c+6tmJmZKZX2+/2sq6vj0NAQOzs7WVpaSlVV6ff7GQgEpCKvv/66K9sbhsHm5mYGAgGXAd599135nBNoiouLpW84LjAxMbFkuxUWFlJRFBYUFHDv3r3s7e3l8PAwh4eHefToUSYmJkq/zs/P5/z8vJtYX18fs7KyXD7k8XgYFxcn/aGuro4dHR2Mj48nAFZUVLiIOVbevHmzKzV0d3e7hJmmyb1797qIHTp0aEkktCyLW7dupaIocjgnBK/X65pfXFzMcDi8JJfBtm22tLSwuLiYmqZRURSqqirD6KVLl6Sw6upqPvPMMxwfH1/i1EIIHj9+nAUFBVy3bh2rq6uXOL8QguFwmA8++CDXrFnD9evXc25ubtkgMTk5yYMHDzInJ0ceVxySqqoyMTGRVVVVHBwcXDZBK3SiB4CrV6+iv78ffr8f6enpCAaDSwLJjcDk5CR6e3sxPj4OAAiFQsjNzYXH4/nDOS5iMZc3vMexGLG6AX+tn4vYfwKc0O6o7aST2N+Kori7VH9ncKGpI4TA2NgYJicnEY1GMTs7C0VREB8fjxUrViA9PR26rl/vefxVxv87wDRNfv/993z66aeZmZkpa0VnAGAgEOCZM2dILvQ8nKytadoNfCd/jiNHjmDHjh3yLKZpGrxer+tsNjc3h5GREQCAftddd6GsrAxPPfUUcnJyAPxx7+9G4qGHHkJzczP8fj+8Xq88kEajUYyMjOCxxx7D8PAwfD7f9QkrVqyQheibb77JkZGRPzy83UjE9jgMw2BfXx/D4bD8fffddxMA6+vrSZIYGhrihg0b5D696aabuG3bNtbX1zMSifxtyAkhGIlE2NjYyPLycvr9ft5xxx0cHh7mxMQEU1NTCYDt7e0kF7pUs7OzPHz4sKscUlWVt9xyC8vLy9nS0rJsJ+j/k3Rs5ykWlmXxwoULfOSRR2R9CIDp6ek8f/48DcPgjz/+SEVR6PV6GYlE/knMQV1dHYuLixlb8WPhZF1UVMRdu3bx6NGjPHfuHPv7+2XlvVxb7K/GYjKWZXFmZoZ9fX1samriwYMH+dprr3Ht2rUuXRISEvjkk0+yq6tLVvwvv/wyAfCdd96Ray9beZw6dQq7d+9GZ2cnTNPE4vsOnC5VUVERcnNzkZSUhJUrV8Ln87nOdrFfSLiQYKPRKKampnD58mWMjo7i66+/RmNjIwYGBuT6TvfLtm34fD7k5eWhpqYG9957L4DrXbXe3l4UFRXBtm0MDAz881y33HawLIvRaJTffPMNKyoqZDMltqrGQh6J7fF7vV4Gg0EmJCQwISGBiYmJTE1NZUZGBm+99VauWrVK3gsGg/T5fHK+U4A7azt9jYyMDL7wwgtsbW3l/Py8K7AJIXjgwAH6/X42NDS4doOLWCycVphhGLx06RKrq6u5evVql3Cn4l5M1BmxCTR2LL7nPI+YpFtYWMg9e/YwHA7TMIwlHV+HxBtvvMHPPvtsSXv9X6oVnQQ+MjKChoYGtLa2oqOjA0NDQ+jr60M0Gl32w9xyWPzhjiQSExORkZGBtLQ0FBQUYN26dSguLpY56c/yqmmay367+z8VwUIIlyAhBNra2nD+/HmcPn0aP/zwAyYmJmBZlmxjc3FxquvQNA0ZGRm47777UFpaiuzsbKxevdolR1XVf6lQcIy5GP8A3q2uTQ67t5MAAAAASUVORK5CYII=;" vertex="1" parent="1">
          <mxGeometry x="43" y="522" width="54" height="40" as="geometry" />
        </mxCell>
        <mxCell id="n85-47FMdQ1bUjtsNz0O-7" value="AWS Resources" style="text;strokeColor=none;align=center;fillColor=none;html=1;verticalAlign=middle;whiteSpace=wrap;rounded=0;" vertex="1" parent="1">
          <mxGeometry x="100" y="690" width="50" height="30" as="geometry" />
        </mxCell>
        <mxCell id="n85-47FMdQ1bUjtsNz0O-9" value="" style="sketch=0;outlineConnect=0;fontColor=#232F3E;gradientColor=none;fillColor=#4D27AA;strokeColor=none;dashed=0;verticalLabelPosition=bottom;verticalAlign=top;align=center;html=1;fontSize=12;fontStyle=0;aspect=fixed;pointerEvents=1;shape=mxgraph.aws4.network_load_balancer;" vertex="1" parent="1">
          <mxGeometry x="97" y="573.5" width="38" height="38" as="geometry" />
        </mxCell>
        <mxCell id="n85-47FMdQ1bUjtsNz0O-10" value="" style="sketch=0;outlineConnect=0;fontColor=#232F3E;gradientColor=none;fillColor=#4D27AA;strokeColor=none;dashed=0;verticalLabelPosition=bottom;verticalAlign=top;align=center;html=1;fontSize=12;fontStyle=0;aspect=fixed;pointerEvents=1;shape=mxgraph.aws4.application_load_balancer;" vertex="1" parent="1">
          <mxGeometry x="140" y="570" width="41.5" height="41.5" as="geometry" />
        </mxCell>
        <mxCell id="n85-47FMdQ1bUjtsNz0O-11" value="" style="sketch=0;points=[[0,0,0],[0.25,0,0],[0.5,0,0],[0.75,0,0],[1,0,0],[0,1,0],[0.25,1,0],[0.5,1,0],[0.75,1,0],[1,1,0],[0,0.25,0],[0,0.5,0],[0,0.75,0],[1,0.25,0],[1,0.5,0],[1,0.75,0]];outlineConnect=0;fontColor=#232F3E;gradientColor=#F78E04;gradientDirection=north;fillColor=#D05C17;strokeColor=#ffffff;dashed=0;verticalLabelPosition=bottom;verticalAlign=top;align=center;html=1;fontSize=12;fontStyle=0;aspect=fixed;shape=mxgraph.aws4.resourceIcon;resIcon=mxgraph.aws4.ec2;" vertex="1" parent="1">
          <mxGeometry x="97" y="613.5" width="36.5" height="36.5" as="geometry" />
        </mxCell>
        <mxCell id="n85-47FMdQ1bUjtsNz0O-12" value="Amazon Cloudfront" style="sketch=0;outlineConnect=0;fontColor=#232F3E;gradientColor=none;strokeColor=#ffffff;fillColor=#232F3E;dashed=0;verticalLabelPosition=middle;verticalAlign=bottom;align=center;html=1;whiteSpace=wrap;fontSize=10;fontStyle=1;spacing=3;shape=mxgraph.aws4.productIcon;prIcon=mxgraph.aws4.cloudfront;" vertex="1" parent="1">
          <mxGeometry x="141.5" y="620" width="40" height="50" as="geometry" />
        </mxCell>
      </root>
    </mxGraphModel>
  </diagram>
</mxfile>
